<svg width="1000" height="600" viewBox="0 0 1000 600" fill="none" xmlns="http://www.w3.org/2000/svg">
<rect width="1000" height="600" fill="white"/>
<path d="M374 314.171L424.842 241.937H516.211L558.947 289.11L586.211 259.627L626 314.171H586.211V438H414.526V314.171H374Z" fill="#00AEEF"/>
<path d="M483.053 326.701V293.533H516.211V326.701H553.789V359.133H516.211V395.25H483.053V359.133H448.421V326.701H483.053Z" fill="white"/>
<path fill-rule="evenodd" clip-rule="evenodd" d="M514.877 128.954C526.761 116.818 542.879 110 559.685 110C576.491 110 592.609 116.818 604.493 128.954C616.376 141.09 623.053 157.55 623.053 174.713C623.053 191.876 616.376 208.336 604.493 220.472L559.685 275.106L514.877 220.472C508.992 214.463 504.325 207.329 501.14 199.478C497.955 191.627 496.316 183.211 496.316 174.713C496.316 166.215 497.955 157.8 501.14 149.948C504.325 142.097 508.992 134.963 514.877 128.954Z" fill="#626262"/>
<ellipse cx="560.421" cy="166.755" rx="25.7895" ry="25.7978" fill="white"/>
</svg>
