<svg width="873" height="473" viewBox="0 0 873 473" fill="none" xmlns="http://www.w3.org/2000/svg">
<path fill-rule="evenodd" clip-rule="evenodd" d="M452.92 42.3521C458.271 36.071 461.893 28.3735 461.288 19.7482C459.544 -5.10374 424.95 0.363368 418.22 12.9065C411.491 25.4496 412.29 57.2662 420.988 59.508C424.456 60.4021 431.845 58.212 439.365 53.6794L434.645 87.0728H462.515L452.92 42.3521Z" fill="#B28B67"/>
<path fill-rule="evenodd" clip-rule="evenodd" d="M437.971 22.4928C436.904 37.3539 434.082 44.7845 429.505 44.7845C422.639 44.7845 416.813 40.4254 413.8 40.4254C411.604 40.4254 412.094 43.1738 413.55 45.2116C414.751 46.8928 420.6 48.5132 420.6 51.1197C420.6 53.7261 415.979 51.7096 415.979 53.2555C415.979 55.8124 415.167 60.62 419.605 60.62C424.096 60.62 436.973 58.9833 439.18 52.3174C440.604 48.0155 441.525 39.101 441.943 25.5741C442.215 25.5417 442.492 25.525 442.774 25.525C446.622 25.525 449.741 28.6446 449.741 32.4927C449.741 34.4462 448.937 36.212 447.642 37.4772C449.254 39.7528 451.061 42.13 453.132 44.583C460.91 39.9164 466.682 26.2554 459.077 13.1322C456.975 6.70331 452.217 3.2694 446.597 1.67493C442.045 -0.229318 437.319 -0.444025 433.33 0.697556C425.51 1.3683 418.527 3.75281 416.548 5.16891C416.548 12.5723 417.983 14.7689 430.235 14.5753C433.246 16.1653 435.561 18.9033 437.971 22.4928Z" fill="#191847"/>
<path fill-rule="evenodd" clip-rule="evenodd" d="M471.805 183.459L429.703 331.205L398.985 440.102H376.581L409.223 183.459H471.805Z" fill="#191847"/>
<path fill-rule="evenodd" clip-rule="evenodd" d="M483.065 183.459C484.039 259.609 487.359 301.143 488.382 308.062C489.404 314.98 504.864 358.994 534.763 440.102H511.553C473.49 362.292 452.243 318.279 447.81 308.062C443.378 297.844 429.699 256.31 409.096 183.459H483.065Z" fill="#2F3676"/>
<path fill-rule="evenodd" clip-rule="evenodd" d="M536.837 461.004L535.676 436.618H511.289C499.725 444.747 484.629 451.327 465.999 456.359V461.004H510.128L525.224 458.682V461.004H536.837Z" fill="#191847"/>
<path fill-rule="evenodd" clip-rule="evenodd" d="M402.129 461.004L400.967 436.618H376.581C365.017 444.747 349.92 451.327 331.291 456.359V461.004H375.419L390.516 458.682V461.004H402.129Z" fill="#191847"/>
<path fill-rule="evenodd" clip-rule="evenodd" d="M393.185 178.29L364.86 214.481C355.918 219.804 348.747 225.317 343.345 231.022C342.204 232.849 341.144 236.198 347.365 233.926C353.587 231.654 360.233 229.545 361.718 231.468C363.203 233.39 360.083 237.063 362.677 239.492C364.406 241.111 368.62 234.654 375.32 220.119L406.534 195.57L393.185 178.29ZM546.046 133.611L526.506 140.694C557.811 183.145 574.524 205.563 576.644 207.948C581.415 213.315 579.473 224.779 579.017 230.73C587.667 231.402 582.457 219.327 593.429 220.342C603.444 221.269 612.563 226.174 620.297 216.508C621.248 215.319 621.572 212.008 617.551 210.947C607.534 208.305 592.489 202.791 589.786 200.173C586.101 196.602 571.521 174.414 546.046 133.611Z" fill="#B28B67"/>
<path fill-rule="evenodd" clip-rule="evenodd" d="M444.906 68.8688L431.572 67.3171C423.37 113.108 406.564 159.244 371.508 202.519L385.656 218.365C418.227 188.871 449.825 164.659 457.304 128.945C459.814 116.958 448.01 81.9412 444.906 68.8688Z" fill="#C5CFD6"/>
<path fill-rule="evenodd" clip-rule="evenodd" d="M490.658 199.763C454.15 203.634 425.413 203.634 404.45 199.763C401.852 199.284 401.442 194.935 402.647 191.984C421.404 146.025 434.266 105.922 434.266 74C437.708 75.7351 443.731 75.9952 452.336 74.7801C475.462 107.677 486.092 145.423 490.658 199.763Z" fill="#323337"/>
<path fill-rule="evenodd" clip-rule="evenodd" d="M454.624 60.5405L445.186 62.4885C445.655 75.8674 474.847 252.327 465.265 314L581.049 290.104C567.714 238.17 534.91 179.25 503.969 130.665C525.056 143.236 546.191 167.547 567.374 203.599L587.913 193.556C557.447 127.399 513.752 83.1687 456.83 60.8668C456.669 60.6382 456.509 60.4107 456.35 60.1842L455.515 60.3566C455.167 60.2228 454.818 60.0897 454.469 59.9575L454.624 60.5405V60.5405Z" fill="#DDE3E9"/>
<path fill-rule="evenodd" clip-rule="evenodd" d="M144.485 63.163C147.299 55.6085 148.052 47.3315 144.614 39.6151C134.709 17.382 104.775 33.961 102.789 47.725C100.802 61.4891 112.168 90.4317 120.901 89.5836C124.384 89.2455 130.436 84.7659 135.825 78.0919L142.65 110.326L168.237 101.013L144.485 63.163Z" fill="#B28B67"/>
<path fill-rule="evenodd" clip-rule="evenodd" d="M105.791 38.0329C106.25 37.4698 107.207 36.2857 107.731 35.7922C107.855 35.6743 108.617 34.5654 108.648 34.5645C109.523 34.5439 112.133 34.6932 112.632 35.4615C112.685 35.5141 112.736 35.563 112.784 35.6047C113.315 36.0696 113.825 36.5585 114.325 37.0596C115.421 38.1597 116.454 39.3501 117.46 40.5383C119.419 42.8524 121.272 45.2758 123.057 47.7306C124.875 50.2295 126.583 52.8052 128.365 55.3302C130.93 58.9635 133.765 62.3862 136.321 66.0207C137.953 68.3413 139.287 70.8045 140.069 73.5199C140.079 73.5524 140.089 73.5842 140.098 73.6176C140.102 73.6312 140.105 73.6449 140.108 73.6586C140.225 74.0771 140.33 74.5014 140.42 74.9324C140.496 75.3012 140.572 75.6715 140.644 76.0429C138.928 74.4215 137.373 72.5124 135.812 70.7313C135.659 70.557 135.51 70.3798 135.362 70.2013C134.949 69.8752 134.532 69.554 134.112 69.2354C131.468 67.2266 128.82 65.2299 126.228 63.1483C121.565 59.4045 116.893 55.5493 111.832 52.395C110.338 51.4635 108.827 50.5606 107.341 49.6138C106.496 49.075 105.661 48.5183 104.84 47.9414C104.252 47.5289 101.871 46.2122 102.058 44.8326C102.153 44.1268 104.601 39.4938 105.791 38.0329Z" fill="#2C2C2C"/>
<path fill-rule="evenodd" clip-rule="evenodd" d="M107.581 35.9561C107.081 36.3551 106.927 35.0681 107.327 34.4498C109.181 31.5854 118.703 27.325 127.855 25.9944C133.985 25.103 141.687 25.6352 147.617 27.7642C152.964 29.6836 157.778 34.1279 161.155 38.8854C164.702 43.8809 167.039 49.5838 168.261 55.5854C168.529 56.9037 168.561 58.2412 168.783 59.5464C169.033 61.0162 169.387 62.3901 169.426 63.8943C169.45 64.8152 169.276 65.79 169.342 66.7009C169.417 67.7403 169.897 68.5524 170.441 69.4395C171.328 70.8854 172.289 72.3003 173.393 73.5877C175.05 75.521 176.835 77.2468 178.321 79.3378C180.299 82.1201 187.527 90.886 185.92 94.5773L136.325 112.628C136.334 108.767 138.624 103.394 138.055 99.4709C137.72 97.16 136.225 92.3913 136.21 92.2038C134.524 84.0928 135.367 79.6194 136.248 77.7868C137.129 75.9541 138.8 74.881 138.472 73.6887C137.116 68.7575 133.541 64.8611 130.517 60.899C126.913 56.1767 123.706 51.1605 120.057 46.475C118.441 44.4002 110.179 33.8845 107.581 35.9561Z" fill="#8991DC"/>
<path fill-rule="evenodd" clip-rule="evenodd" d="M126.976 35.1378C131.006 40.3911 132.561 43.4123 135.11 51.6667L136.027 51.3328C134.956 43.0575 130.809 36.4096 128.129 34.7181L126.976 35.1378ZM157.64 41.3199C157.233 51.0451 157.461 56.6172 150.22 67.0027L151.163 67.2554C158.831 58.2634 159.267 50.708 158.501 41.4054L157.64 41.3199ZM140.188 37.926C142.974 50.5055 145.007 57.53 141.54 73.6614L142.515 73.6103C146.841 59.0891 144.79 49.2687 141.031 37.6938L140.188 37.926ZM162.275 70.2663L161.192 69.627C152.117 76.5633 155.669 82.7716 145.209 94.1749L146.525 94.4357C156.125 85.6623 155.126 74.7022 162.275 70.2663Z" fill="black" fill-opacity="0.2"/>
<path fill-rule="evenodd" clip-rule="evenodd" d="M203.085 200.924L118.78 341.866L55.5762 461.02H41.9626L147.862 200.924L203.085 200.924Z" fill="#997659"/>
<path fill-rule="evenodd" clip-rule="evenodd" d="M63.9001 455.519C65.1694 458.908 65.8041 461.443 65.8041 463.125C65.8041 465.171 65.4632 468.157 64.7816 472.082C62.4082 472.082 41.0779 472.082 0.790736 472.082C-0.872159 466.584 0.0877605 463.616 3.67049 463.178C7.25323 462.74 10.2295 462.344 12.5992 461.991L42.3415 448.731C42.9138 448.476 43.5846 448.733 43.8397 449.306C43.8441 449.315 43.8483 449.325 43.8524 449.335L45.7642 453.973C49.0809 455.52 51.776 456.294 53.8497 456.294C55.5344 456.294 57.8611 455.614 60.8297 454.253L60.8296 454.253C61.9689 453.73 63.3157 454.231 63.8379 455.37C63.8605 455.419 63.8812 455.469 63.9001 455.519Z" fill="#E4E4E4"/>
<path fill-rule="evenodd" clip-rule="evenodd" d="M73.1299 441.94L46.8762 433.998C58.3786 399.612 72.4765 361.771 89.1698 320.476C105.863 279.181 123.791 239.33 142.954 200.924H217.103C195.799 249.506 173.213 293.65 149.346 333.354C125.479 373.059 100.073 409.254 73.1299 441.94Z" fill="#DB2721"/>
<path fill-rule="evenodd" clip-rule="evenodd" d="M208.625 200.924C216.582 250.452 231.929 313.729 233.377 315.682C234.342 316.984 269.102 328.631 337.654 350.624L334.714 362.629C252.965 350.834 209.89 341.683 205.489 335.176C198.889 325.415 165.93 248.306 153.165 200.924H208.625Z" fill="#B28B67"/>
<path fill-rule="evenodd" clip-rule="evenodd" d="M313.557 340.247L308.377 359.582C247.234 364.944 209.77 361.069 195.985 347.957C182.201 334.845 166.491 285.834 148.855 200.924H219.561C230.735 270.453 236.981 306.678 238.301 309.596C239.621 312.515 264.706 322.732 313.557 340.247Z" fill="#FF4133"/>
<path fill-rule="evenodd" clip-rule="evenodd" d="M334.297 345.623C337.854 344.961 340.461 344.777 342.118 345.069C344.133 345.424 347.014 346.278 350.761 347.631C350.349 349.968 346.645 370.975 339.649 410.65C333.946 411.333 331.19 409.872 331.381 406.268C331.571 402.663 331.698 399.663 331.762 397.268L323.869 365.675C323.717 365.068 324.086 364.452 324.694 364.3C324.705 364.297 324.715 364.295 324.726 364.292L329.625 363.215C331.725 360.217 332.955 357.698 333.315 355.655C333.607 353.996 333.341 351.587 332.517 348.427L332.517 348.427C332.2 347.214 332.927 345.975 334.139 345.658C334.191 345.645 334.244 345.633 334.297 345.623Z" fill="#E4E4E4"/>
<path fill-rule="evenodd" clip-rule="evenodd" d="M104.571 200.907L78.8481 237.71C70.3919 243.403 63.6783 249.178 58.7073 255.034C57.6909 256.875 56.8382 260.189 62.8003 257.618C68.7624 255.047 75.1489 252.608 76.708 254.388C78.267 256.168 75.4157 259.917 78.0871 262.123C79.8681 263.593 83.6364 257.076 89.3919 242.57L118.582 216.901L104.571 200.907ZM251.676 148.547L232.947 156.571C265.91 195.951 283.495 216.736 285.701 218.928C290.664 223.859 289.394 235.104 289.275 240.909C297.776 241.054 292.014 229.635 302.805 229.977C312.655 230.288 321.846 234.516 328.882 224.675C329.747 223.465 329.882 220.231 325.89 219.437C315.943 217.46 300.92 212.991 298.132 210.607C294.33 207.356 278.845 186.669 251.676 148.547Z" fill="#B28B67"/>
<path fill-rule="evenodd" clip-rule="evenodd" d="M149.158 91.6249L136.027 90.9014C130.52 135.845 116.614 181.628 84.6944 225.705L99.4084 240.26C129.655 209.709 159.24 184.344 164.593 149.228C166.39 137.442 152.915 104.135 149.158 91.6249Z" fill="#C5CFD6"/>
<path fill-rule="evenodd" clip-rule="evenodd" d="M221.201 194.656C187.597 207.556 160.381 214.849 139.552 216.534C136.972 216.742 135.489 212.763 135.887 209.686C142.088 161.768 144.18 120.846 136.148 90.8691C139.844 91.6251 145.614 90.3407 153.458 87.016C183.638 112.039 203.203 144.786 221.201 194.656Z" fill="#323337"/>
<path fill-rule="evenodd" clip-rule="evenodd" d="M158.209 82.9678L149.081 85.4136C150.277 98.3764 188.542 267.997 182.558 328.441L294.529 298.439C278.626 248.797 243.289 193.515 210.345 148.158C231.668 159.125 253.683 181.489 276.392 215.25L295.935 204.292C262.489 141.845 217.305 101.466 160.385 83.1551C160.215 82.9426 160.046 82.7311 159.878 82.5205L159.071 82.737C158.723 82.6274 158.374 82.5187 158.025 82.4108L158.209 82.9678V82.9678Z" fill="#DDE3E9"/>
<path fill-rule="evenodd" clip-rule="evenodd" d="M764.738 182.49C769.346 177.081 772.464 170.453 771.943 163.025C770.442 141.625 740.651 146.333 734.857 157.134C729.062 167.935 729.75 195.333 737.24 197.263C740.226 198.033 746.589 196.147 753.065 192.244L749 221H773L764.738 182.49Z" fill="#B28B67"/>
<path fill-rule="evenodd" clip-rule="evenodd" d="M744.336 145.37C747.616 144.37 752.377 144.031 754.379 144.26C753.24 141.531 752.788 138.49 753.156 135.529C753.515 132.652 754.8 130.202 755.989 127.635C756.537 126.452 757.158 125.275 758.084 124.37C759.028 123.448 760.222 122.84 761.474 122.549C762.755 122.252 764.095 122.277 765.378 122.547C765.946 122.666 766.455 122.925 767.012 123.07C767.582 123.218 767.859 122.861 768.273 122.502C769.27 121.638 770.732 121.211 771.994 121.059C773.41 120.887 774.879 121.101 776.229 121.566C777.543 122.019 778.805 122.755 779.755 123.827C780.178 124.304 780.562 124.847 780.812 125.446C780.914 125.692 780.931 125.838 781.177 125.928C781.404 126.012 781.669 126.014 781.904 126.094C784.169 126.861 786.107 128.612 787.162 130.86C787.777 132.171 788.068 134.48 787.989 137.068C787.909 139.656 785.572 146.408 783.387 148.871C781.436 151.07 778.568 152.52 775.801 153.155C777.638 155.255 778.86 157.878 779.765 160.547C780.747 163.445 781.355 166.457 781.579 169.525C781.792 172.44 781.812 175.524 781.129 178.377C780.489 181.045 779.122 183.234 776.839 184.622C775.794 185.258 774.669 185.736 773.537 186.173C772.422 186.603 771.304 187.022 770.136 187.263C767.925 187.72 765.378 187.642 763.675 185.882C763.061 185.248 762.386 184.451 761.939 183.676C761.778 183.397 761.68 183.215 761.876 182.943C762.11 182.616 762.489 182.366 762.79 182.111C764.507 180.656 765.57 178.713 765.837 176.405C766.109 174.063 765.48 171.039 763.203 170.017C760.392 168.755 757.296 170.204 754.797 171.554C753.735 167.806 751.555 164.431 748.137 162.712C744.355 160.811 740.015 160.588 736.129 158.956C735.116 158.531 734.085 158.048 733.339 157.182C733.027 156.82 732.662 156.35 732.537 155.871C732.374 155.242 732.78 154.715 733.093 154.224C734.755 151.624 741.057 146.37 744.336 145.37Z" fill="#191847"/>
<path fill-rule="evenodd" clip-rule="evenodd" d="M654.116 322.096C646.936 312.358 628.989 318.804 629 326.866C629.028 348.031 648.343 448.512 649.352 454.856C650.36 461.2 661.163 463.275 661.792 455.348C662.793 442.736 664.653 399.013 662.792 378.672C662.249 372.73 661.676 366.987 661.099 361.607C671.25 379.843 686.686 405.619 707.407 438.934L718.923 433.672C709.88 403.876 702.464 382.841 696.677 370.566C686.767 349.55 677.475 331.552 673.564 325.212C668.398 316.838 660.019 317.949 654.116 322.096Z" fill="#B28B67"/>
<path fill-rule="evenodd" clip-rule="evenodd" d="M718.1 417.125L678.573 323.487C669.103 308.255 642.554 326.587 645.783 335.422C653.114 355.479 690.4 420.414 692.585 426.39L718.1 417.125Z" fill="#1F28CF"/>
<path fill-rule="evenodd" clip-rule="evenodd" d="M628 334.176C628 360.718 639.634 423.106 639.642 428.95L667.824 428C662.898 373.757 660.82 346.452 661.591 346.084C663.327 345.257 732.738 355.691 753.555 356.479C783.574 357.615 795.992 339.199 797 304.25H738.852C689.131 310.186 656.452 314.314 640.815 316.634C630.774 318.125 628 326.865 628 334.176Z" fill="#2B44FF"/>
<path fill-rule="evenodd" clip-rule="evenodd" d="M720.482 430.736C722.29 433.363 723.373 435.396 723.732 436.835C724.168 438.585 724.514 441.21 724.767 444.713C722.738 445.219 704.496 449.767 670.041 458.358C667.447 454.011 667.635 451.268 670.605 450.129C673.576 448.99 676.037 448.017 677.988 447.209L700.597 429.528C701.032 429.188 701.661 429.264 702.001 429.699C702.007 429.707 702.013 429.714 702.018 429.722L704.642 433.281C707.808 433.897 710.278 433.984 712.052 433.542C713.493 433.182 715.337 432.104 717.586 430.308L717.586 430.308C718.449 429.618 719.707 429.759 720.397 430.622C720.427 430.659 720.455 430.697 720.482 430.736Z" fill="#E4E4E4"/>
<path fill-rule="evenodd" clip-rule="evenodd" d="M663.322 440.402C664.441 443.388 665 445.623 665 447.106C665 448.909 664.7 451.54 664.099 455C662.007 455 643.206 455 607.697 455C606.231 450.154 607.077 447.539 610.235 447.152C613.393 446.766 616.016 446.417 618.105 446.106L644.32 434.419C644.824 434.194 645.416 434.421 645.641 434.925C645.644 434.934 645.648 434.942 645.652 434.951L647.337 439.039C650.26 440.403 652.636 441.085 654.463 441.085C655.948 441.085 657.999 440.485 660.616 439.285L660.616 439.285C661.62 438.825 662.807 439.266 663.267 440.27C663.287 440.313 663.305 440.357 663.322 440.402Z" fill="#E4E4E4"/>
<path d="M614.5 455H660.5C662.433 455 664 456.567 664 458.5C664 460.433 662.433 462 660.5 462H614.5C612.567 462 611 460.433 611 458.5C611 456.567 612.567 455 614.5 455Z" fill="#2F3676"/>
<path fill-rule="evenodd" clip-rule="evenodd" d="M800 310H693C687.477 310 683 314.477 683 320V369H806C808.209 369 810 367.209 810 365V320C810 314.477 805.523 310 800 310Z" fill="#2F3676"/>
<path fill-rule="evenodd" clip-rule="evenodd" d="M693 310H690.806C685.909 310 681.732 313.547 680.938 318.38L659 452H669.686" fill="#2F3676"/>
<path d="M664 472C654.059 472 646 463.941 646 454C646 444.059 654.059 436 664 436C673.941 436 682 444.059 682 454C682 463.941 673.941 472 664 472Z" fill="#191847"/>
<path fill-rule="evenodd" clip-rule="evenodd" d="M797 470C838.974 470 873 435.974 873 394C873 352.026 838.974 318 797 318C755.026 318 721 352.026 721 394C721 435.974 755.026 470 797 470ZM797 456C762.758 456 735 428.242 735 394C735 359.758 762.758 332 797 332C831.242 332 859 359.758 859 394C859 428.242 831.242 456 797 456Z" fill="#191847"/>
<path d="M793 328H801V460H793V328Z" fill="#191847"/>
<path d="M748.917 348.745L751.745 345.917C752.526 345.136 753.793 345.136 754.574 345.917L845.083 436.426C845.864 437.207 845.864 438.474 845.083 439.255L842.255 442.083C841.474 442.864 840.207 442.864 839.426 442.083L748.917 351.574C748.136 350.792 748.136 349.526 748.917 348.745Z" fill="#191847"/>
<path d="M731 396V392C731 390.895 731.895 390 733 390H861C862.105 390 863 390.895 863 392V396C863 397.104 862.105 398 861 398H733C731.895 398 731 397.104 731 396Z" fill="#191847"/>
<path d="M751.745 442.083L748.917 439.255C748.136 438.474 748.136 437.207 748.917 436.426L839.426 345.917C840.207 345.136 841.474 345.136 842.255 345.917L845.083 348.745C845.864 349.526 845.864 350.792 845.083 351.573L754.574 442.083C753.793 442.864 752.526 442.864 751.745 442.083Z" fill="#191847"/>
<path fill-rule="evenodd" clip-rule="evenodd" d="M695.544 201.341L657.64 189.962C650.569 184.458 643.899 180.433 637.631 177.889C635.808 177.546 632.79 177.745 636.562 182.023C640.333 186.301 644.108 190.971 643.031 192.765C641.954 194.559 638.031 193.206 636.895 196.048C636.138 197.942 642.638 199.299 656.395 200.118L685.866 217.463L695.544 201.341ZM698.893 268.168L666.995 291.592C658.343 293.926 651.115 296.831 645.311 300.305C643.94 301.555 642.283 304.085 647.969 303.648C653.655 303.21 659.656 303.006 660.441 304.946C661.226 306.885 657.785 309.205 659.371 311.822C660.428 313.566 665.423 309.192 674.357 298.698L705.945 285.599L698.893 268.168Z" fill="#B28B67"/>
<path fill-rule="evenodd" clip-rule="evenodd" d="M748.439 205.087C731.069 237.476 705.95 262.305 669.534 288.116L683.323 303.663C723.982 288.553 745.441 279.436 755.979 248.835C758.624 241.154 760.472 216.671 762.058 203.789L748.439 205.087Z" fill="#2026A2"/>
<path fill-rule="evenodd" clip-rule="evenodd" d="M797 313H720C737.442 259.805 746.352 223.296 746.73 203.472C746.749 202.461 748.616 200.68 749.441 200.913C755.48 202.619 761.943 201.981 768.828 199C787.083 228.358 793.395 264.505 797 313Z" fill="#F2F2F2"/>
<path fill-rule="evenodd" clip-rule="evenodd" d="M762.257 199.047C740.186 199.228 704.376 203.259 663.077 190L659 210.373C690.213 230.448 721.819 245.999 749.514 243.791C737.488 295.377 738.042 337.606 764.593 337.606C777.272 337.606 790.957 337.606 805.649 337.606C812.17 293.784 795.032 233.024 779.144 202.377C778.537 201.206 777.246 199 774.203 199C771.552 199 767.575 199 762.273 199C762.268 199.016 762.263 199.032 762.257 199.047Z" fill="#1F28CF"/>
</svg>
