<svg width="100" height="100" viewBox="0 0 100 100" fill="none" xmlns="http://www.w3.org/2000/svg">
<path d="M50.1859 53.4043C57.5688 53.4043 60.9922 59.009 61.7141 66.9653C61.8844 68.87 61.7063 71.645 61.4625 74.8606C60.6328 85.5418 59.6781 98.6668 66.7906 98.6668C72.8047 98.6668 75.8953 87.1262 77.6781 73.9731C79.4 60.9512 77.5766 54.4715 78.4719 48.6903C80.1813 37.7356 89.7453 27.9137 86.7906 13.945C85.1547 6.19654 80.8891 2.55122 76.6609 1.01997C66.925 -2.52378 60.6375 4.30435 50.1828 4.30435C39.7281 4.30435 33.4422 -2.52378 23.7016 1.01997C19.4781 2.55122 15.2125 6.19654 13.5734 13.945C10.6219 27.9122 20.1813 37.7356 21.8953 48.6903C22.7906 54.4715 20.9688 60.9512 22.6906 73.9731C24.4734 87.1278 27.5641 98.6668 33.5781 98.6668C40.6859 98.6668 39.7375 85.5418 38.9063 74.8606C38.6625 71.6465 38.4828 68.87 38.6531 66.9653C39.3719 59.009 42.8438 53.4043 50.1828 53.4043H50.1859Z" fill="#616161"/>
</svg>
