<svg width="100" height="100" viewBox="0 0 100 100" fill="none" xmlns="http://www.w3.org/2000/svg">
<g clip-path="url(#clip0)">
<path d="M92.5 8.75L91.25 7.5C86.875 2.5 80 0 73.75 0C67.5 0 60.625 2.5 55.625 7.5L7.5 55.625C-2.5 65.625 -2.5 81.25 7.5 91.25L8.75 92.5C13.125 97.5 20 100 26.25 100C32.5 100 39.375 97.5 44.375 92.5L93.125 43.75C102.5 34.375 102.5 18.125 92.5 8.75V8.75ZM88.125 40L63.75 64.375L41.875 41.875L18.125 65.625C11.25 72.5 11.25 81.25 11.875 87.5C4.375 80 4.375 68.125 11.875 60.625L60.625 11.875C63.75 8.125 68.75 6.25 73.75 6.25C78.75 6.25 83.75 8.125 87.5 11.875L88.75 13.125C91.875 16.25 93.75 21.25 93.75 26.25C93.75 31.25 91.875 36.25 88.125 40V40Z" fill="#616161"/>
</g>
<defs>
<clipPath id="clip0">
<rect width="100" height="100" fill="white"/>
</clipPath>
</defs>
</svg>
