<svg width="100" height="100" viewBox="0 0 100 100" fill="none" xmlns="http://www.w3.org/2000/svg">
<g clip-path="url(#clip0)">
<path d="M50.0015 43.5014C34.4917 43.5014 12.5015 67.4779 12.5015 82.6127C12.5015 89.4291 17.7378 93.5014 26.5132 93.5014C36.0523 93.5014 42.3511 88.6029 50.0015 88.6029C57.7183 88.6029 64.0347 93.5014 73.4898 93.5014C82.2652 93.5014 87.5015 89.4291 87.5015 82.6127C87.5015 67.4779 65.5113 43.5014 50.0015 43.5014ZM21.2359 41.0385C19.2046 34.2709 12.9468 29.8881 7.25931 31.2475C1.57181 32.6068 -1.39108 39.1947 0.640171 45.9623C2.67142 52.7299 8.92923 57.1127 14.6167 55.7533C20.3042 54.394 23.2671 47.8061 21.2359 41.0385V41.0385ZM37.7827 36.9799C43.8257 35.39 46.8492 27.226 44.5367 18.7455C42.2242 10.265 35.4507 4.68106 29.4077 6.27091C23.3648 7.86075 20.3413 16.0248 22.6538 24.5053C24.9663 32.9857 31.7417 38.5717 37.7827 36.9799ZM92.7417 31.2494C87.0542 29.89 80.7984 34.2729 78.7652 41.0404C76.7339 47.808 79.6968 54.3959 85.3843 55.7553C91.0718 57.1147 97.3277 52.7318 99.3609 45.9643C101.392 39.1967 98.4292 32.6088 92.7417 31.2494V31.2494ZM62.2202 36.9799C68.2632 38.5697 75.0367 32.9857 77.3492 24.5053C79.6617 16.0248 76.6382 7.8627 70.5952 6.27091C64.5523 4.67911 57.7788 10.265 55.4663 18.7455C53.1538 27.226 56.1773 35.39 62.2202 36.9799V36.9799Z" fill="#00AEEF"/>
</g>
<defs>
<clipPath id="clip0">
<rect width="100" height="100" fill="white"/>
</clipPath>
</defs>
</svg>
