<svg width="100" height="100" viewBox="0 0 100 100" fill="none" xmlns="http://www.w3.org/2000/svg">
<g clip-path="url(#clip0)">
<path d="M50 43.75C34.4902 43.75 12.5 67.7265 12.5 82.8613C12.5 89.6777 17.7363 93.75 26.5117 93.75C36.0508 93.75 42.3496 88.8515 50 88.8515C57.7168 88.8515 64.0332 93.75 73.4883 93.75C82.2637 93.75 87.5 89.6777 87.5 82.8613C87.5 67.7265 65.5098 43.75 50 43.75ZM21.2344 41.2871C19.2031 34.5195 12.9453 30.1367 7.25782 31.4961C1.57032 32.8555 -1.39257 39.4433 0.638675 46.2109C2.66993 52.9785 8.92774 57.3613 14.6152 56.0019C20.3027 54.6426 23.2656 48.0547 21.2344 41.2871V41.2871ZM37.7813 37.2285C43.8242 35.6387 46.8477 27.4746 44.5352 18.9941C42.2227 10.5137 35.4492 4.92968 29.4063 6.51952C23.3633 8.10936 20.3398 16.2734 22.6523 24.7539C24.9648 33.2344 31.7402 38.8203 37.7813 37.2285ZM92.7402 31.498C87.0527 30.1387 80.7969 34.5215 78.7637 41.289C76.7324 48.0566 79.6953 54.6445 85.3828 56.0039C91.0703 57.3633 97.3262 52.9805 99.3594 46.2129C101.391 39.4453 98.4277 32.8574 92.7402 31.498V31.498ZM62.2188 37.2285C68.2617 38.8183 75.0352 33.2344 77.3477 24.7539C79.6602 16.2734 76.6367 8.11132 70.5938 6.51952C64.5508 4.92772 57.7773 10.5137 55.4648 18.9941C53.1523 27.4746 56.1758 35.6387 62.2188 37.2285V37.2285Z" fill="#616161"/>
</g>
<defs>
<clipPath id="clip0">
<rect width="100" height="100" fill="white"/>
</clipPath>
</defs>
</svg>
