<svg width="1000" height="935" viewBox="0 0 1000 935" fill="none" xmlns="http://www.w3.org/2000/svg">
<g clip-path="url(#clip0)">
<path d="M790.454 464.136C902.492 464.136 993.316 412.539 993.316 348.89C993.316 285.242 902.492 233.645 790.454 233.645C678.416 233.645 587.592 285.242 587.592 348.89C587.592 412.539 678.416 464.136 790.454 464.136Z" fill="#FEC30F"/>
<path fill-rule="evenodd" clip-rule="evenodd" d="M793.477 530.462C648.384 530.462 590.615 469.656 590.615 434.434V585.31C590.615 648.978 681.444 700.497 793.477 700.497C905.627 700.497 996.456 648.978 996.456 585.31V438.055C996.456 473.335 938.629 530.462 793.477 530.462Z" fill="#FEC30F"/>
<path fill-rule="evenodd" clip-rule="evenodd" d="M793.477 763.58C663.687 763.58 590.615 705.111 590.615 669.889V819.363C590.615 883.031 681.444 934.608 793.477 934.608C905.627 934.608 996.456 883.031 996.456 819.363V668.078C996.456 703.3 923.325 763.58 793.477 763.58Z" fill="#FEC30F"/>
<path d="M291.856 230.491C418.862 230.491 521.821 178.894 521.821 115.245C521.821 51.5971 418.862 0 291.856 0C164.85 0 61.8909 51.5971 61.8909 115.245C61.8909 178.894 164.85 230.491 291.856 230.491Z" fill="#FEC30F"/>
<path fill-rule="evenodd" clip-rule="evenodd" d="M299.157 296.817C134.73 296.817 69.1923 236.011 69.1923 200.789V351.665C69.1923 415.333 172.171 466.852 299.157 466.852C426.26 466.852 529.181 415.333 529.181 351.665V204.41C529.181 239.69 463.585 296.817 299.157 296.817Z" fill="#FEC30F"/>
<path fill-rule="evenodd" clip-rule="evenodd" d="M299.157 529.936C152.019 529.936 69.1923 471.466 69.1923 436.244V585.719C69.1923 649.387 172.171 700.964 299.157 700.964C426.26 700.964 529.181 649.387 529.181 585.719V434.434C529.181 469.656 446.237 529.936 299.157 529.936Z" fill="#FEC30F"/>
<path fill-rule="evenodd" clip-rule="evenodd" d="M299.157 763.58C152.019 763.58 69.1923 705.111 69.1923 669.889V819.363C69.1923 883.031 172.171 934.608 299.157 934.608C426.26 934.608 529.181 883.031 529.181 819.363V668.078C529.181 703.3 446.237 763.58 299.157 763.58Z" fill="#FEC30F"/>
</g>
<defs>
<clipPath id="clip0">
<rect width="1000" height="934.579" fill="white"/>
</clipPath>
</defs>
</svg>
