<svg width="1000" height="1000" viewBox="0 0 1000 1000" fill="none" xmlns="http://www.w3.org/2000/svg">
<path d="M49.7495 65.9915C49.3425 65.2568 49.0851 64.4487 48.9921 63.614C48.8991 62.7792 48.9724 61.9343 49.2077 61.128C49.4431 60.3217 49.8358 59.5701 50.3632 58.9164C50.8907 58.2627 51.5424 57.72 52.2807 57.3196L98.687 32.0384C99.4224 31.6329 100.231 31.3775 101.066 31.287C101.901 31.1964 102.745 31.2726 103.551 31.5109C104.356 31.7493 105.106 32.1452 105.757 32.6756C106.408 33.206 106.947 33.8604 107.343 34.6009L125.953 68.554C196.312 47.4603 274.265 77.4603 310.874 144.507L220.953 193.601C228.095 206.698 229.742 222.096 225.531 236.407C221.32 250.719 211.597 262.771 198.499 269.913C185.402 277.056 170.004 278.702 155.693 274.492C141.382 270.281 129.329 260.557 122.187 247.46L32.2339 296.492C-4.40676 229.476 12.4214 147.695 68.3276 99.9603L49.7495 65.9759V65.9915Z" fill="#626262"/>
<path d="M683.296 679.688H985.937V992.531H683.296V679.688Z" fill="#626262"/>
<path d="M648.611 834.109H404.189C383.705 834.105 364.06 825.97 349.57 811.492C335.08 797.013 326.929 777.375 326.908 756.891C326.921 736.405 335.069 716.764 349.562 702.286C364.054 687.808 383.704 679.679 404.189 679.688H648.611V834.109Z" fill="#626262"/>
<path d="M121.624 898.469C121.624 881.203 135.608 867.188 152.89 867.188H648.593V992.281H121.624V898.453V898.469Z" fill="#626262"/>
<path d="M309.594 741.609C309.57 766.349 299.721 790.067 282.214 807.547C264.707 825.028 240.975 834.841 216.235 834.828C203.983 834.838 191.849 832.435 180.526 827.756C169.203 823.077 158.912 816.214 150.241 807.557C141.571 798.901 134.69 788.622 129.992 777.307C125.294 765.991 122.87 753.861 122.86 741.609C122.86 690.156 164.657 648.438 216.235 648.438C267.782 648.438 309.594 690.156 309.594 741.609Z" fill="#626262"/>
<path d="M819.906 480.953L767.39 331.438C757.203 303.25 737.64 281.25 682.421 281.25H439.984C384.781 281.25 365.187 303.25 355.046 331.438L302.546 480.953C298.625 490.609 296.593 512.312 317.953 526.844L441.406 608.188C450.063 613.895 460.63 615.938 470.791 613.867C480.951 611.796 489.876 605.781 495.609 597.141C498.437 592.851 500.391 588.047 501.362 583.002C502.332 577.958 502.299 572.771 501.265 567.739C500.23 562.707 498.214 557.928 495.332 553.675C492.45 549.422 488.759 545.779 484.468 542.953L386.484 478.375L414.062 402.297H452.234L429.875 464.016L504.265 513.047C512.5 518.439 519.581 525.414 525.099 533.565C530.616 541.716 534.46 550.883 536.406 560.531C538.426 570.176 538.511 580.126 536.655 589.803C534.799 599.481 531.039 608.694 525.593 616.906C521.228 623.417 515.872 629.206 509.718 634.062H612.718C606.576 629.189 601.217 623.403 596.828 616.906C591.385 608.692 587.624 599.481 585.763 589.804C583.901 580.128 583.977 570.178 585.984 560.531C587.943 550.885 591.793 541.723 597.312 533.572C602.831 525.422 609.91 518.446 618.14 513.047L692.578 464.016L670.125 402.297H708.328L735.968 478.375L637.937 542.953C619.921 554.828 614.89 579.156 626.812 597.141C638.734 615.125 663.015 620.094 681.031 608.188L804.468 526.844C825.843 512.297 823.828 490.609 819.921 480.953H819.906Z" fill="#626262"/>
<path d="M585.328 136.719C582.378 143.122 577.655 148.546 571.718 152.348C565.781 156.15 558.878 158.171 551.828 158.172C544.767 158.174 537.853 156.155 531.903 152.354C525.953 148.552 521.215 143.127 518.25 136.719H450.625C449.531 142.656 448.891 148.734 448.891 155C448.911 182.378 459.805 208.627 479.176 227.975C498.547 247.322 524.809 258.184 552.188 258.172C565.746 258.182 579.173 255.522 591.703 250.342C604.233 245.163 615.62 237.566 625.214 227.985C634.807 218.404 642.42 207.028 647.616 194.505C652.813 181.982 655.492 168.558 655.5 155C655.5 148.719 654.828 142.656 653.781 136.719H585.344H585.328Z" fill="#626262"/>
<path d="M515.968 111.344C517.985 103.361 522.607 96.2789 529.102 91.2187C535.597 86.1585 543.594 83.4093 551.828 83.4063C569.109 83.4063 583.687 95.3438 587.625 111.344H646.218C638.016 93.2883 624.789 77.9761 608.117 67.2366C591.445 56.4971 572.034 50.7845 552.203 50.7812C532.372 50.7884 512.963 56.5026 496.292 67.2416C479.621 77.9806 466.393 93.2907 458.187 111.344H515.984H515.968Z" fill="#626262"/>
</svg>
