<svg width="1000" height="1000" viewBox="0 0 1000 1000" fill="none" xmlns="http://www.w3.org/2000/svg">
<g clip-path="url(#clip0)">
<path d="M943.491 883.675C941.556 916.259 927.683 943.793 901.874 966.276C876.065 988.759 846.062 1000 811.865 1000H192.449C158.252 1000 128.249 988.759 102.44 966.276C76.6306 943.793 62.4356 916.259 59.8547 883.675L4.68788 152.493C2.10698 110.785 13.721 74.943 39.5301 44.9658C65.3391 14.9886 98.2456 0 138.25 0H861.225C901.229 0 934.297 14.9886 960.429 44.9658C986.56 74.943 998.336 110.785 995.755 152.493L943.491 883.675ZM500.221 125.122C435.699 125.122 375.531 141.251 319.719 173.509C263.907 205.767 220.839 252.199 190.513 312.805L401.502 397.849L323.107 240.469C317.3 233.952 314.396 226.458 314.396 217.986C314.396 209.515 317.461 202.183 323.591 195.992C329.72 189.801 336.979 186.706 345.367 186.706C353.755 186.706 360.853 189.964 366.66 196.481L522.482 376.344C552.162 378.951 576.68 386.445 596.037 398.827L809.93 312.805C779.604 252.199 736.535 205.767 680.723 173.509C624.911 141.251 564.744 125.122 500.221 125.122Z" fill="#626262"/>
</g>
<defs>
<clipPath id="clip0">
<rect width="1000" height="1000" fill="white"/>
</clipPath>
</defs>
</svg>
