<svg width="1000" height="1000" viewBox="0 0 1000 1000" fill="none" xmlns="http://www.w3.org/2000/svg">
<path d="M643.547 146.069C643.547 179.468 630.114 207.918 603.248 231.421C576.383 254.924 544.162 266.675 506.585 266.675C468.657 266.675 436.26 254.924 409.394 231.421C382.529 207.918 369.096 179.468 369.096 146.069C369.096 112.98 382.529 84.5296 409.394 60.7178C436.26 36.9059 468.657 25 506.585 25C544.162 25 576.383 36.9059 603.248 60.7178C630.114 84.5296 643.547 112.98 643.547 146.069ZM545.566 283.838C552.239 283.838 558.121 284.224 563.213 284.998C568.306 285.771 573.047 287.472 577.436 290.1C581.826 292.729 585.338 294.893 587.972 296.594C590.606 298.295 593.591 301.619 596.927 306.567C600.263 311.515 602.722 315.226 604.302 317.7C605.882 320.174 608.516 324.967 612.204 332.08C615.891 339.193 618.613 344.295 620.369 347.388L635.119 375.684C638.982 382.796 647.498 390.682 660.667 399.341C673.837 408 687.972 416.968 703.073 426.245C718.174 435.522 733.187 446.114 748.112 458.02C763.038 469.926 775.417 484.847 785.25 502.783C795.083 520.719 800 540.511 800 562.158C800 587.826 794.381 611.637 783.143 633.594C771.905 655.55 757.507 672.404 739.947 684.155V732.397C739.947 744.767 737.577 753.581 732.836 758.838C728.095 764.095 717.647 766.724 701.493 766.724H623.529V914.233C623.529 931.242 617.208 945.622 604.565 957.373C591.923 969.124 576.119 975 557.155 975H456.014C437.401 975 421.422 969.047 408.077 957.141C394.732 945.235 388.06 930.933 388.06 914.233V766.724H356.98C346.444 766.724 337.313 763.322 329.587 756.519C321.861 749.715 317.998 741.675 317.998 732.397C317.998 729.924 318.788 726.676 320.369 722.656C321.949 718.636 322.915 716.008 323.266 714.771L388.06 493.042V421.606H360.667L308.516 605.762C306.409 613.493 300.439 619.291 290.606 623.157C280.773 627.022 270.413 628.955 259.526 628.955C243.371 628.955 229.412 623.853 217.647 613.647C205.882 603.442 200 591.227 200 577.002C200 573.909 200.527 570.74 201.58 567.493C202.634 564.246 204.126 560.767 206.058 557.056C207.989 553.345 209.306 550.562 210.009 548.706L281.124 340.894C287.094 323.576 300.527 309.737 321.422 299.377C342.318 289.018 364.53 283.838 388.06 283.838H545.566ZM561.896 502.783C545.039 502.783 531.87 508.195 522.388 519.019C512.906 529.842 508.165 543.449 508.165 559.839C509.57 573.136 516.769 585.506 529.763 596.948L616.681 673.95L702.546 596.948C715.891 585.197 723.266 572.827 724.671 559.839C724.671 543.449 719.754 529.842 709.921 519.019C700.088 508.195 686.743 502.783 669.886 502.783C653.029 502.783 640.123 506.803 631.168 514.844C622.212 522.884 617.384 533.553 616.681 546.851C615.979 533.553 610.975 522.884 601.668 514.844C592.362 506.803 579.104 502.783 561.896 502.783Z" fill="#D05BE3"/>
</svg>
