<svg width="1000" height="1000" viewBox="0 0 1000 1000" fill="none" xmlns="http://www.w3.org/2000/svg">
<g clip-path="url(#clip0)">
<path d="M777.778 505.056L976.852 701.815C986.111 712.617 990.741 724.577 990.741 737.694C990.741 750.812 986.111 762 976.852 771.259L761.574 986.537C752.315 995.796 740.741 1000.43 726.852 1000.43C712.963 1000.43 701.389 995.796 692.13 986.537L495.37 789.778L298.611 986.537C289.352 995.796 277.778 1000.43 263.889 1000.43C250 1000.43 238.426 995.796 229.167 986.537L13.8889 771.259C4.62963 762 0 750.812 0 737.694C0 724.577 4.62963 712.617 13.8889 701.815L210.648 505.056L13.8889 310.611C4.62963 299.809 0 287.849 0 274.731C0 261.614 4.62963 249.654 13.8889 238.852L229.167 25.8889C238.426 16.6296 249.614 12 262.731 12C275.849 12 287.809 16.6296 298.611 25.8889L495.37 222.648L692.13 25.8889C701.389 16.6296 712.963 12 726.852 12C740.741 12 752.315 16.6296 761.574 25.8889L974.537 238.852C985.339 249.654 990.741 261.614 990.741 274.731C990.741 287.849 985.339 299.809 974.537 310.611L777.778 505.056ZM495.37 356.907C481.481 356.907 469.907 361.923 460.648 371.954C451.389 381.985 446.759 393.559 446.759 406.676C446.759 419.793 451.389 431.367 460.648 441.398C469.907 451.429 481.481 456.444 495.37 456.444C509.259 456.444 521.219 451.429 531.25 441.398C541.281 431.367 546.296 419.793 546.296 406.676C546.296 393.559 541.281 381.985 531.25 371.954C521.219 361.923 509.259 356.907 495.37 356.907ZM263.889 454.13L442.13 273.574L263.889 95.3333L83.3333 275.889L263.889 454.13ZM396.991 553.667C410.108 553.667 421.682 549.037 431.713 539.778C441.744 530.518 446.759 518.944 446.759 505.056C446.759 491.167 441.744 479.593 431.713 470.333C421.682 461.074 410.108 456.444 396.991 456.444C383.873 456.444 372.299 461.074 362.269 470.333C352.238 479.593 347.222 491.167 347.222 505.056C347.222 518.944 352.238 530.518 362.269 539.778C372.299 549.037 383.873 553.667 396.991 553.667ZM495.37 653.204C509.259 653.204 521.219 648.188 531.25 638.157C541.281 628.127 546.296 616.552 546.296 603.435C546.296 590.318 541.281 578.744 531.25 568.713C521.219 558.682 509.259 553.667 495.37 553.667C481.481 553.667 469.907 558.682 460.648 568.713C451.389 578.744 446.759 590.318 446.759 603.435C446.759 616.552 451.389 628.127 460.648 638.157C469.907 648.188 481.481 653.204 495.37 653.204ZM594.907 456.444C581.018 456.444 569.444 461.074 560.185 470.333C550.926 479.593 546.296 491.167 546.296 505.056C546.296 518.944 550.926 530.518 560.185 539.778C569.444 549.037 581.018 553.667 594.907 553.667C608.796 553.667 620.37 549.037 629.63 539.778C638.889 530.518 643.518 518.944 643.518 505.056C643.518 491.167 638.889 479.593 629.63 470.333C620.37 461.074 608.796 456.444 594.907 456.444ZM726.852 917.093L905.093 736.537L726.852 558.296L546.296 738.852L726.852 917.093Z" fill="#F4AA41"/>
</g>
<defs>
<clipPath id="clip0">
<rect width="1000" height="1000" fill="white"/>
</clipPath>
</defs>
</svg>
