<svg width="1000" height="1000" viewBox="0 0 1000 1000" fill="none" xmlns="http://www.w3.org/2000/svg">
<path d="M456.249 200.195H603.124V273.633H456.249V200.195Z" fill="#B3BDC4"/>
<path d="M71.8735 537.89C64.061 547.265 60.936 587.89 60.936 587.89V822.265H918.748C918.748 822.265 970.311 675.39 970.311 353.515C970.311 239.453 898.436 236.328 648.436 236.328C398.436 236.328 335.936 259.765 282.811 309.765C231.248 355.078 129.686 469.14 71.8735 537.89Z" fill="#E1E8ED"/>
<path d="M304.688 325.39L121.876 514.453H426.563V275.39C370.313 275.39 326.563 301.953 304.688 325.39Z" fill="#3E4347"/>
<path d="M968.75 851.953C968.75 867.578 956.25 881.64 939.062 881.64H60.9375C45.3125 881.64 31.25 869.14 31.25 851.953C31.25 836.328 43.75 822.265 60.9375 822.265H939.062C956.25 822.265 968.75 836.328 968.75 851.953Z" fill="#B3BDC4"/>
<path d="M529.687 104.492C504.687 104.492 489.062 124.805 485.937 148.242C484.374 160.742 471.874 199.805 471.874 199.805H589.062C589.062 199.805 576.562 162.305 574.999 148.242C570.312 124.805 553.124 104.492 529.687 104.492Z" fill="#F15744"/>
<path d="M500 148.828C500 164.453 512.5 178.515 529.688 178.515V119.14C512.5 119.14 500 133.203 500 148.828Z" fill="#FFC7CE"/>
<path d="M625.003 31.25L581.253 104.688L653.128 53.125L625.003 31.25Z" fill="#F15744"/>
<path d="M432.815 31.25L478.127 104.688L404.69 53.125L432.815 31.25Z" fill="#F15744"/>
<path d="M603.127 134.18L675.002 104.492L690.627 134.18H603.127Z" fill="#F15744"/>
<path d="M456.252 134.18L382.814 104.492L368.752 134.18H456.252Z" fill="#F15744"/>
<path d="M99.9985 730.078V617.578C99.9985 601.953 87.4985 587.89 70.311 587.89H60.936V759.765H70.311C85.936 759.765 99.9985 745.703 99.9985 730.078Z" fill="#62727A"/>
<path d="M959.373 571.29H514.061L454.686 630.665H99.9985V690.04H485.936L543.748 632.227H953.123C956.248 613.477 957.811 593.165 959.373 571.29Z" fill="#F15744"/>
<path d="M821.874 404.297C821.874 396.485 815.624 390.235 807.812 390.235H756.249C748.437 390.235 742.187 383.985 742.187 376.172V324.61C742.187 316.797 735.937 310.547 728.124 310.547H714.062C706.249 310.547 699.999 316.797 699.999 324.61V374.61C699.999 382.422 693.749 388.672 685.937 388.672H634.374C626.562 388.672 620.312 394.922 620.312 402.735V416.797C620.312 424.61 626.562 430.86 634.374 430.86H685.937C693.749 430.86 699.999 437.11 699.999 444.922V499.61C699.999 507.422 706.249 513.672 714.062 513.672H728.124C735.937 513.672 742.187 507.422 742.187 499.61V448.047C742.187 440.235 748.437 433.985 756.249 433.985H807.812C815.624 433.985 821.874 427.735 821.874 419.922V404.297Z" fill="#F15744"/>
<path d="M881.248 851.562C881.248 787.5 828.123 734.375 764.061 734.375C699.998 734.375 646.873 787.5 646.873 851.562C646.873 915.625 699.998 968.75 764.061 968.75C828.123 968.75 881.248 915.625 881.248 851.562Z" fill="#3E4347"/>
<path d="M764.064 784.18C801.564 784.18 831.252 813.867 831.252 851.367C831.252 888.867 801.564 918.555 764.064 918.555C726.564 918.555 696.877 888.867 696.877 851.367C696.877 813.867 726.564 784.18 764.064 784.18Z" fill="#DAE3EA"/>
<path d="M764.063 801.953C773.556 801.953 781.251 794.258 781.251 784.765C781.251 775.273 773.556 767.578 764.063 767.578C754.571 767.578 746.876 775.273 746.876 784.765C746.876 794.258 754.571 801.953 764.063 801.953Z" fill="#3E4347"/>
<path d="M706.252 836.133C715.744 836.133 723.439 828.437 723.439 818.945C723.439 809.453 715.744 801.758 706.252 801.758C696.759 801.758 689.064 809.453 689.064 818.945C689.064 828.437 696.759 836.133 706.252 836.133Z" fill="#3E4347"/>
<path d="M706.252 901.562C715.744 901.562 723.439 893.867 723.439 884.375C723.439 874.883 715.744 867.188 706.252 867.188C696.759 867.188 689.064 874.883 689.064 884.375C689.064 893.867 696.759 901.562 706.252 901.562Z" fill="#3E4347"/>
<path d="M764.063 936.718C773.556 936.718 781.251 929.023 781.251 919.53C781.251 910.038 773.556 902.343 764.063 902.343C754.571 902.343 746.876 910.038 746.876 919.53C746.876 929.023 754.571 936.718 764.063 936.718Z" fill="#3E4347"/>
<path d="M821.875 901.562C831.367 901.562 839.062 893.867 839.062 884.375C839.062 874.883 831.367 867.188 821.875 867.188C812.383 867.188 804.688 874.883 804.688 884.375C804.688 893.867 812.383 901.562 821.875 901.562Z" fill="#3E4347"/>
<path d="M829.69 833.647C821.878 838.334 810.94 835.209 806.253 827.397C801.565 819.584 804.69 808.647 812.503 803.959C820.315 799.272 831.253 802.397 835.94 810.209C840.628 818.022 837.503 828.959 829.69 833.647Z" fill="#3E4347"/>
<path d="M764.063 883.985C782.185 883.985 796.876 869.294 796.876 851.172C796.876 833.05 782.185 818.36 764.063 818.36C745.941 818.36 731.251 833.05 731.251 851.172C731.251 869.294 745.941 883.985 764.063 883.985Z" fill="#62727A"/>
<path d="M353.127 851.562C353.127 787.5 300.002 734.375 235.939 734.375C171.877 734.375 118.752 787.5 118.752 851.562C118.752 915.625 171.877 968.75 235.939 968.75C301.564 968.75 353.127 915.625 353.127 851.562Z" fill="#3E4347"/>
<path d="M303.126 851.367C303.126 813.867 273.438 784.18 235.938 784.18C198.438 784.18 168.751 813.867 168.751 851.367C168.751 888.867 198.438 918.555 235.938 918.555C273.438 918.555 303.126 888.867 303.126 851.367Z" fill="#DAE3EA"/>
<path d="M235.938 801.953C245.43 801.953 253.125 794.258 253.125 784.765C253.125 775.273 245.43 767.578 235.938 767.578C226.445 767.578 218.75 775.273 218.75 784.765C218.75 794.258 226.445 801.953 235.938 801.953Z" fill="#3E4347"/>
<path d="M178.126 836.133C187.618 836.133 195.313 828.437 195.313 818.945C195.313 809.453 187.618 801.758 178.126 801.758C168.633 801.758 160.938 809.453 160.938 818.945C160.938 828.437 168.633 836.133 178.126 836.133Z" fill="#3E4347"/>
<path d="M170.314 870.366C178.126 865.679 189.064 868.804 193.751 876.616C198.439 884.429 195.314 895.366 187.501 900.054C179.689 904.741 168.751 901.616 164.064 893.804C159.376 885.991 162.501 875.054 170.314 870.366Z" fill="#3E4347"/>
<path d="M235.938 936.718C245.43 936.718 253.125 929.023 253.125 919.53C253.125 910.038 245.43 902.343 235.938 902.343C226.445 902.343 218.75 910.038 218.75 919.53C218.75 929.023 226.445 936.718 235.938 936.718Z" fill="#3E4347"/>
<path d="M293.749 901.562C303.242 901.562 310.937 893.867 310.937 884.375C310.937 874.883 303.242 867.188 293.749 867.188C284.257 867.188 276.562 874.883 276.562 884.375C276.562 893.867 284.257 901.562 293.749 901.562Z" fill="#3E4347"/>
<path d="M293.749 836.133C303.242 836.133 310.937 828.437 310.937 818.945C310.937 809.453 303.242 801.758 293.749 801.758C284.257 801.758 276.562 809.453 276.562 818.945C276.562 828.437 284.257 836.133 293.749 836.133Z" fill="#3E4347"/>
<path d="M235.938 883.985C254.059 883.985 268.75 869.294 268.75 851.172C268.75 833.05 254.059 818.36 235.938 818.36C217.816 818.36 203.125 833.05 203.125 851.172C203.125 869.294 217.816 883.985 235.938 883.985Z" fill="#62727A"/>
</svg>
