<svg width="1000" height="1000" viewBox="0 0 1000 1000" fill="none" xmlns="http://www.w3.org/2000/svg">
<g clip-path="url(#clip0)">
<path d="M501.812 246.969C432.562 246.969 376.328 191.219 376.328 122.484C376.328 53.7658 432.562 -1.953 501.812 -1.953C571.078 -1.953 627.281 53.7658 627.281 122.484C627.281 191.219 571.078 246.969 501.812 246.969Z" fill="#E400C0"/>
<path d="M841.454 827.249C813.361 835.312 784.626 821.171 777.251 795.421L681.189 460.062L634.345 459.999L787.861 995.093H215.798L369.345 459.999L322.423 460.062L226.392 795.421C219.001 821.171 190.251 835.312 162.22 827.249C134.111 819.187 116.361 794.64 125.798 762.484L224.595 418.39C264.064 280.874 379.189 285.171 379.189 285.171H624.517C624.517 285.171 739.611 280.874 779.126 418.39L877.892 762.484C887.345 794.64 869.579 819.187 841.486 827.249H841.454ZM501.861 592.343C399.376 592.343 316.329 675.327 316.329 777.828C316.329 880.249 399.376 963.328 501.861 963.328C604.236 963.328 687.298 880.265 687.298 777.828C687.298 675.327 604.267 592.343 501.861 592.343ZM541.72 732.671C536.423 730.175 531.67 726.657 527.735 722.32C523.799 717.982 520.759 712.911 518.788 707.397C516.817 701.882 515.953 696.032 516.247 690.183C516.541 684.334 517.987 678.601 520.501 673.312C525.571 662.646 534.666 654.428 545.789 650.462C556.912 646.495 569.155 647.104 579.829 652.156C590.508 657.229 598.736 666.334 602.706 677.47C606.676 688.606 606.063 700.862 601.001 711.546C595.938 722.21 586.847 730.426 575.727 734.388C564.607 738.349 552.369 737.732 541.704 732.671H541.72ZM583.236 794.749C578.845 804.077 555.376 853.531 550.611 863.468C544.261 876.825 532.874 887.119 518.947 892.092C505.019 897.066 489.687 896.313 476.314 889.999C467.283 885.656 460.361 878.984 454.548 871.656C445.736 860.531 439.829 830.843 439.829 830.843C430.579 837.374 406.908 852.296 397.111 859.249C392.821 862.243 387.521 863.418 382.368 862.516C377.215 861.614 372.629 858.71 369.611 854.437C368.114 852.323 367.049 849.935 366.476 847.409C365.903 844.883 365.833 842.269 366.271 839.716C366.71 837.164 367.647 834.722 369.03 832.532C370.412 830.342 372.213 828.446 374.329 826.953C388.423 817.093 427.501 790.531 427.501 790.531C430.317 788.532 433.5 787.109 436.867 786.345C440.235 785.581 443.72 785.49 447.122 786.078C450.525 786.667 453.778 787.922 456.693 789.772C459.609 791.622 462.13 794.031 464.111 796.859L480.704 830.562L507.079 777.249L484.033 770.499C481.534 769.771 479.209 768.544 477.197 766.893C475.186 765.241 473.53 763.199 472.329 760.89L449.72 717.468C447.362 712.949 446.896 707.678 448.424 702.816C449.952 697.953 453.349 693.896 457.868 691.538C462.388 689.181 467.658 688.714 472.521 690.242C477.384 691.771 481.44 695.168 483.798 699.687L502.626 735.906C515.048 739.546 565.564 754.234 565.564 754.234C568.298 755.093 570.595 756.64 572.673 758.437C578.552 762.163 582.867 767.908 584.809 774.591C586.751 781.275 586.186 788.437 583.22 794.734L583.236 794.749Z" fill="#E400C0"/>
</g>
<defs>
<clipPath id="clip0">
<rect width="1000" height="1000" fill="white"/>
</clipPath>
</defs>
</svg>
