<svg width="1000" height="1000" viewBox="0 0 1000 1000" fill="none" xmlns="http://www.w3.org/2000/svg">
<path d="M349.414 483.258C349.414 511.253 344.466 535.797 334.57 556.891C324.674 577.984 310.482 594.26 291.992 605.719C273.633 617.177 252.539 622.906 228.711 622.906C205.143 622.906 184.115 617.242 165.625 605.914C147.135 594.586 132.812 578.44 122.656 557.477C112.5 536.383 107.357 512.164 107.227 484.82V470.758C107.227 442.763 112.24 418.154 122.266 396.93C132.422 375.576 146.68 359.234 165.039 347.906C183.529 336.448 204.622 330.719 228.32 330.719C252.018 330.719 273.047 336.448 291.406 347.906C309.896 359.234 324.154 375.576 334.18 396.93C344.336 418.154 349.414 442.698 349.414 470.562V483.258ZM290.039 470.367C290.039 440.549 284.701 417.893 274.023 402.398C263.346 386.904 248.112 379.156 228.32 379.156C208.659 379.156 193.49 386.839 182.812 402.203C172.135 417.438 166.732 439.833 166.602 469.391V483.258C166.602 512.294 171.94 534.82 182.617 550.836C193.294 566.852 208.659 574.859 228.711 574.859C248.372 574.859 263.477 567.177 274.023 551.812C284.57 536.318 289.909 513.792 290.039 484.234V470.367ZM623.438 619H564.844V497.125H450.586V619H391.992V334.625H450.586V449.859H564.844V334.625H623.438V619ZM674.805 619V334.625H762.305C787.305 334.625 809.635 340.289 829.297 351.617C849.089 362.815 864.518 378.831 875.586 399.664C886.654 420.367 892.188 443.935 892.188 470.367V483.453C892.188 509.885 886.719 533.388 875.781 553.961C864.974 574.534 849.674 590.484 829.883 601.812C810.091 613.141 787.76 618.87 762.891 619H674.805ZM733.398 382.086V571.93H761.719C784.635 571.93 802.148 564.443 814.258 549.469C826.367 534.495 832.552 513.076 832.812 485.211V470.172C832.812 441.266 826.823 419.391 814.844 404.547C802.865 389.573 785.352 382.086 762.305 382.086H733.398Z" fill="#CEBD25"/>
</svg>
