<svg width="1000" height="1000" viewBox="0 0 1000 1000" fill="none" xmlns="http://www.w3.org/2000/svg">
<g clip-path="url(#clip0)">
<path fill-rule="evenodd" clip-rule="evenodd" d="M622.063 506.582L540.563 655.645C538.583 659.291 535.55 662.256 531.859 664.151C528.169 666.047 523.992 666.785 519.875 666.27C515.794 665.932 511.906 664.384 508.71 661.823C505.514 659.262 503.156 655.805 501.938 651.895L441 444.645L365.188 691.27C363.969 695.597 361.379 699.411 357.806 702.139C354.233 704.866 349.87 706.36 345.375 706.395H344.813C340.402 706.43 336.093 705.062 332.51 702.49C328.926 699.917 326.253 696.273 324.875 692.082L215 340.332L143.938 495.707C140.313 502.332 136.063 509.395 128.25 509.395H30.7502C136.125 796.207 502.938 940.457 502.938 940.457C502.938 940.457 868.25 797.02 972.375 506.582H622.063Z" fill="#F93535"/>
<path fill-rule="evenodd" clip-rule="evenodd" d="M112.562 433.873L201.625 239.623C203.478 235.87 206.436 232.774 210.101 230.752C213.766 228.729 217.962 227.877 222.125 228.31C226.283 228.706 230.228 230.333 233.457 232.982C236.685 235.632 239.051 239.184 240.25 243.185L343.188 587.623L419.5 327.623C420.606 323.153 423.163 319.176 426.771 316.314C430.378 313.453 434.833 311.869 439.438 311.81H439.688C449.062 311.81 457.375 318.06 459.875 327.06L527.938 568.81L590.875 448.31C594.5 441.435 601.688 433.873 609.375 433.873H984.75C994.837 395.073 999.962 355.15 1000 315.06C1000.05 253.026 977.202 193.156 935.841 146.924C894.479 100.692 837.511 71.3493 775.854 64.5201C714.197 57.6908 652.188 73.8551 601.712 109.915C551.235 145.975 515.841 199.394 502.312 259.935C488.095 199.147 452.032 145.705 400.98 109.774C349.929 73.8426 287.452 57.9287 225.432 65.059C163.412 72.1893 106.177 101.866 64.6113 148.446C23.0461 195.025 0.0511125 255.257 0 317.685C0 359.685 5.625 396.185 15.25 433.873H112.562Z" fill="#F93535"/>
</g>
<defs>
<clipPath id="clip0">
<rect width="1000" height="1000" fill="white"/>
</clipPath>
</defs>
</svg>
