<svg width="1000" height="1000" viewBox="0 0 1000 1000" fill="none" xmlns="http://www.w3.org/2000/svg">
<path d="M702.04 209.125C739.62 209.125 770.02 177.865 770.02 139.225C770.02 100.825 739.6 69.5449 702.04 69.5449C664.74 69.5449 634.3 100.805 634.3 139.225C634.3 177.865 664.72 209.125 702.04 209.125ZM752.56 224.765H653.54L484.78 51.1449C481.706 47.7478 477.972 45.0122 473.806 43.1045C469.64 41.1968 465.13 40.1571 460.549 40.0485C455.969 39.94 451.414 40.765 447.163 42.4732C442.911 44.1815 439.052 46.7372 435.82 49.9849C429.126 56.5766 425.248 65.507 425.002 74.8986C424.756 84.2902 428.16 93.4115 434.5 100.345L610.86 282.005V884.045C610.86 905.885 627.86 923.345 648.86 923.345C670.1 923.345 687.08 905.885 687.08 884.045V557.505H717.92L718.16 884.065C718.16 905.905 735.36 923.365 756.36 923.365C777.42 923.365 794.38 905.905 794.38 884.065L794.16 282.045L970.54 100.385C976.865 93.4419 980.256 84.3196 980.003 74.931C979.749 65.5423 975.871 56.6164 969.18 50.0249C965.949 46.7746 962.091 44.2166 957.839 42.5067C953.587 40.7968 949.032 39.9709 944.451 40.0795C939.869 40.188 935.358 41.2287 931.192 43.138C927.026 45.0473 923.293 47.7853 920.22 51.1849L752.56 224.765ZM393.78 490.365C388.647 484.907 382.449 480.56 375.569 477.595C368.688 474.63 361.272 473.108 353.78 473.125H211.8C196.16 473.125 182.08 479.565 172.02 490.365L29.6001 636.865C23.2464 643.78 19.8163 652.886 20.0288 662.274C20.2414 671.663 24.08 680.604 30.7401 687.225C44.5801 700.785 66.7401 700.325 79.7001 686.065L190.12 572.465V724.225H66.2801C43.5001 724.225 25.1201 743.065 25.1201 766.545C25.1201 778.725 29.6001 789.545 37.6601 797.365L177.14 940.845C189.44 959.485 213.58 965.465 232.82 953.945C253.14 942.005 259.88 915.565 248.24 894.885L168.66 813.225L170.22 813.445H398.68L318.88 895.085C307.48 915.785 314.18 942.225 334.28 954.165C353.52 965.685 377.9 959.725 390.2 941.085L529.68 797.605C533.737 793.577 536.937 788.77 539.089 783.474C541.24 778.178 542.299 772.501 542.2 766.785C542.2 743.305 523.86 724.485 501.08 724.485H377.44V574.305L485.86 686.285C499.06 700.565 520.94 701.025 534.8 687.445C541.463 680.83 545.305 671.891 545.517 662.505C545.73 653.118 542.297 644.014 535.94 637.105L393.78 490.365ZM284.26 458.165C321.58 458.165 351.76 426.925 351.76 388.485C351.76 349.845 321.58 318.805 284.26 318.805C246.9 318.805 216.48 349.845 216.48 388.485C216.48 426.925 246.92 458.165 284.26 458.165Z" fill="#626262"/>
</svg>
