<svg width="1000" height="1000" viewBox="0 0 1000 1000" fill="none" xmlns="http://www.w3.org/2000/svg">
<path d="M1000 671.875C1000 766.797 947.297 843.75 843.75 843.75H156.25C52.7031 843.75 0 766.797 0 671.875V328.125C0 233.203 52.7031 156.25 156.25 156.25H843.75C947.297 156.25 1000 233.203 1000 328.125V671.875Z" fill="#137A08"/>
<path fill-rule="evenodd" clip-rule="evenodd" d="M477.912 489.617C476.803 474.102 479.287 470.211 497.053 459.914C492.006 455.32 485.912 454.258 479.662 453.773C472.178 453.211 464.709 452.961 457.303 452.258C453.49 451.93 452.771 450.43 453.49 446.664C455.49 436.352 460.834 429.195 471.334 425.93C481.553 422.727 491.537 418.758 501.912 414.992C501.584 414.102 501.162 413.227 500.771 412.32C499.605 410.11 498.963 407.661 498.895 405.163C498.828 402.665 499.336 400.184 500.381 397.914C501.209 396.133 502.131 394.352 503.162 392.711C509.568 382.477 515.787 380.586 526.678 385.711C530.115 387.336 533.459 389.289 536.443 391.617C545.1 398.352 545.881 407.852 538.146 415.711C534.912 418.914 530.537 421.117 526.646 423.758C524.412 425.227 520.818 424.82 520.037 428.445C519.99 428.727 518.678 428.758 517.959 428.883C516.006 428.992 513.865 428.586 512.115 429.273C503.756 432.367 495.521 435.711 487.287 439.086C486.006 439.555 484.896 440.414 483.662 441.086L483.881 442.117C491.256 442.117 498.725 442.227 506.084 442.07C522.6 441.648 539.146 441.117 555.662 440.602C561.037 440.477 561.678 441.477 560.068 446.617C559.69 447.719 559.336 448.828 559.006 449.945C557.412 455.742 553.475 458.336 547.646 459.227C529.959 461.758 513.053 467.383 496.443 473.977C492.631 475.539 488.693 477.648 488.506 482.289C488.365 486.836 491.709 489.695 495.365 491.695C499.068 493.68 503.006 495.117 506.865 496.633C511.271 498.289 512.068 499.586 510.928 504.023C508.428 513.305 508.178 513.852 498.209 512.789C478.271 510.633 460.881 503.398 449.131 486.039C446.756 482.508 444.959 478.539 442.6 474.273C441.646 475.492 440.709 476.602 439.771 477.773C432.271 488.07 424.146 497.82 413.803 505.539C406.35 511.148 398.459 515.539 388.615 515.32C377.006 515.039 369.756 509.133 367.521 497.633C367.24 496.211 366.928 494.82 366.631 493.477C355.787 497.492 345.131 501.477 334.49 505.258C329.271 507.055 324.021 508.695 318.709 510.117C316.85 510.633 314.818 510.445 312.865 510.555C312.646 510.086 312.412 509.617 312.256 509.117C313.725 508.086 315.131 506.914 316.678 506.023C332.459 496.852 348.084 487.664 363.865 478.555C366.318 477.133 367.443 475.133 368.271 472.508C370.709 465.461 373.428 458.539 376.131 451.57C376.631 450.258 377.553 449.195 378.803 447.164C381.834 453.82 378.943 460.039 380.443 466.242C381.365 465.758 382.271 465.305 382.959 464.711C388.756 459.93 394.631 455.305 400.146 450.258C407.834 443.18 408.975 437.258 404.85 427.695C402.506 422.414 399.881 417.273 397.24 412.148C396.73 411.107 395.897 410.257 394.865 409.727C391.725 407.898 390.771 405.273 391.943 402.055C393.303 398.508 394.881 395.086 396.646 391.758C398.006 389.242 400.365 388.883 402.178 390.992C406.209 395.602 410.021 400.445 413.553 405.398C415.646 408.336 414.49 410.617 411.334 411.586C412.928 417.93 414.725 424.117 415.99 430.383C418.412 442.883 414.568 453.617 406.209 462.977C398.412 471.742 389.803 479.539 379.631 485.57C378.381 486.289 377.381 488.398 377.443 489.914C377.475 493.336 378.912 496.82 382.475 497.461C386.631 498.211 391.193 498.586 395.178 497.633C404.709 495.461 412.334 489.492 418.631 482.383C424.928 475.133 430.225 466.945 435.928 459.195C437.631 456.852 437.693 454.523 436.85 451.742C431.584 435.461 426.537 419.039 421.334 402.773C418.818 394.914 421.412 384.445 427.381 379.883C428.396 381.57 429.381 383.133 430.24 384.836C440.959 406.82 447.365 430.039 450.537 454.258C451.662 463.258 453.365 472.227 459.787 479.367C464.6 484.758 470.85 487.805 477.896 489.617H477.912ZM526.959 408.227C526.99 407.852 526.99 407.445 526.99 407.102C522.459 405.07 518.865 400.961 512.459 400.961C512.928 404.633 513.334 407.836 513.74 411.648L526.959 408.227Z" fill="white"/>
<path fill-rule="evenodd" clip-rule="evenodd" d="M662.463 696.326C654.213 696.326 646.9 696.201 639.541 696.404C624.447 696.732 609.416 697.451 594.244 697.56C509.275 698.201 424.229 698.763 339.213 699.076C323.666 699.107 308.041 698.044 292.9 693.732C285.791 691.701 279.135 688.623 273.869 683.107C272.619 681.794 271.557 680.138 269.775 677.826H276.572C370.01 678.419 463.447 679.185 556.854 679.607C590.322 679.81 623.729 679.404 657.197 679.185C658.541 679.185 660.932 678.747 660.994 678.294C661.244 676.591 661.307 674.232 660.291 673.169C655.682 668.06 658.291 663.888 661.885 659.607C663.338 657.888 664.869 657.622 666.479 659.513C670.885 664.81 672.197 667.56 668.26 672.607C667.15 674.044 667.229 676.419 666.635 678.747C668.369 678.888 669.4 679.091 670.369 679.06C686.307 678.779 702.104 678.435 718.01 678.107C721.01 678.107 724.057 678.31 727.057 678.669C734.244 679.498 738.057 682.997 739.619 690.154C740.963 696.138 740.963 702.185 738.65 707.982C735.557 715.826 728.416 717.419 722.057 711.841C720.952 711.02 719.633 710.537 718.26 710.451C714.197 710.326 710.119 710.451 706.057 710.482C703.041 710.529 700.041 710.06 697.838 713.466C696.4 715.669 693.775 714.748 691.51 713.31C689.877 712.214 688.009 711.519 686.057 711.279C682.791 710.998 679.479 711.435 676.229 711.216C672.4 711.029 669.307 711.669 667.588 715.654C666.619 717.794 664.869 717.716 663.135 716.076C658.432 711.841 658.041 708.404 661.182 702.794C662.104 701.123 661.979 698.919 662.463 696.326ZM718.307 704.919L719.26 694.841C718.479 694.763 717.838 694.513 717.244 694.513C701.932 694.904 686.635 695.232 671.291 695.685C667.713 695.794 666.354 698.279 668.119 701.513C669.666 704.263 671.51 706.513 675.525 705.794C679.104 705.216 682.838 705.669 686.463 705.326C688.138 705.128 689.707 704.406 690.947 703.263C693.416 700.919 695.744 700.982 698.275 702.873C699.307 703.701 700.385 704.779 701.447 704.826C707.025 705.076 712.666 704.919 718.307 704.919Z" fill="white"/>
<path fill-rule="evenodd" clip-rule="evenodd" d="M298.887 430.437C294.668 431.687 290.465 432.937 286.262 434.328C281.934 435.671 277.902 434.656 274.137 432.718C272.918 432.171 271.559 430.765 271.387 429.656C269.949 419.124 269.355 408.734 277.027 399.796C282.371 393.499 287.746 392.421 293.824 397.999C298.48 402.187 302.293 407.281 306.824 412.359C308.262 411.531 310.527 410.484 312.512 409.062C312.953 408.664 313.31 408.18 313.559 407.64C313.809 407.101 313.947 406.516 313.965 405.921C312.84 392.64 311.574 379.265 310.293 365.953C308.855 350.968 307.355 336.015 305.855 320.999C305.771 319.967 305.583 318.947 305.293 317.953C303.34 311.968 306.73 304.249 312.746 301.828C313.496 301.499 315.496 302.39 315.918 303.218C317.355 306.171 318.34 309.312 319.465 312.39C321.543 318.031 323.605 323.734 325.637 329.374C326.223 330.821 326.581 332.349 326.699 333.906C327.137 339.328 324.996 341.031 319.809 339.624C321.184 360.062 322.652 380.453 324.168 401.624C326.512 399.718 328.152 398.093 330.012 396.812C331.246 395.968 332.762 395.578 334.152 394.968C334.762 396.499 335.715 397.921 335.855 399.437C336.23 402.078 335.543 404.89 336.34 407.281C337.215 409.781 338.793 413.078 340.871 413.874C342.902 414.64 347.012 413.453 348.387 411.687C351.777 407.515 354.199 402.546 356.871 397.796C357.543 396.593 357.965 395.281 358.496 394.031H359.715C360.23 396.64 360.559 399.406 361.371 401.937C362.34 404.874 363.293 408.078 365.074 410.406C368.137 414.39 372.402 413.437 373.465 408.703C374.105 405.734 373.824 402.453 373.355 399.484C372.746 396.14 374.074 392.906 377.34 392.296C378.246 392.156 380.074 393.265 380.34 394.14C382.543 402.359 382.371 410.624 378.949 418.421C376.199 424.546 365.309 424.937 359.73 419.484C358.715 418.499 357.793 417.281 356.48 415.859C352.23 420.234 347.84 424.187 341.402 424.781C334.996 425.359 329.809 423.671 326.277 417.265C325.84 418.609 325.402 419.281 325.402 419.968C325.668 426.812 326.027 433.624 326.277 440.437C326.762 452.687 326.074 464.781 321.105 476.296C317.077 485.683 309.837 493.327 300.684 497.859C285.699 505.484 269.887 510.437 252.887 510.515C249.918 510.515 246.84 509.999 243.949 509.406C232.637 507.062 226.965 499.312 224.168 488.781C219.777 472.328 220.809 456.14 226.324 440.093C226.793 438.734 227.684 437.468 228.355 436.187C228.738 436.324 229.138 436.408 229.543 436.437C229.543 440.765 230.027 445.156 229.496 449.343C228.105 459.593 228.527 469.499 232.137 479.171C235.434 488.14 242.152 493.171 251.699 493.734C270.277 494.796 286.152 487.718 300.918 477.14C311.137 469.812 315.199 459.749 315.199 447.64C315.152 439.765 315.199 431.859 315.199 423.453C312.246 424.718 308.824 424.812 309.309 429.015C311.809 452.109 298.746 465.453 280.23 475.203C275.23 477.874 269.715 480.109 264.152 481.218C249.918 484.078 237.137 474.453 234.949 460.062C233.402 449.765 235.121 439.734 237.652 429.781C238.09 428.187 239.324 426.812 240.168 425.281C240.494 425.442 240.841 425.557 241.199 425.624C241.199 427.624 241.387 429.609 241.199 431.562C240.449 439.484 240.402 447.343 243.73 454.765C248.152 464.781 255.324 467.968 265.699 464.546C278.59 460.296 288.527 451.843 296.887 441.531C299.043 438.828 299.199 434.671 300.277 431.156C299.887 430.89 299.355 430.656 298.887 430.437ZM294.199 417.531C292.324 415.249 291.277 413.234 289.668 412.156C287.871 410.937 285.48 410.531 283.418 409.781C282.902 411.937 281.793 414.187 282.137 416.234C282.277 417.499 284.559 419.265 285.949 419.374C288.434 419.453 290.918 418.343 294.199 417.531Z" fill="white"/>
<path fill-rule="evenodd" clip-rule="evenodd" d="M742.306 384.343C742.728 393.233 743.243 402.077 743.649 410.983C744.368 425.812 745.478 440.593 745.431 455.39C745.333 461.406 743.852 467.319 741.103 472.671C734.368 485.749 722.524 487.452 709.853 479.577C705.946 477.187 702.962 473.218 699.962 469.577C698.228 467.577 696.946 467.046 695.399 469.155C693.125 472.175 691.037 475.332 689.149 478.608C684.306 487.327 679.712 496.187 674.915 504.921C673.952 506.782 672.611 508.421 670.978 509.733C669.54 510.796 667.321 511.687 665.665 511.468C657.337 510.124 645.384 496.593 645.509 488.077C645.556 480.812 646.493 473.483 647.587 466.249C648.259 461.546 649.774 457.015 650.931 452.39C651.509 452.452 652.071 452.452 652.603 452.499C652.915 454.78 653.54 457.061 653.54 459.358C653.431 469.327 654.181 478.968 658.243 488.218C658.759 489.28 659.212 490.405 659.853 491.39C662.899 496.202 666.806 496.374 670.04 491.64C671.759 489.046 673.04 486.155 674.603 483.405C680.337 473.265 685.868 462.937 691.899 453.015C695.774 446.562 699.571 446.562 704.665 452.296C707.978 456.108 710.915 460.437 714.587 463.858C720.118 468.983 727.915 467.093 730.509 460.015C731.931 455.874 732.962 451.296 732.79 446.952C732.056 425.921 730.946 404.78 729.868 383.749C729.587 379.155 728.899 374.53 728.946 369.968C729.07 365.908 727.646 361.953 724.962 358.905C717.212 349.327 709.759 339.483 702.009 329.905C698.056 325.093 695.603 320.202 696.509 313.796C696.993 310.827 696.431 307.702 696.665 304.718C696.79 303.421 697.337 301.515 698.259 301.062C699.196 300.64 701.181 301.312 702.04 302.155C708.087 307.812 713.993 313.562 719.79 319.437C722.29 321.937 721.821 323.468 718.134 325.843C720.415 329.233 722.743 332.577 724.978 335.89C725.375 335.799 725.777 335.726 726.181 335.671C725.462 330.218 725.618 324.452 723.837 319.483C721.04 311.843 723.946 306.187 728.134 300.624C730.321 297.702 732.056 299.624 732.978 301.968C735.321 307.952 737.524 313.905 739.665 319.999C740.993 323.702 742.056 327.546 743.415 331.968C741.212 331.827 740.056 331.687 738.993 331.593C738.962 331.874 738.79 332.062 738.79 332.312C739.274 340.171 739.712 348.093 740.274 355.905C740.353 356.796 740.431 357.78 740.946 358.499C746.321 366.14 751.884 373.78 758.009 381.124C757.149 375.437 756.087 369.671 755.509 363.937C753.853 348.421 752.853 332.827 750.681 317.405C749.774 310.812 751.165 305.593 754.978 300.624C757.962 296.765 760.446 296.843 761.899 301.437C764.884 310.89 767.493 320.53 769.946 330.202C770.853 333.702 769.306 335.046 765.321 335.202C766.196 347.655 767.102 360.077 768.071 372.437C768.712 380.343 769.306 388.218 770.212 395.999C770.509 398.187 771.228 400.593 772.462 402.483C779.868 413.765 787.587 424.905 794.931 436.187C799.759 443.624 802.306 451.796 801.665 460.765C801.587 461.999 801.337 463.187 801.103 465.624C791.399 451.39 782.399 438.249 773.431 425.046C772.368 439.155 775.837 453.265 769.009 466.265C768.587 466.265 768.087 466.265 767.665 466.296C767.415 464.358 766.853 462.452 766.946 460.452C767.571 444.983 766.384 429.546 763.571 414.343C763.353 413.312 763.212 412.155 762.587 411.374C756.228 402.249 749.743 393.233 743.29 384.155C742.962 384.202 742.634 384.28 742.321 384.343" fill="white"/>
<path fill-rule="evenodd" clip-rule="evenodd" d="M261.068 311.923C268.006 317.22 271.177 323.485 270.396 331.142C269.365 340.688 271.599 349.642 274.084 358.61C275.912 365.079 279.818 367.751 286.115 367.939C291.287 368.017 293.349 365.954 292.256 360.954C290.334 352.564 287.99 344.251 285.818 335.939C285.401 334.264 284.765 332.651 283.927 331.142C280.474 324.845 282.271 319.767 287.162 315.126C289.24 313.126 291.052 312.876 292.787 314.985C295.459 318.22 298.271 321.423 300.318 325.063C302.896 329.439 302.099 331.345 297.521 333.939C299.006 340.36 301.068 346.782 301.771 353.345C302.49 359.314 302.615 365.688 301.427 371.563C299.646 380.157 287.756 386.579 279.427 384.579C274.537 383.345 271.599 380.079 269.724 375.626C268.927 373.735 268.287 371.735 267.334 369.142C266.224 370.657 265.349 371.564 264.662 372.61C263.271 374.642 262.396 377.267 260.568 378.767C255.865 382.564 256.584 387.314 256.99 392.298C257.974 405.923 258.974 419.517 259.537 433.142C259.771 438.657 258.381 443.954 253.568 448.157C252.662 438.47 251.787 428.845 250.771 419.173C249.756 409.407 248.599 399.626 247.443 389.642C246.865 389.517 246.334 389.267 245.693 389.22C235.271 388.173 229.068 382.829 226.302 372.642C224.084 364.501 224.412 356.267 225.24 348.079C225.568 344.642 225.693 341.235 225.959 337.767C225.318 337.673 224.787 337.517 224.177 337.438C222.646 342.97 221.037 348.501 219.693 354.095C217.693 361.985 216.115 369.907 214.115 377.751C213.493 379.603 212.492 381.306 211.177 382.751C207.193 387.892 202.271 387.798 199.318 382.064C196.695 376.944 194.641 371.553 193.193 365.985C189.74 354.086 189.519 341.483 192.552 329.47C192.896 327.97 193.756 326.532 194.334 325.063C194.693 325.095 195.099 325.189 195.521 325.189C195.677 326.876 195.881 328.657 196.052 330.36C197.068 339.939 197.834 349.61 199.334 359.204C199.818 362.548 201.646 365.86 203.537 368.751C205.49 371.86 208.24 371.626 209.349 368.235C211.006 362.86 212.318 357.345 213.006 351.829C214.131 341.61 216.849 332.032 222.459 323.392C224.052 321.048 226.006 318.735 228.302 317.204C232.256 314.61 236.381 316.72 236.224 321.376C236.03 326.196 235.334 330.982 234.146 335.657C231.537 345.423 231.787 354.86 236.381 363.954C238.693 368.251 241.084 369.782 246.021 370.173C245.724 365.97 245.662 361.814 245.131 357.704C243.74 345.673 242.209 333.579 240.599 321.548C240.094 318.117 239.357 314.724 238.396 311.392C237.646 308.188 240.068 301.298 242.99 299.939C243.849 299.517 246.037 300.157 246.474 300.954C249.459 306.72 252.427 312.563 254.834 318.61C255.387 319.967 255.474 321.469 255.081 322.88C254.688 324.291 253.837 325.532 252.662 326.407C251.974 326.907 251.568 328.142 251.615 329.079C252.771 341.845 254.052 354.657 255.271 367.376C255.302 367.626 255.552 367.782 255.74 367.97C260.959 364.626 263.974 357.688 262.881 351.923C261.302 344.079 259.646 336.298 258.287 328.392C257.302 322.954 258.724 317.829 261.068 311.923Z" fill="white"/>
<path fill-rule="evenodd" clip-rule="evenodd" d="M399.227 315.242C399.102 316.523 399.04 317.742 398.805 318.93C397.071 328.305 396.712 337.758 398.696 347.117C399.54 351.039 401.524 354.945 403.634 358.461C404.602 360.055 407.134 361.68 408.868 361.586C410.274 361.508 412.149 359.164 412.868 357.414C416.884 348.508 420.368 339.305 424.634 330.43C427.274 324.898 430.618 319.617 434.134 314.617C435.415 312.852 438.68 310.523 440.118 311.086C443.259 312.195 444.634 315.539 444.18 319.227C443.634 323.367 442.649 327.508 442.477 331.648C442.149 340.164 441.712 348.711 442.149 357.211C442.571 366.352 449.477 370.211 458.024 366.539C470.977 361.008 474.259 352.914 473.384 339.883C472.743 329.945 470.274 320.008 468.446 310.133C467.352 303.695 471.462 299.508 474.337 293.945C479.04 299.43 480.352 305.336 481.149 311.195C482.555 320.914 483.102 330.742 484.587 340.492C485.649 347.648 488.087 354.477 492.899 360.18C495.009 362.695 497.462 364.727 501.024 363.57C504.696 362.461 505.837 359.352 506.149 355.898C506.946 347.023 505.087 338.43 502.462 330.039C500.816 324.796 499.035 319.596 497.118 314.445C496.055 311.648 496.321 309.477 498.352 307.289C499.868 305.664 500.774 303.539 501.93 301.648C503.962 298.086 505.243 297.773 508.384 300.195C514.524 305.023 518.196 311.461 520.196 318.82C520.524 320.039 519.727 321.68 519.43 323.055C518.087 322.789 516.696 322.68 515.493 322.148C514.305 321.664 513.305 320.758 511.524 319.555C513.024 325.367 514.384 330.273 515.493 335.336C517.18 343.414 518.368 351.617 515.977 359.805C515.618 361.195 515.306 362.602 514.821 363.992C509.493 378.273 497.977 381.18 486.493 371.148C484.04 368.992 481.509 366.961 479.399 365.211C475.368 368.992 470.743 373.539 465.852 377.711C464.071 379.32 461.618 380.258 459.29 381.18C448.79 385.367 439.509 381.273 435.462 370.773C432.118 362.32 432.712 353.492 433.274 344.695C433.384 342.695 433.274 340.633 433.274 338.602C432.84 338.479 432.402 338.37 431.962 338.273C431.04 340.117 429.962 341.93 429.259 343.914C426.305 351.758 423.68 359.727 420.649 367.555C416.321 378.836 409.712 379.648 402.102 370.273C388.852 353.742 389.446 335.82 396.68 317.258C397.009 316.477 397.649 315.742 398.118 315.023C398.463 315.195 398.842 315.291 399.227 315.305" fill="white"/>
<path fill-rule="evenodd" clip-rule="evenodd" d="M560.493 344.422C559.758 337.015 560.211 329.14 557.836 322.359C556.883 319.815 556.458 317.104 556.587 314.391C556.716 311.678 557.396 309.019 558.586 306.578C559.368 305.031 561.102 303 562.493 302.906C563.883 302.812 566.071 304.593 566.711 306.078C570.665 315.515 574.477 324.937 577.836 334.609C579.508 339.5 577.946 341.203 572.993 340.797C573.383 349.593 573.711 358.343 574.321 367.062C574.352 368.25 575.415 369.406 576.055 370.578C587.368 389.75 598.977 408.781 609.883 428.187C615.305 437.734 619.508 448.015 621.071 459.109C621.399 461.328 621.336 463.672 621.415 465.968C621.002 466.201 620.58 466.414 620.149 466.609C619.18 465.328 617.993 464.156 617.352 462.718C606.961 438.125 592.696 415.687 578.493 393.125C577.774 392.062 577.04 391.062 575.649 389.109C576.368 397.828 577.04 405.5 577.649 413.093C579.04 429.922 582.336 446.672 580.321 463.609C579.321 471.625 576.852 479.422 574.774 487.218C574.352 489.093 572.883 490.718 571.836 492.406C571.274 492.265 570.649 492.187 570.133 492.062C570.133 490.047 569.743 487.937 570.211 485.984C574.102 470.875 572.711 455.547 570.961 440.312C568.696 420.125 565.915 400.015 563.665 379.843C562.774 372.031 561.024 364.922 555.883 358.593C548.336 349.125 541.727 339.062 534.446 329.39C532.29 326.562 529.243 324.406 526.915 321.703C525.571 320.234 524.211 318.281 523.977 316.468C523.503 311.635 523.341 306.776 523.493 301.922C523.493 300.562 524.274 298.593 525.258 298.031C526.29 297.562 528.43 298.062 529.43 298.953C537.118 305.906 544.711 312.953 552.102 320.203C553.383 321.422 553.555 323.812 554.243 325.734C552.196 326.156 550.211 326.656 547.868 327.187C551.68 332.765 555.665 338.75 559.774 344.718C560.008 344.593 560.211 344.468 560.493 344.375" fill="white"/>
<path fill-rule="evenodd" clip-rule="evenodd" d="M810.629 329.85C811.426 339.678 812.238 349.85 813.098 359.96C814.801 379.991 816.613 399.928 818.348 419.928C819.753 433.901 819.195 448.001 816.691 461.819C813.066 480.928 804.832 496.96 785.66 504.725C780.051 507.007 773.926 508.194 767.957 509.725C766.316 510.085 764.488 509.757 762.738 509.757C762.582 509.288 762.348 508.897 762.207 508.444C763.941 506.819 765.52 505.053 767.363 503.632C773.629 498.819 780.129 494.444 786.254 489.507C800.926 477.538 807.863 461.85 806.863 443.194C805.809 423.95 804.325 404.731 802.41 385.553C800.535 366.022 798.16 346.522 795.879 327.022C795.285 321.944 794.441 316.913 793.691 311.866C793.082 308.21 797.676 298.928 801.02 297.882C801.816 297.663 803.77 298.678 804.191 299.632C808.254 308.147 812.098 316.71 815.895 325.35C816.363 326.678 816.051 328.288 816.129 329.85H810.629Z" fill="white"/>
<path fill-rule="evenodd" clip-rule="evenodd" d="M576.416 513.375C578.525 512.328 580.541 510.891 582.713 510.297C597.26 506.328 607.479 496.547 617.338 485.984C626.338 476.359 628.838 464.969 627.838 452.203C626.666 436.422 626.182 420.531 624.869 404.75C623.244 385.125 621.057 365.641 618.979 346.094C618.249 339.201 617.337 332.329 616.244 325.484C615.962 323.412 615.48 321.371 614.807 319.391C613.65 315.547 614.166 312.234 617.088 309.297C619.869 306.719 622.432 303.969 625.525 300.781C626.588 302.516 627.822 303.797 628.291 305.234C630.744 313.469 633.182 321.797 635.385 330.141C636.557 334.469 635.494 335.328 630.369 334.344C630.369 338.578 630.072 342.734 630.4 346.828C632.744 380.391 637.885 413.781 637.478 447.562C637.307 460.187 637.15 472.844 631.338 484.453C626.088 494.906 618.182 503.344 608.822 510.344C606.3 512.191 603.386 513.432 600.307 513.969C593.963 514.953 587.557 515.328 581.166 515.781C579.697 515.859 578.182 515.187 576.697 514.906C576.628 514.392 576.534 513.881 576.416 513.375Z" fill="white"/>
<path fill-rule="evenodd" clip-rule="evenodd" d="M659.716 337.343C660.451 345.202 660.998 352.359 661.841 359.562C664.029 379.062 666.294 398.593 668.685 418.062C669.826 427.515 671.529 436.952 672.841 446.406C674.466 458.406 672.029 469.64 666.466 480.187C665.482 482.062 663.638 483.421 662.185 484.999C661.732 484.921 661.294 484.765 660.873 484.702C660.482 483.015 659.591 481.218 659.951 479.796C663.326 465.906 661.076 452.171 659.232 438.39C656.591 419.484 654.42 400.468 651.748 381.577C648.935 361.999 646.091 342.421 642.826 322.921C641.435 314.421 642.919 307.14 648.232 300.468C651.185 296.765 653.716 296.968 655.529 301.234C657.279 305.374 658.388 309.609 660.107 313.749C662.498 319.577 665.326 325.171 667.701 330.999C668.591 333.156 668.67 335.624 669.091 337.874C666.873 337.984 664.607 338.124 662.357 338.124C661.732 338.109 661.154 337.796 659.716 337.343Z" fill="white"/>
<path fill-rule="evenodd" clip-rule="evenodd" d="M337.158 356.967C338.814 355.576 340.533 354.045 342.236 352.67C349.518 346.701 356.908 340.857 364.08 334.701C366.861 332.264 369.002 329.045 371.455 326.311C365.596 317.576 366.189 308.232 372.768 302.623C375.596 300.217 378.721 298.857 382.502 300.576C386.111 302.342 387.158 305.545 386.752 309.154C386.408 312.498 385.361 315.811 384.768 319.045C384.346 321.389 384.471 323.842 383.846 326.092C383.257 327.641 382.315 329.032 381.096 330.154C379.689 331.545 377.549 332.357 376.361 333.857C367.236 345.436 355.158 352.717 341.58 357.842C340.471 358.248 339.158 358.201 337.908 358.357C337.674 357.92 337.439 357.436 337.158 356.967ZM378.643 310.248C377.971 310.139 377.299 309.92 376.658 309.826C376.236 312.014 375.736 314.232 375.346 316.404L376.971 316.701C377.58 314.514 378.049 312.404 378.643 310.248Z" fill="white"/>
<path fill-rule="evenodd" clip-rule="evenodd" d="M205.757 452.148C207.116 457.68 207.085 462.32 205.929 467.305C204.538 473.398 203.898 479.648 203.054 485.82C202.929 486.789 203.054 488.008 203.57 488.836C204.601 490.508 205.648 492.695 207.195 493.367C208.116 493.742 210.179 491.555 211.523 490.398C212.32 489.695 212.71 488.414 213.601 488.039C214.304 487.773 215.976 488.102 216.195 488.68C218.304 493.305 214.398 503.258 209.726 505.477C204.741 507.852 199.398 505.805 198.195 499.883C196.913 493.945 195.976 487.461 196.913 481.57C198.413 472.367 201.507 463.43 204.007 454.367C204.21 453.695 204.929 453.211 205.757 452.148Z" fill="white"/>
<path fill-rule="evenodd" clip-rule="evenodd" d="M698.775 387.984L688.713 370.296C683.088 373.077 681.775 372.296 682.057 366.609C682.15 365.171 681.666 363.624 682.01 362.327C682.447 360.874 683.291 358.89 684.463 358.421C685.588 358.062 687.947 359.015 688.666 360.078C690.916 363.578 692.65 367.39 694.588 371.109C695.4 372.656 696.15 374.359 697.744 375.843C697.744 372.968 697.697 370.202 697.744 367.312C697.854 363.734 697.494 359.952 698.447 356.562C699.088 354.343 701.51 352.468 703.416 350.89C704.041 350.327 706.354 350.609 706.744 351.218C708.197 353.39 709.525 355.765 710.104 358.234C710.619 360.265 709.557 362.093 706.994 360.749C703.275 358.874 702.072 360.827 701.963 363.921C701.729 369.734 701.838 375.453 701.603 381.234C701.572 383.343 700.853 385.468 700.416 387.671C699.869 387.827 699.291 387.89 698.775 387.984Z" fill="white"/>
<path fill-rule="evenodd" clip-rule="evenodd" d="M195.801 430.487C201.332 421.659 208.691 414.862 217.535 409.768C223.145 406.534 229.238 404.112 235.285 401.534C237.066 400.737 239.504 398.987 240.707 402.518C241.941 406.049 240.895 408.69 237.785 409.94C233.895 411.456 229.738 412.44 226.051 414.346C216.645 419.143 207.441 424.299 198.129 429.346C197.363 429.768 196.598 430.127 195.801 430.487Z" fill="white"/>
<path fill-rule="evenodd" clip-rule="evenodd" d="M559.557 496.614C553.119 502.145 547.182 508.52 537.994 509.708C531.994 510.52 528.838 506.77 530.197 500.848C530.682 498.77 531.088 496.661 531.666 494.114C528.635 494.583 526.291 495.005 523.682 495.473C524.994 492.223 534.104 485.926 536.9 486.348C537.822 486.473 539.041 488.426 538.994 489.411C538.916 491.755 537.9 494.036 537.65 496.348C537.447 498.051 537.854 499.801 537.932 501.536C539.682 501.395 541.635 501.536 543.197 501.005C546.729 499.692 550.104 497.88 553.619 496.458C555.275 495.77 557.15 495.473 558.9 494.989C559.072 495.536 559.369 496.114 559.557 496.614Z" fill="white"/>
<path fill-rule="evenodd" clip-rule="evenodd" d="M734.366 487.156C735.71 487.312 737.069 487.188 738.273 487.609C740.616 488.25 741.757 489.859 740.726 492.359C740.288 493.453 739.695 494.484 739.116 495.484C737.804 498.078 737.257 500.031 741.398 499.922C742.335 499.922 743.991 500.672 744.101 501.391C744.351 502.453 744.038 504.219 743.179 504.891C739.038 508.203 734.413 510.672 728.944 510.5C727.835 510.469 726.085 509.578 725.929 508.719C725.601 507.594 726.132 505.875 726.898 504.891C728.21 503.297 730.116 502.109 731.507 500.609C733.054 498.953 733.257 497.031 731.179 495.594C729.101 494.156 726.101 492.891 727.913 489.984C729.023 488.25 731.82 487.531 733.898 486.328C734.023 486.594 734.241 486.859 734.366 487.156Z" fill="white"/>
<path fill-rule="evenodd" clip-rule="evenodd" d="M476.115 404.133C476.553 403.648 476.365 403.805 476.193 404.008C474.975 406.273 473.693 409.57 470.74 408.492C469.494 407.907 468.376 407.079 467.453 406.057C466.53 405.035 465.82 403.839 465.365 402.539C464.381 398.945 464.771 394.93 464.6 391.117C465.053 391.07 465.49 390.977 465.959 390.898C467.521 394.477 469.115 398.117 470.615 401.711C471.178 401.68 471.771 401.602 472.287 401.57C473.209 397.758 474.068 393.883 474.99 390.07L476.053 389.961C477.975 393.242 479.881 396.586 481.787 399.977C482.35 399.945 482.803 399.82 483.303 399.789L485.131 385.742C488.365 389.836 488.896 393.57 488.943 397.523C488.943 400.742 488.146 404.039 484.912 404.961C482.615 405.633 479.74 404.523 476.115 404.133Z" fill="white"/>
<path fill-rule="evenodd" clip-rule="evenodd" d="M685.791 420.733C686.76 419.14 687.4 417.155 688.775 415.905C692.916 412.312 697.354 409.03 701.588 405.577C706.244 401.702 710.729 397.733 715.463 393.905C716.354 393.186 717.979 392.311 718.744 392.655C719.666 393.077 720.135 394.765 720.369 395.905C720.994 399.202 720.041 401.702 717.025 403.546C708.135 409.077 699.385 414.843 690.51 420.405C689.447 421.046 688.26 421.405 687.025 421.921C686.637 421.502 686.225 421.105 685.791 420.733Z" fill="white"/>
<path fill-rule="evenodd" clip-rule="evenodd" d="M783.722 350.756C783.331 347.975 783.284 345.147 782.534 342.428C780.862 336.069 779.3 329.553 776.737 323.537C775.206 319.756 775.128 316.85 777.409 313.74C779.581 310.803 781.175 310.694 782.44 313.959C784.503 319.334 786.597 324.772 787.3 330.35C788.065 335.85 787.143 341.49 786.784 347.053C786.706 348.365 785.722 349.584 785.19 350.834C784.702 350.786 784.212 350.76 783.722 350.756Z" fill="white"/>
<path fill-rule="evenodd" clip-rule="evenodd" d="M595.121 335.295C595.121 332.701 594.777 330.764 595.215 329.014C596.871 322.248 594.574 316.967 589.887 312.342C586.293 308.733 586.184 304.764 589.949 301.498C590.871 300.733 593.371 300.498 594.23 301.201C601.965 307.326 603.59 326.764 597.231 334.295C596.996 334.576 596.59 334.608 595.121 335.295Z" fill="white"/>
<path fill-rule="evenodd" clip-rule="evenodd" d="M379.861 363.07C381.111 369.133 374.893 377.195 368.08 377.57C364.096 377.773 360.143 373.789 360.111 368.977C359.955 361.289 364.33 355.742 369.643 350.867C369.94 350.586 370.611 350.758 372.158 350.586C370.69 353.602 369.408 355.961 368.471 358.305C367.502 360.586 366.471 362.914 366.19 365.305C365.986 366.664 366.861 369.117 367.893 369.555C369.236 370.102 371.502 369.711 372.861 368.883C375.268 367.43 377.268 365.32 379.861 363.07Z" fill="white"/>
<path fill-rule="evenodd" clip-rule="evenodd" d="M604.229 353.75C605.479 350.484 606.822 347.219 608.213 343.75C610.885 346.953 611.385 355.844 609.291 358.484C607.619 360.578 605.416 360.781 603.338 359.156C600.994 357.313 599.166 357.281 596.744 359.188C593.869 361.531 591.885 360.938 590.963 357.453C590.213 354.641 590.322 351.688 590.088 348.859C590.557 348.688 591.088 348.563 591.525 348.422C592.729 350.406 593.869 352.406 595.51 355.219C596.869 351.719 597.807 349.063 599.213 345.391C600.682 348.875 601.775 351.203 602.822 353.641C603.275 353.641 603.744 353.719 604.229 353.75Z" fill="white"/>
<path fill-rule="evenodd" clip-rule="evenodd" d="M353.101 464.009C353.742 458.509 354.335 453.619 354.867 448.728C347.601 447.744 345.976 445.337 348.57 440.04C349.32 438.54 351.429 436.306 352.585 436.54C354.742 436.9 357.507 438.244 358.507 440.087C361.648 445.728 359.32 458.337 354.851 463.087C354.648 463.369 354.163 463.447 353.101 464.009Z" fill="white"/>
<path fill-rule="evenodd" clip-rule="evenodd" d="M268.324 297.852C268.777 300.82 268.855 302.82 269.449 304.648C269.84 306.008 270.949 307.117 271.668 308.383C272.84 307.633 274.277 307.117 275.09 306.148C276.324 304.367 277.152 302.336 279.027 300.383C279.23 301.992 279.23 303.648 279.746 305.039C280.386 306.508 281.605 307.711 282.527 309.023C283.433 307.898 284.449 306.883 285.277 305.68C285.746 305.008 285.949 304.18 286.418 303.258C288.933 306.648 288.668 310.805 285.887 313.195C282.418 316.148 280.262 313.383 278.168 311.102C272.433 314.758 270.152 314.898 267.418 311.805C264.262 308.133 264.215 302.82 268.324 297.852Z" fill="white"/>
<path fill-rule="evenodd" clip-rule="evenodd" d="M715.379 441.161C715.16 439.176 714.738 437.989 714.957 436.989C716.754 431.004 714.348 426.911 709.613 423.536C706.16 421.129 706.16 418.207 709.676 415.786C710.785 415.036 713.098 414.754 714.207 415.395C721.348 419.536 723.379 432.989 718.004 439.114C717.551 439.661 716.879 440.051 715.379 441.161Z" fill="white"/>
<path fill-rule="evenodd" clip-rule="evenodd" d="M457.154 336.12C457.154 334.355 457.076 332.605 457.154 330.855C457.639 323.105 456.17 315.87 451.779 309.261C451.029 308.183 450.389 306.277 450.826 305.261C451.615 303.708 452.919 302.477 454.514 301.776C455.232 301.558 457.217 303.308 457.779 304.511C461.17 311.714 461.842 319.355 460.951 327.105C460.623 330.245 459.701 333.308 459.029 336.417C458.404 336.355 457.764 336.198 457.154 336.12Z" fill="white"/>
<path fill-rule="evenodd" clip-rule="evenodd" d="M212.443 322.633C212.771 316.024 216.178 310.602 213.553 304.696C212.568 305.087 212.006 305.462 211.365 305.633C209.881 305.852 208.303 305.977 206.787 306.133C207.131 304.524 206.99 302.508 207.943 301.352C209.881 299.055 211.912 295.743 215.631 297.258C219.006 298.68 219.162 302.196 218.943 305.399C218.631 311.462 216.178 316.649 212.443 322.633Z" fill="white"/>
</svg>
