<svg width="1000" height="1000" viewBox="0 0 1000 1000" fill="none" xmlns="http://www.w3.org/2000/svg">
<path d="M367.974 312.5C452.7 312.5 521.324 242.578 521.324 156.25C521.324 69.9219 452.7 0 367.974 0C283.247 0 214.623 69.9219 214.623 156.25C214.623 242.578 283.247 312.5 367.974 312.5ZM265.612 798.438L314.684 735.938L196.796 635.938L108.811 748.047C86.9583 775.781 86.3833 815.234 107.277 843.75L199.288 968.75C214.431 989.258 237.434 1000 260.628 1000C276.538 1000 292.832 994.922 306.633 984.375C340.562 958.594 347.271 909.57 321.968 875L265.612 798.438ZM539.151 635.938L421.263 735.938L470.335 798.438L413.979 875C388.676 909.57 395.385 958.594 429.314 984.375C443.115 994.922 459.217 1000 475.319 1000C498.705 1000 521.708 989.258 536.659 968.75L628.67 843.75C649.564 815.234 648.989 775.781 627.136 748.047L539.151 635.938ZM722.022 283.203C697.678 247.852 649.947 239.453 615.252 264.062L537.426 319.727C436.406 391.992 299.349 391.992 198.521 319.727L120.696 264.258C85.9999 239.453 38.2695 248.047 13.925 283.203C-10.4194 318.555 -1.98509 367.188 32.5188 391.992L110.344 447.656C142.931 470.898 178.202 488.477 214.623 502.148V562.5H521.324V502.344C557.745 488.672 593.016 471.094 625.603 447.852L703.428 392.188C738.124 367.188 746.367 318.555 722.022 283.203Z" fill="#626262"/>
<path d="M897.716 319L877.885 341.484L883.053 347.344L851.618 382.984L870.995 405.453L902.457 369.297L922.261 391.766L890.385 427.391L910.202 449.375L941.637 413.734L946.805 419.594L966.636 397.109L897.716 319ZM821.919 373.688L802.088 396.172L811.143 406.422L674.198 562.172L669.457 567.531L670.326 574.875L675.053 624.672L675.494 630.031L676.775 631.016L632 681.797H671.194L699.197 650.062L740.955 654.938L747.432 655.922L752.159 650.547L889.544 495.266L898.585 505.531L918.402 483.062L821.919 373.688ZM830.96 428.875L869.727 472.812L737.509 623.203L704.779 618.812L702.188 615.875L698.315 578.766L830.96 428.875Z" fill="#626262"/>
<mask id="path-3-inside-1" fill="white">
<path d="M967 810.571H838.429V682H795.571V810.571H667V853.429H795.571V982H838.429V853.429H967V810.571Z"/>
</mask>
<path d="M967 810.571H838.429V682H795.571V810.571H667V853.429H795.571V982H838.429V853.429H967V810.571Z" fill="#626262"/>
<path d="M967 810.571H1024V753.571H967V810.571ZM838.429 810.571H781.429V867.571H838.429V810.571ZM838.429 682H895.429V625H838.429V682ZM795.571 682V625H738.571V682H795.571ZM795.571 810.571V867.571H852.571V810.571H795.571ZM667 810.571V753.571H610V810.571H667ZM667 853.429H610V910.429H667V853.429ZM795.571 853.429H852.571V796.429H795.571V853.429ZM795.571 982H738.571V1039H795.571V982ZM838.429 982V1039H895.429V982H838.429ZM838.429 853.429V796.429H781.429V853.429H838.429ZM967 853.429V910.429H1024V853.429H967ZM967 753.571H838.429V867.571H967V753.571ZM895.429 810.571V682H781.429V810.571H895.429ZM838.429 625H795.571V739H838.429V625ZM738.571 682V810.571H852.571V682H738.571ZM795.571 753.571H667V867.571H795.571V753.571ZM610 810.571V853.429H724V810.571H610ZM667 910.429H795.571V796.429H667V910.429ZM738.571 853.429V982H852.571V853.429H738.571ZM795.571 1039H838.429V925H795.571V1039ZM895.429 982V853.429H781.429V982H895.429ZM838.429 910.429H967V796.429H838.429V910.429ZM1024 853.429V810.571H910V853.429H1024Z" fill="#1261D7" mask="url(#path-3-inside-1)"/>
</svg>
