<svg width="1000" height="1000" viewBox="0 0 1000 1000" fill="none" xmlns="http://www.w3.org/2000/svg">
<path d="M819.904 306.82L809.987 348.948L820.374 353.341L804.655 420.12L843.935 437.247L859.345 369.775L899.162 386.63L882.878 453.669L922.389 469.88L938.109 403.102L948.496 407.495L958.413 365.367L819.904 306.82ZM761.191 426.846L751.274 468.974L769.463 476.651L701.304 768.2L698.923 778.251L704.902 787.331L743.994 849.638L748.116 856.387L750.38 856.862L728 952L777.19 927.029L791.204 867.561L846.858 847.351L855.642 844.515L857.996 834.453L927.02 543.238L945.202 550.943L955.112 508.845L761.191 426.846ZM809.286 493.477L887.197 526.411L821.402 807.919L777.4 823.013L772.192 820.811L742.621 774.601L809.286 493.477Z" fill="#158865"/>
<g clip-path="url(#clip0)">
<path d="M172.001 185.337C171.995 207.698 165.192 229.139 153.088 244.945C140.984 260.751 124.57 269.626 107.458 269.619C90.3459 269.611 73.9368 260.722 61.8407 244.905C49.7446 229.089 42.9523 207.641 42.958 185.281C42.9637 162.921 49.767 141.48 61.8711 125.674C67.8645 117.848 74.9789 111.64 82.8081 107.407C90.6373 103.173 99.0279 100.996 107.501 101C115.974 101.004 124.364 103.188 132.191 107.428C140.018 111.669 147.129 117.882 153.118 125.714C159.108 133.545 163.858 142.841 167.098 153.072C170.338 163.302 172.004 174.266 172.001 185.337Z" fill="#158865"/>
<path d="M559.001 185.337C558.995 207.698 552.192 229.139 540.088 244.945C527.984 260.751 511.57 269.626 494.458 269.619C477.346 269.611 460.937 260.722 448.841 244.905C436.745 229.089 429.952 207.641 429.958 185.281C429.964 162.921 436.767 141.48 448.871 125.674C454.865 117.848 461.979 111.64 469.808 107.407C477.637 103.173 486.028 100.996 494.501 101C502.974 101.004 511.364 103.188 519.191 107.428C527.018 111.669 534.129 117.882 540.118 125.714C546.108 133.545 550.858 142.841 554.098 153.072C557.338 163.302 559.004 174.266 559.001 185.337Z" fill="#158865"/>
<path d="M172 325.75H43C31.5957 325.75 20.6585 331.67 12.5944 342.207C4.53034 352.744 0 367.036 0 381.938L0 662.875H43V1000H96.75V662.875H118.25V1000H172V662.875H215V381.938C215 367.036 210.47 352.744 202.406 342.207C194.342 331.67 183.404 325.75 172 325.75Z" fill="#158865"/>
<path d="M655.062 550.556L688 519.372L598.431 338.392C596.475 334.512 593.814 331.326 590.684 329.119C587.555 326.913 584.056 325.755 580.5 325.75H408.5C404.942 325.74 401.439 326.892 398.307 329.099C395.176 331.307 392.516 334.501 390.569 338.392L301 519.372L333.938 550.556L408.285 424.471L434.128 503.246L344.043 719.062H426.474L440.793 1000H483.793V719.062H505.293V1000H548.293L562.612 719.062H645.043L554.958 503.19L580.801 424.415L655.148 550.5L655.062 550.556Z" fill="#158865"/>
</g>
<defs>
<clipPath id="clip0">
<rect width="688" height="899" fill="white" transform="translate(0 101)"/>
</clipPath>
</defs>
</svg>
