<svg width="1000" height="1000" viewBox="0 0 1000 1000" fill="none" xmlns="http://www.w3.org/2000/svg">
<path d="M879.808 65.8746L869.428 94.0008L876.362 97.6001L859.909 142.184L886.088 156.145L902.381 111.071L928.959 124.878L912.089 169.606L938.505 182.956L954.959 138.373L961.893 141.972L972.273 113.846L879.808 65.8746ZM828.856 144.232L818.477 172.358L830.62 178.65L759.116 373.326L756.629 380.036L760.09 386.571L782.47 431.306L784.815 436.145L786.366 436.6L762.936 500.119L799.488 485.973L814.151 446.271L854.853 435.747L861.249 434.327L863.718 427.609L935.802 233.21L947.938 239.521L958.31 211.414L828.856 144.232ZM857.205 192.437L909.216 219.422L840.187 407.395L808.078 415.113L804.602 413.308L787.597 380.098L857.205 192.437Z" fill="#626262"/>
<path d="M539.698 529.015L438.333 410.894V137.957C438.333 125.167 433.715 112.902 425.494 103.858C417.274 94.8149 406.125 89.7344 394.5 89.7344C382.874 89.7344 371.725 94.8149 363.505 103.858C355.284 112.902 350.666 125.167 350.666 137.957V410.894L249.302 529.039C246.962 530.98 244.999 533.419 243.531 536.209C242.063 539 241.118 542.086 240.753 545.285C240.388 548.485 240.61 551.732 241.405 554.835C242.201 557.939 243.555 560.835 245.386 563.352C247.217 565.87 249.488 567.958 252.066 569.493C254.644 571.028 257.475 571.978 260.392 572.288C263.31 572.598 266.254 572.261 269.051 571.297C271.848 570.333 274.44 568.762 276.676 566.676C276.697 566.676 350.666 475.512 394.5 475.512C438.333 475.512 512.302 566.676 512.302 566.676C516.863 570.392 522.556 572.018 528.185 571.213C533.813 570.408 538.939 567.234 542.485 562.359C546.031 557.484 547.722 551.286 547.202 545.069C546.683 538.851 543.993 533.097 539.698 529.015Z" fill="#F4ABBA"/>
<path d="M543.118 539.934C539.482 544.924 534.195 548.123 528.418 548.829C522.64 549.534 516.844 547.688 512.303 543.695C512.303 543.695 438.334 452.531 394.501 452.531C350.667 452.531 276.699 543.695 276.699 543.695C272.815 547.125 267.981 548.988 263.001 548.976C259.713 548.984 256.466 548.175 253.502 546.61C250.538 545.044 247.934 542.762 245.884 539.934C245.161 538.921 244.92 537.74 244.35 536.655C242.329 540.291 241.227 544.454 241.157 548.715C241.088 552.976 242.053 557.18 243.954 560.894C245.855 564.607 248.623 567.695 251.971 569.838C255.319 571.982 259.127 573.103 263.001 573.087C267.801 573.087 272.644 571.375 276.677 567.806C276.699 567.806 350.667 476.642 394.501 476.642C438.334 476.642 512.303 567.806 512.303 567.806C516.844 571.799 522.64 573.645 528.418 572.94C534.195 572.235 539.482 569.035 543.118 564.045C545.883 560.197 547.512 555.511 547.787 550.615C548.061 545.718 546.967 540.847 544.652 536.655C544.082 537.74 543.841 538.945 543.118 539.934Z" fill="#EA596E"/>
<path d="M292.808 284.608C275.034 220.568 207.749 201.979 115.743 336.181C75.3728 395.061 37.8295 495.17 39.0569 595.062C40.2404 691.41 7.69411 758.728 37.6323 850.399C51.5055 892.883 171.74 920.586 260.262 860.429C297.323 835.257 321.453 806.01 314.944 764.467C304.27 696.329 304.095 647.697 312.336 558.22C322.746 445.043 313.914 360.702 292.808 284.608Z" fill="#DD2E44"/>
<path d="M292.808 284.607C275.034 220.568 207.749 201.979 115.743 336.181C75.3728 395.06 37.8295 495.17 39.0569 595.062C40.2404 691.41 7.69411 758.728 37.6323 850.399C71.4935 791.664 169.132 854.691 257.676 794.533C294.737 769.361 307.646 708.698 306.813 681.38C305.739 646.081 307.711 608.637 312.358 558.196C322.746 445.043 313.914 360.702 292.808 284.607Z" fill="#EA596E"/>
<path d="M482.168 286.269C483.045 219.312 547.984 210.536 645.645 309.367C700.064 364.437 734.276 472.286 752.401 588.671C770.635 705.754 760.882 834.17 749.793 866.551C736.336 905.804 632.078 921.862 559.709 869.42C513.071 835.641 483.987 776.279 493.302 706.14C518.046 519.93 478.99 531.383 482.168 286.269Z" fill="#DD2E44"/>
<path d="M482.168 284.658C483.044 217.701 547.983 208.925 645.644 307.756C700.063 362.826 734.275 470.675 752.4 587.059C770.635 704.143 760.882 832.558 749.792 864.94C743.283 790.46 669.073 830.557 589.647 791.883C565.78 780.261 556.443 769.556 558.394 711.665C561.002 634.317 501.454 658.669 501.454 607.023C501.476 511.302 479.669 476.896 482.168 284.658ZM432.855 150.624C431.417 150.626 429.994 150.294 428.68 149.65C427.365 149.006 426.189 148.064 425.228 146.887C424.965 146.573 415.497 136.013 394.501 136.013C373.505 136.013 364.059 146.549 363.664 147.007C361.803 149.156 359.249 150.415 356.552 150.514C353.856 150.614 351.231 149.545 349.243 147.538C347.268 145.547 346.086 142.78 345.955 139.836C345.823 136.893 346.753 134.011 348.542 131.817C350.076 129.937 364.388 113.469 394.501 113.469C424.615 113.469 438.926 129.937 440.482 131.793C441.808 133.415 442.679 135.424 442.988 137.579C443.297 139.733 443.033 141.94 442.226 143.933C441.419 145.925 440.104 147.617 438.441 148.805C436.778 149.992 434.838 150.624 432.855 150.624ZM432.855 222.957C431.417 222.959 429.994 222.627 428.68 221.983C427.365 221.339 426.189 220.398 425.228 219.22C424.965 218.907 415.497 208.346 394.501 208.346C373.505 208.346 364.059 218.883 363.664 219.341C359.785 223.801 353.342 224.066 349.243 219.871C345.145 215.676 344.794 208.732 348.542 204.151C350.076 202.27 364.388 185.802 394.501 185.802C424.615 185.802 438.926 202.27 440.482 204.127C441.808 205.748 442.679 207.758 442.988 209.912C443.297 212.067 443.033 214.274 442.226 216.266C441.419 218.258 440.104 219.951 438.441 221.138C436.778 222.326 434.838 222.958 432.855 222.957ZM432.855 295.291C431.417 295.292 429.994 294.96 428.68 294.317C427.365 293.673 426.189 292.731 425.228 291.553C424.965 291.24 415.497 280.679 394.501 280.679C373.505 280.679 364.059 291.216 363.664 291.674C361.803 293.823 359.249 295.082 356.552 295.181C353.856 295.28 351.231 294.211 349.243 292.204C347.268 290.214 346.086 287.446 345.955 284.503C345.823 281.559 346.753 278.678 348.542 276.484C350.076 274.603 364.388 258.135 394.501 258.135C424.615 258.135 438.926 274.603 440.482 276.46C441.808 278.081 442.679 280.091 442.988 282.246C443.297 284.4 443.033 286.607 442.226 288.599C441.419 290.592 440.104 292.284 438.441 293.472C436.778 294.659 434.838 295.291 432.855 295.291ZM432.855 367.624C431.417 367.626 429.994 367.294 428.68 366.65C427.365 366.006 426.189 365.064 425.228 363.887C424.965 363.573 415.497 353.013 394.501 353.013C373.505 353.013 364.059 363.549 363.664 364.007C359.785 368.468 353.342 368.733 349.243 364.538C345.145 360.342 344.794 353.398 348.542 348.817C350.076 346.937 364.388 330.469 394.501 330.469C424.615 330.469 438.926 346.937 440.482 348.793C441.808 350.415 442.679 352.424 442.988 354.579C443.297 356.733 443.033 358.94 442.226 360.933C441.419 362.925 440.104 364.617 438.441 365.805C436.778 366.992 434.838 367.624 432.855 367.624Z" fill="#EA596E"/>
</svg>
