<svg width="1000" height="1000" viewBox="0 0 1000 1000" fill="none" xmlns="http://www.w3.org/2000/svg">
<path d="M416.668 415.367H583.335V915.367H416.668V415.367ZM291.668 373.7H375.001V290.367H291.668V373.7ZM166.668 332.033H250.001V248.7H166.668V332.033ZM166.668 457.033H250.001V373.7H166.668V457.033ZM41.668 540.367H125.001V457.033H41.668V540.367ZM41.668 290.367H125.001V207.033H41.668V290.367ZM41.668 415.367H125.001V332.033H41.668V415.367ZM750.001 457.033H833.335V373.7H750.001V457.033ZM875.001 415.367H958.335V332.033H875.001V415.367ZM875.001 207.033V290.367H958.335V207.033H875.001ZM875.001 540.367H958.335V457.033H875.001V540.367ZM625.001 373.7H708.335V290.367H625.001V373.7ZM750.001 332.033H833.335V248.7H750.001V332.033ZM416.668 290.367H430.418L458.335 373.7H541.668L569.585 290.367H583.335V248.7H416.668V290.367Z" fill="#626262"/>
</svg>
