<svg width="1000" height="1000" viewBox="0 0 1000 1000" fill="none" xmlns="http://www.w3.org/2000/svg">
<g clip-path="url(#clip0)">
<path fill-rule="evenodd" clip-rule="evenodd" d="M250.135 752.442C217.634 752.359 186.43 765.181 163.378 788.093C140.327 811.004 127.313 842.129 127.197 874.629C127.197 942.129 182.322 996.879 250.135 996.879C282.646 996.962 313.86 984.131 336.913 961.206C359.967 938.282 372.973 907.141 373.072 874.629C372.956 842.129 359.943 811.004 336.891 788.093C313.84 765.181 282.635 752.359 250.135 752.442ZM250.135 950.817C240.105 950.841 230.169 948.89 220.893 945.075C211.617 941.259 203.184 935.654 196.075 928.58C188.965 921.505 183.319 913.099 179.458 903.843C175.597 894.586 173.597 884.659 173.572 874.629C173.572 832.504 207.885 798.442 250.135 798.442C292.385 798.442 326.822 832.504 326.822 874.629C326.822 916.754 292.385 950.817 250.135 950.817Z" fill="#626262"/>
<path fill-rule="evenodd" clip-rule="evenodd" d="M749.691 752.441C717.26 752.45 686.161 765.341 663.235 788.279C640.308 811.217 627.433 842.323 627.441 874.754C627.45 907.185 640.341 938.284 663.279 961.211C686.217 984.137 717.323 997.012 749.754 997.004C765.812 997 781.712 993.833 796.547 987.684C811.381 981.535 824.859 972.524 836.211 961.166C847.563 949.809 856.566 936.326 862.708 921.489C868.849 906.651 872.008 890.75 872.004 874.691C872 858.633 868.833 842.733 862.684 827.899C856.535 813.065 847.524 799.587 836.166 788.235C824.809 776.883 811.326 767.879 796.489 761.738C781.651 755.596 765.75 752.437 749.691 752.441ZM749.691 950.941C739.498 951.221 729.353 949.452 719.855 945.741C710.358 942.031 701.701 936.452 694.397 929.337C687.093 922.222 681.29 913.714 677.333 904.316C673.375 894.919 671.342 884.823 671.354 874.626C671.367 864.429 673.425 854.339 677.406 844.951C681.387 835.563 687.21 827.07 694.531 819.972C701.853 812.875 710.523 807.318 720.03 803.63C729.537 799.943 739.687 798.2 749.879 798.504C769.715 799.096 788.539 807.398 802.352 821.647C816.165 835.896 823.879 854.969 823.854 874.814C823.83 894.659 816.069 913.713 802.221 927.927C788.373 942.142 769.529 950.398 749.691 950.941Z" fill="#626262"/>
<path fill-rule="evenodd" clip-rule="evenodd" d="M695.178 -0.0430324C695.178 -0.0430324 540.74 213.082 521.24 306.707H994.365C994.365 -40.2305 819.928 -0.0430324 695.178 -0.0430324Z" fill="#626262"/>
<path fill-rule="evenodd" clip-rule="evenodd" d="M996.557 381.566H399.869L255.932 252.441H31.9316C14.4316 252.441 0.244141 265.441 0.244141 281.504C0.244141 297.504 14.4316 310.441 31.9316 310.441H229.619L308.994 381.629H4.36914C8.61914 580.504 -42.3809 744.879 478.744 744.879C1023.68 744.879 995.744 582.379 996.557 381.566Z" fill="#626262"/>
</g>
<defs>
<clipPath id="clip0">
<rect width="1000" height="1000" fill="white"/>
</clipPath>
</defs>
</svg>
