<svg width="1000" height="1000" viewBox="0 0 1000 1000" fill="none" xmlns="http://www.w3.org/2000/svg">
<path fill-rule="evenodd" clip-rule="evenodd" d="M345.146 767.508C291.396 767.508 219.209 739.445 182.584 693.383C7.02149 693.383 1.70898 937.195 1.70898 937.195H685.271C685.334 937.195 699.021 692.383 501.709 692.383C465.209 738.945 399.021 767.508 345.146 767.508Z" fill="#626262"/>
<path fill-rule="evenodd" clip-rule="evenodd" d="M496.125 391.5C496.125 469.688 427.062 619.188 341.812 619.188C256.562 619.188 187.5 469.688 187.5 391.5C187.5 313.438 256.5 250 341.812 250C427.062 250 496.125 313.438 496.125 391.5Z" fill="#626262"/>
<path fill-rule="evenodd" clip-rule="evenodd" d="M782.719 2.44141C663.344 2.44141 566.406 74.8164 566.406 164.316C566.406 245.941 647.281 313.191 752.094 324.379L690.469 437.629L862.719 314.566C942.531 290.754 999.094 232.504 999.094 164.316C999.031 74.8164 902.219 2.44141 782.719 2.44141Z" fill="#00AEEF"/>
</svg>
