<svg width="620" height="1000" viewBox="0 0 620 1000" fill="none" xmlns="http://www.w3.org/2000/svg">
<g clip-path="url(#clip0)">
<path d="M386.813 1000V846.154H617.582V692.308H386.813V605.769C454.12 588.542 509.409 552.284 552.678 496.995C595.947 441.707 617.582 378.606 617.582 307.692C617.582 222.756 587.534 150.24 527.438 90.1442C467.342 30.0481 394.826 0 309.89 0C224.954 0 152.438 30.0481 92.3415 90.1442C32.2453 150.24 2.19727 222.756 2.19727 307.692C2.19727 378.606 23.8319 441.707 67.1011 496.995C110.37 552.284 165.659 588.542 232.967 605.769V692.308H2.19727V846.154H232.967V1000H386.813ZM309.89 153.846C352.358 153.846 388.616 168.87 418.664 198.918C448.712 228.966 463.736 265.224 463.736 307.692C463.736 350.16 448.712 386.418 418.664 416.466C388.616 446.514 352.358 461.538 309.89 461.538C267.422 461.538 231.164 446.514 201.116 416.466C171.067 386.418 156.043 350.16 156.043 307.692C156.043 265.224 171.067 228.966 201.116 198.918C231.164 168.87 267.422 153.846 309.89 153.846Z" fill="#CC12EB"/>
</g>
<defs>
<clipPath id="clip0">
<rect width="620" height="1000" fill="white"/>
</clipPath>
</defs>
</svg>
