<svg width="1000" height="1000" viewBox="0 0 1000 1000" fill="none" xmlns="http://www.w3.org/2000/svg">
<path d="M473.044 767.857C341.872 805.591 269.84 620.747 242.34 554.81C187.497 423.091 44.4499 331.216 54.9967 234.263C65.5436 137.31 184.684 146.997 184.684 146.997" stroke="#BDBDBD" stroke-width="32" stroke-miterlimit="10" stroke-linejoin="round"/>
<path d="M464.795 767.879C596.748 732.879 553.779 542.02 543.467 471.317C522.92 330.067 598.467 177.801 539.639 100.067C480.811 22.3325 383.545 91.7857 383.545 91.7857" stroke="#BDBDBD" stroke-width="29" stroke-miterlimit="10" stroke-linejoin="round"/>
<path d="M795.654 370.85C861.454 370.85 914.795 317.509 914.795 251.709C914.795 185.909 861.454 132.568 795.654 132.568C729.855 132.568 676.514 185.909 676.514 251.709C676.514 317.509 729.855 370.85 795.654 370.85Z" fill="#878787"/>
<path d="M799.834 347.959C857.694 347.959 904.6 301.054 904.6 243.193C904.6 185.333 857.694 138.428 799.834 138.428C741.973 138.428 695.068 185.333 695.068 243.193C695.068 301.054 741.973 347.959 799.834 347.959Z" fill="#BDBDBD"/>
<path d="M542.119 460.449C535.166 513.105 621.338 705.449 487.666 758.105C337.978 817.168 282.119 597.559 242.432 554.98" stroke="#03A9F4" stroke-width="30" stroke-miterlimit="10"/>
<path d="M254.883 574.414C254.883 574.414 339.023 663.164 437.695 622.461C531.211 583.867 545.742 481.445 545.742 481.445" stroke="#03A9F4" stroke-width="0.0390625" stroke-miterlimit="10"/>
<path opacity="0.22" d="M788.809 167.526C747.871 177.058 722.48 217.917 731.934 258.854C733.34 264.948 735.527 270.886 738.418 276.511L743.73 286.979C728.73 306.589 716.543 314.089 712.402 336.823C723.027 347.214 735.449 355.495 749.043 361.276C749.043 361.198 749.121 361.12 749.121 361.042C749.121 361.12 749.199 361.198 749.199 361.354C771.621 370.886 797.168 373.776 822.793 367.839C825.684 367.136 828.418 366.276 831.152 365.417L828.73 343.542C828.73 343.542 831.855 315.808 832.559 314.323C834.355 310.808 841.621 308.933 845.371 306.745C854.434 301.276 862.324 293.854 868.418 285.183C874.494 276.425 878.674 266.495 880.692 256.029C882.71 245.563 882.521 234.79 880.137 224.401C870.605 183.464 829.668 157.995 788.809 167.526Z" fill="#212121"/>
<path d="M471.924 750.205C546.846 921.846 661.689 946.142 746.533 931.377C821.064 918.33 919.736 851.533 919.502 730.439C919.189 584.502 821.846 593.721 769.111 500.205C703.408 383.643 792.939 276.611 792.939 276.611" stroke="#03A9F4" stroke-width="32" stroke-miterlimit="10"/>
<path opacity="0.22" d="M740.234 302.863C740.234 302.863 755.078 295.285 769.297 303.41C791.797 316.222 793.984 334.504 793.984 334.504C793.984 334.504 807.578 307.472 814.844 300.128C822.031 292.707 771.328 255.91 759.844 270.05C748.359 284.191 740.234 302.863 740.234 302.863Z" fill="#212121"/>
<path d="M217.461 109.62C205.743 109.698 195.43 115.323 188.633 123.839L178.946 116.183C170.118 109.23 157.149 115.558 157.227 126.808L157.539 167.355C157.618 178.605 170.664 184.776 179.336 177.667L188.789 170.011C195.664 178.526 206.133 184.073 217.93 183.995C238.477 183.839 255.039 167.042 254.883 146.495C254.727 125.948 238.008 109.464 217.461 109.62Z" fill="#616161"/>
<path d="M414.977 95.3576L394.274 60.5138C388.493 50.8263 374.118 52.1544 370.212 62.6232L365.915 74.1857C355.68 70.3576 343.962 70.9044 333.884 76.92C329.679 79.4151 326.008 82.7148 323.08 86.6302C320.152 90.5457 318.025 95.0001 316.82 99.7385C315.616 104.477 315.357 109.406 316.06 114.245C316.762 119.083 318.412 123.736 320.915 127.936C323.41 132.14 326.71 135.812 330.625 138.74C334.541 141.667 338.995 143.795 343.733 144.999C348.472 146.204 353.401 146.462 358.24 145.759C363.078 145.057 367.73 143.407 371.931 140.904C382.087 134.889 388.181 124.733 389.665 113.873L401.696 115.514C412.79 116.998 420.759 105.045 414.977 95.3576Z" fill="#616161"/>
<path d="M813.926 300.215C853.276 300.215 885.176 268.315 885.176 228.965C885.176 189.615 853.276 157.715 813.926 157.715C774.576 157.715 742.676 189.615 742.676 228.965C742.676 268.315 774.576 300.215 813.926 300.215Z" fill="#424242"/>
<path d="M817.52 278.594C848.068 278.594 872.832 253.829 872.832 223.281C872.832 192.733 848.068 167.969 817.52 167.969C786.971 167.969 762.207 192.733 762.207 223.281C762.207 253.829 786.971 278.594 817.52 278.594Z" fill="#D1D1D1"/>
<path d="M331.077 117.961C324.593 108.665 325.843 91.3208 337.015 83.4302C348.187 75.5396 365.062 78.9771 371.546 89.3677C378.812 100.93 359.827 90.5396 348.656 98.4302C337.484 106.321 338.89 129.211 331.077 117.961Z" fill="#757575"/>
<path d="M195.269 134.707C198.082 123.692 211.91 113.301 225.191 116.582C238.473 119.863 246.91 134.785 243.316 146.504C239.332 159.551 234.723 138.379 221.441 135.176C208.238 131.895 191.91 147.988 195.269 134.707Z" fill="#757575"/>
<rect width="1000" height="1000" stroke="black"/>
</svg>
