<svg width="1000" height="1000" viewBox="0 0 1000 1000" fill="none" xmlns="http://www.w3.org/2000/svg">
<path d="M669.842 197.891C669.373 195.078 650.232 31.25 479.764 31.25C466.951 31.25 453.279 32.1875 438.748 34.1406C254.451 59.2969 263.592 229.219 263.279 261.797C262.967 294.375 280.154 561.172 310.389 619.766C322.264 642.656 353.514 648.594 382.732 648.594C414.139 648.594 443.201 641.719 443.201 641.719L529.217 628.047L596.326 617.578C596.326 617.578 632.811 611.25 648.201 580.703C687.186 503.828 689.451 322.344 669.842 197.891Z" fill="#AB872F"/>
<path d="M669.842 197.891C669.373 195.078 650.232 31.25 479.764 31.25C466.951 31.25 453.279 32.1875 438.748 34.1406C254.451 59.2969 263.592 229.219 263.279 261.797C262.967 294.375 280.154 561.172 310.389 619.766C322.264 642.656 353.514 648.594 382.732 648.594C414.139 648.594 443.201 641.719 443.201 641.719L529.217 628.047L596.326 617.578C596.326 617.578 632.811 611.25 648.201 580.703C687.186 503.828 689.451 322.344 669.842 197.891Z" fill="url(#paint0_radial)"/>
<path d="M791.092 966.971C757.264 966.971 474.999 967.284 437.264 967.284C399.53 967.284 373.905 964.237 362.108 962.049C306.796 951.971 246.796 942.284 201.014 910.643C166.014 886.502 129.686 841.659 165.936 762.362C216.483 645.799 260.78 530.799 364.374 516.112C399.061 511.19 450.077 511.737 507.342 511.737C564.608 511.737 602.342 521.19 626.249 526.424C796.952 563.846 804.139 698.143 819.764 844.237C819.764 844.237 833.124 966.971 791.092 966.971Z" fill="url(#paint1_linear)"/>
<path d="M505.78 464.844H449.764V526.406C449.764 554.219 472.577 576.797 500.702 576.797H510.858C538.983 576.797 561.796 554.219 561.796 526.406V464.844H505.78Z" fill="#C48E6A"/>
<path d="M641.407 263.997C616.642 141.653 539.063 90.4031 460.86 93.9187C451.954 94.3094 443.048 95.4031 434.142 97.2C347.657 114.778 280.626 195.325 308.36 331.731C330.626 441.262 411.642 492.278 474.845 501.184C483.751 502.434 492.188 502.825 500.157 502.512C505.782 502.278 511.095 501.653 516.017 500.637C528.048 498.216 541.017 492.981 553.985 485.169C608.829 452.356 663.673 373.684 641.407 263.997Z" fill="#E0BB95"/>
<path d="M424.297 275.97C418.594 270.501 406.328 263.157 385.235 266.439C364.141 269.72 354.688 280.501 351.016 287.454C349.375 290.501 350.391 293.626 352.11 295.345C353.75 296.908 357.891 297.923 362.031 295.814C366.172 293.704 373.985 287.923 388.203 285.579C402.5 283.47 411.719 286.517 416.25 287.298C420.781 288.079 424.531 285.814 425.547 283.861C426.797 281.673 426.797 278.392 424.297 275.97Z" fill="#AB872F"/>
<path d="M588.985 248.626C583.282 243.157 571.016 235.814 549.923 239.095C528.829 242.376 519.376 253.157 515.704 260.111C514.063 263.157 515.079 266.282 516.798 268.001C518.438 269.564 522.657 270.579 526.72 268.47C530.782 266.361 538.673 260.579 552.891 258.236C567.188 256.126 576.407 259.173 580.938 259.954C585.548 260.736 589.22 258.47 590.235 256.517C591.485 254.251 591.485 251.048 588.985 248.626Z" fill="#AB872F"/>
<path d="M533.126 393.426C518.673 405.379 466.407 413.66 448.907 406.629C438.907 402.644 430.86 412.41 435.938 420.144C440.938 427.723 472.501 442.254 497.11 438.348C521.798 434.441 546.954 411.082 549.376 402.254C552.032 393.426 541.485 386.551 533.126 393.426Z" fill="#6D4C41"/>
<path d="M502.264 343.906C501.717 343.75 501.17 343.75 500.623 343.75L465.233 349.297C464.686 349.453 464.217 349.688 463.67 349.922C460.702 351.719 459.452 355.312 461.483 358.672C463.514 362.031 472.186 370.781 486.405 368.594C500.623 366.328 506.092 355.313 507.03 351.484C507.967 347.734 505.702 344.688 502.264 343.906Z" fill="#C48E6A"/>
<path d="M395.391 332.224C385.001 333.865 375.235 332.771 368.126 329.802C365.079 328.474 363.594 329.802 364.61 332.927C368.516 345.193 382.813 352.927 398.282 350.505C413.751 348.084 425.001 336.365 424.922 323.474C424.922 320.193 423.126 319.334 420.626 321.521C414.766 326.521 405.86 330.505 395.391 332.224Z" fill="#5D4037"/>
<path d="M560.705 304.846C550.314 306.487 540.549 305.393 533.439 302.424C530.392 301.096 528.908 302.424 529.924 305.549C533.83 317.815 548.127 325.549 563.596 323.127C579.064 320.705 590.314 308.987 590.236 296.096C590.236 292.815 588.439 292.034 585.939 294.143C580.08 299.143 571.174 303.205 560.705 304.846Z" fill="#5D4037"/>
<path d="M794.766 853.478C746.875 767.775 733.36 755.353 726.641 740.353C715.469 715.275 704.297 705.353 695.938 701.759C695 692.228 692.657 680.744 689.454 666.759C694.375 663.4 698.204 658.712 700.469 653.087C703.36 645.744 703.204 637.697 700.079 630.431L675.703 574.572C672.578 567.306 421.641 674.572 421.641 674.572C413.438 688.244 410.313 700.275 420.625 722.775C426.641 735.9 440.391 746.525 443.282 745.275L466.797 736.369C470.079 741.212 474.766 744.962 480.391 747.15C482.579 748.009 491.407 750.353 503.047 746.759L564.219 720.744C572.657 733.166 585.313 734.572 593.594 733.869C593.594 733.869 600.157 753.634 617.657 762.384C609.453 775.275 623.204 799.259 630.938 814.572C642.891 838.166 616.328 926.134 625.703 968.087L791.25 968.869C804.219 942.541 817.735 894.494 794.766 853.478Z" fill="url(#paint2_linear)"/>
<path d="M725.314 604.878L700.939 549.018C697.814 541.753 691.955 536.206 684.611 533.315C677.267 530.425 669.221 530.581 661.955 533.706L480.158 611.05C472.982 614.194 467.343 620.052 464.473 627.343C461.604 634.633 461.738 642.764 464.846 649.956L489.221 705.815C492.346 713.081 498.205 718.628 505.549 721.518C507.736 722.378 509.924 722.925 512.189 723.315C517.58 724.097 523.049 723.315 528.205 721.128L710.002 643.784C717.267 640.659 722.814 634.8 725.705 627.456C728.674 620.112 728.517 612.143 725.314 604.878Z" fill="url(#paint3_linear)"/>
<path d="M474.373 617.188C464.217 621.953 459.295 638.437 464.139 649.453L492.03 713.516C496.873 724.531 517.03 729.375 528.045 724.531L709.998 646.484L474.373 617.188Z" fill="#FFFDE7"/>
<path d="M450.939 664.547C454.689 663.531 459.611 664 461.877 667.047C464.455 670.562 466.252 676.109 468.127 680.172C471.33 687.203 473.439 694.547 473.283 702.281C473.283 703.14 473.205 704.156 472.502 704.781C472.033 705.25 471.33 705.406 470.627 705.562C466.408 706.422 462.033 706.734 457.736 706.578C449.142 706.265 444.611 698.687 441.955 691.265C440.314 686.578 439.533 681.578 440.47 676.734C441.486 671.89 444.455 667.359 448.83 665.172C449.533 665.015 450.158 664.781 450.939 664.547Z" fill="#C53929"/>
<path d="M492.033 711.446L483.439 715.196C477.658 717.696 470.47 716.29 466.251 711.602C462.189 707.071 462.501 700.899 461.642 695.039C460.548 687.383 457.814 680.43 452.736 675.586C451.251 674.18 449.454 673.008 448.048 671.524C441.72 664.727 447.111 652.461 454.611 649.18L463.204 645.43C471.408 641.836 486.408 648.79 495.314 670.43C504.22 691.915 500.236 707.852 492.033 711.446Z" fill="#E06055"/>
<path d="M429.766 729.677C425.001 769.989 391.641 804.364 353.126 814.755C312.344 825.849 261.016 802.333 235.782 767.02C188.673 701.239 238.985 646.474 249.766 634.208C276.641 603.739 316.329 604.286 347.735 606.239C412.11 610.224 436.329 674.755 429.766 729.677Z" fill="#C5E1A5"/>
<path d="M337.266 593.757C321.016 593.913 296.172 595.398 278.594 605.71C270.704 610.398 268.204 618.523 268.204 618.523C289.297 610.476 310.626 608.991 337.032 618.679C386.641 636.882 395.001 678.913 390.782 731.726C387.735 769.929 362.422 800.866 331.641 810.71C317.266 815.319 318.516 822.273 337.266 823.601C404.844 828.288 452.188 772.116 452.188 708.679C452.188 645.241 409.844 593.054 337.266 593.757Z" fill="#FEF6E0"/>
<path d="M457.186 750.932C553.904 760.229 581.873 814.37 581.873 814.37C678.826 835.854 704.217 900.307 696.483 929.526C696.483 929.526 652.108 955.62 624.451 956.167C584.529 957.026 544.451 957.417 504.686 955.62C504.686 955.62 510.779 911.401 496.248 898.589C487.42 890.854 472.186 898.667 457.498 889.995C432.889 875.464 395.311 853.198 363.748 836.089C332.342 819.057 304.764 811.323 304.764 811.323C332.811 778.667 383.045 743.823 457.186 750.932Z" fill="#BDBDBD"/>
<path d="M223.906 671.875C223.906 671.875 231.249 723.984 280.39 733.906C347.734 747.5 392.265 715.234 392.265 715.234C392.265 715.234 396.952 723.437 409.609 720.391C419.765 717.969 440.937 712.5 445.546 704.766C451.718 694.531 450.624 685.625 450.624 685.625C450.312 689.219 451.562 693.516 451.718 697.187C452.187 706.953 451.796 716.875 450.312 726.563C448.827 736.406 443.827 750.938 443.827 750.938C429.687 754.844 416.015 772.109 424.452 795.547C443.202 847.188 493.671 877.578 544.452 874.531C566.327 873.203 587.734 868.203 609.14 863.75C612.89 862.969 618.046 861.328 620.234 864.375C628.984 876.562 608.593 896.953 602.89 903.125C645.39 925.703 692.187 904.141 694.218 904.453C696.249 904.766 670.468 933.203 622.968 933.203C600.468 933.203 579.14 924.531 557.577 918.906C536.484 913.359 510.859 919.609 498.124 901.797C490.39 891.016 471.874 899.375 458.437 891.719C432.031 876.562 369.921 838.203 340.234 825.781C314.921 815.234 309.531 813.75 299.687 811.016C267.734 802.109 238.515 824.453 214.14 791.563C200.468 773.125 222.421 741.797 222.421 741.797C207.577 706.094 223.906 671.875 223.906 671.875Z" fill="url(#paint4_linear)"/>
<path d="M651.327 731.945C628.515 740.773 646.796 772.101 656.171 790.617C669.921 817.648 679.921 895.383 698.124 926.398C722.968 968.742 788.749 980.695 817.265 960.304C840.858 943.429 848.905 880.929 820.155 829.445C772.265 743.742 758.749 731.32 752.03 716.32C729.843 666.476 707.577 676.633 707.577 676.633L651.327 731.945Z" fill="url(#paint5_linear)"/>
<path d="M703.906 912.822C703.906 907.822 702.11 902.353 689.922 907.197C659.063 919.463 634.688 928.291 599.922 914.541C603.594 917.744 646.406 881.65 621.406 863.682C610.703 859.853 588.047 884.697 565.625 886.338C543.125 885.478 515.703 885.01 496.25 904.932L488.438 969.697C508.438 969.697 603.516 972.588 640.781 967.432C662.735 961.728 699.063 944.15 703.906 912.822Z" fill="url(#paint6_linear)"/>
<path d="M617.108 547.3C610.155 546.284 597.264 546.675 594.764 553.159C589.764 565.894 603.514 573.081 612.733 575.425C627.108 579.097 642.811 582.222 642.811 582.222L656.249 605.112C656.249 605.112 626.796 596.597 613.28 596.284C596.093 595.894 574.921 604.956 562.108 610.269C546.249 616.753 557.733 634.722 574.608 634.409C588.905 634.097 605.389 627.769 605.389 627.769L625.311 635.581C616.874 636.128 593.983 637.769 589.218 651.441C583.983 666.519 593.749 679.097 593.749 679.097C593.749 679.097 587.655 687.144 593.749 700.112C598.671 710.503 613.436 718.862 627.577 719.097C634.843 741.597 654.061 745.737 664.999 745.581C688.202 745.347 707.264 731.05 715.546 714.331C725.389 694.331 727.811 667.691 710.077 627.612C699.686 604.175 681.718 567.378 666.093 559.956C646.796 550.816 644.452 551.441 617.108 547.3Z" fill="url(#paint7_linear)"/>
<path d="M616.249 718.158C619.921 719.251 623.749 719.954 627.577 720.033C630.546 729.33 635.624 735.345 641.327 739.408C639.14 736.986 635.234 729.876 634.843 728.314C632.655 718.392 634.608 714.173 637.812 708.158C641.015 702.142 640.858 697.845 638.437 695.97C635.546 693.704 622.499 698.001 619.452 698.236C619.452 698.236 628.046 706.517 624.374 712.767C622.499 715.736 619.218 717.376 616.249 718.158Z" fill="#BA8F63"/>
<path d="M593.75 678.624C593.75 678.624 607.5 663.39 641.406 665.577C641.406 665.577 631.094 658.546 616.25 660.499C598.828 662.843 593.75 678.624 593.75 678.624Z" fill="#BA8F63"/>
<path d="M625.311 636.719L645.779 636.484C645.779 636.484 632.42 631.797 624.764 630.391C617.107 629.062 605.389 628.906 605.389 628.906L625.311 636.719Z" fill="#BA8F63"/>
<path d="M656.405 218.579C652.03 179.047 621.952 24.2817 436.718 49.6724C264.843 73.2661 278.905 245.61 281.093 284.204C282.734 313.11 286.64 370.063 290.624 401.86C294.765 435.297 329.53 442.485 329.53 442.485C329.53 442.485 329.374 393.579 327.109 346.547C325.077 304.829 325.468 270.376 344.374 263.344C454.609 222.485 508.359 149.829 508.359 149.829C530.78 183.657 588.515 210.922 609.374 221.469C626.484 230.141 631.562 276.157 634.296 295.61L628.905 434.594C628.905 434.594 662.89 413.891 665.234 379.594C667.499 348.11 660.78 258.11 656.405 218.579Z" fill="#AB872F"/>
<path d="M656.405 218.579C652.03 179.047 621.952 24.2817 436.718 49.6724C264.843 73.2661 278.905 245.61 281.093 284.204C282.734 313.11 286.64 370.063 290.624 401.86C294.765 435.297 329.53 442.485 329.53 442.485C329.53 442.485 329.374 393.579 327.109 346.547C325.077 304.829 325.468 270.376 344.374 263.344C454.609 222.485 508.359 149.829 508.359 149.829C530.78 183.657 588.515 210.922 609.374 221.469C626.484 230.141 631.562 276.157 634.296 295.61L628.905 434.594C628.905 434.594 662.89 413.891 665.234 379.594C667.499 348.11 660.78 258.11 656.405 218.579Z" fill="url(#paint8_radial)"/>
<defs>
<radialGradient id="paint0_radial" cx="0" cy="0" r="1" gradientUnits="userSpaceOnUse" gradientTransform="translate(477.197 331.169) rotate(-93.5431) scale(329.121 267.624)">
<stop offset="0.758" stop-color="#BFA055" stop-opacity="0"/>
<stop offset="1" stop-color="#BFA055"/>
</radialGradient>
<linearGradient id="paint1_linear" x1="486.327" y1="605.62" x2="486.327" y2="930.479" gradientUnits="userSpaceOnUse">
<stop stop-color="#651FFF"/>
<stop offset="1" stop-color="#530EEB"/>
</linearGradient>
<linearGradient id="paint2_linear" x1="610.61" y1="1136.63" x2="610.61" y2="575.47" gradientUnits="userSpaceOnUse">
<stop stop-color="#212121" stop-opacity="0.8"/>
<stop offset="1" stop-color="#212121" stop-opacity="0"/>
</linearGradient>
<linearGradient id="paint3_linear" x1="647.986" y1="602.221" x2="445.564" y2="698.87" gradientUnits="userSpaceOnUse">
<stop stop-color="#81D4FA"/>
<stop offset="1" stop-color="#0288D1"/>
</linearGradient>
<linearGradient id="paint4_linear" x1="452.148" y1="954.219" x2="452.148" y2="627.18" gradientUnits="userSpaceOnUse">
<stop offset="0.1" stop-color="#212121" stop-opacity="0.4"/>
<stop offset="1" stop-color="#252525" stop-opacity="0"/>
</linearGradient>
<linearGradient id="paint5_linear" x1="726.897" y1="821.711" x2="839.593" y2="978.031" gradientUnits="userSpaceOnUse">
<stop stop-color="#651FFF"/>
<stop offset="0.817" stop-color="#530EEB"/>
</linearGradient>
<linearGradient id="paint6_linear" x1="488.375" y1="916.955" x2="703.867" y2="916.955" gradientUnits="userSpaceOnUse">
<stop stop-color="#CCA47A"/>
<stop offset="0.5" stop-color="#E0BB95"/>
</linearGradient>
<linearGradient id="paint7_linear" x1="702.14" y1="744.146" x2="618.095" y2="604.476" gradientUnits="userSpaceOnUse">
<stop stop-color="#CCA47A"/>
<stop offset="0.5" stop-color="#E0BB95"/>
</linearGradient>
<radialGradient id="paint8_radial" cx="0" cy="0" r="1" gradientUnits="userSpaceOnUse" gradientTransform="translate(474.251 320.336) rotate(-94.9335) scale(336.978 279.073)">
<stop offset="0.701" stop-color="#BFA055" stop-opacity="0"/>
<stop offset="0.991" stop-color="#BFA055"/>
</radialGradient>
</defs>
</svg>
