<svg width="1000" height="1000" viewBox="0 0 1000 1000" fill="none" xmlns="http://www.w3.org/2000/svg">
<path d="M333.333 333.333C241.319 333.333 162.76 365.885 97.6562 430.99C32.5521 496.094 0 574.653 0 666.667C0 758.681 32.5521 837.24 97.6562 902.344C162.76 967.448 241.319 1000 333.333 1000C425.347 1000 503.906 967.448 569.01 902.344C634.115 837.24 666.667 758.681 666.667 666.667C666.667 605.903 651.259 549.479 620.443 497.396L833.333 284.505V541.667H1000V0H458.333V167.318H714.844L502.604 379.557C450.521 348.741 394.097 333.333 333.333 333.333ZM333.333 500C379.34 500 418.62 516.276 451.172 548.828C483.724 581.38 500 620.66 500 666.667C500 712.674 483.724 751.953 451.172 784.505C418.62 817.057 379.34 833.333 333.333 833.333C287.326 833.333 248.047 817.057 215.495 784.505C182.943 751.953 166.667 712.674 166.667 666.667C166.667 620.66 182.943 581.38 215.495 548.828C248.047 516.276 287.326 500 333.333 500Z" fill="#0C35C7"/>
</svg>
