<svg width="1000" height="1000" viewBox="0 0 1000 1000" fill="none" xmlns="http://www.w3.org/2000/svg">
<path d="M480.701 701.873C480.701 701.873 495.311 764.061 576.248 810.311C627.264 839.451 734.53 869.686 789.295 829.217C851.639 783.123 865.076 737.498 868.045 720.701C871.014 703.904 862.108 657.576 862.108 657.576L759.53 621.092C759.53 621.092 589.92 662.498 586.951 662.498C584.061 662.576 480.701 701.873 480.701 701.873Z" fill="#E06767"/>
<path d="M862.423 740.701C864.689 734.842 866.095 729.842 867.111 725.701C848.986 720.857 827.97 713.045 808.908 704.92C810.47 704.217 812.032 703.514 813.517 702.732C822.892 697.967 832.111 692.42 838.751 684.295C845.939 675.545 849.22 664.217 848.829 652.889L759.533 621.092C759.533 621.092 589.923 662.498 586.954 662.498C583.986 662.498 480.704 701.795 480.626 701.873C479.298 702.342 490.236 725.311 490.939 726.482C500.861 744.998 523.673 770.779 539.298 784.764C539.298 784.764 532.111 768.201 545.704 762.029C551.72 759.295 558.986 760.623 565.157 763.045C580.626 769.217 600.001 792.967 648.439 818.436C681.329 835.779 715.158 849.061 726.095 848.592C740.704 847.967 767.189 840.857 767.189 840.857C767.189 840.857 733.439 837.654 679.22 812.42C662.814 804.764 602.111 774.92 596.329 758.279C594.689 753.592 588.829 745.311 599.454 740.623C615.704 733.357 660.001 771.561 698.048 789.061C743.361 809.842 792.736 826.482 792.736 826.482C798.048 822.42 803.048 818.357 807.736 814.295C782.501 807.811 757.814 798.904 733.986 788.514C710.236 778.201 686.954 764.842 665.47 750.154C651.798 740.779 642.345 724.998 657.032 722.967C681.095 719.607 712.189 742.498 743.361 758.67C771.486 773.279 805.236 779.998 836.876 783.982C840.939 778.904 847.579 769.217 847.579 769.217C847.579 769.217 835.626 767.186 800.314 759.373C784.845 755.936 769.845 751.482 756.095 743.748C752.501 741.717 739.923 728.826 757.111 722.889C774.298 716.951 790.626 728.748 816.564 734.764C842.579 740.936 862.189 741.248 862.423 740.701Z" fill="#B05353"/>
<path d="M921.874 416.781C921.874 416.781 919.92 353.5 885.936 297.485C856.639 249.203 814.842 244.281 814.842 244.281C814.842 244.281 806.561 213.891 777.498 190.61C748.436 167.328 688.67 147.875 688.67 147.875C568.983 93.9689 494.373 138.11 494.373 138.11C494.373 138.11 316.874 95.9221 174.764 216.469C174.764 216.469 103.045 250.219 73.7485 313.969C57.5766 349.281 64.5297 406.86 64.5297 406.86C14.7641 464.672 28.436 556.235 84.2954 602.094C110.936 623.891 143.827 638.344 178.123 642.016C191.561 643.422 198.358 640.219 203.983 653.891C212.264 674.047 218.748 694.75 235.389 709.203C252.342 723.891 272.108 735.297 293.123 743.11C333.905 758.188 379.998 759.828 421.17 745.063C434.842 740.141 478.67 739.672 478.67 739.672C478.67 739.672 501.874 758.813 584.217 755.766C666.561 752.719 701.327 717.172 720.155 710.531C734.608 705.453 752.342 694.281 768.124 697.172C777.108 698.813 785.155 703.422 793.358 707.328C816.327 718.344 842.108 724.36 867.42 722.016C963.123 713.188 973.202 602.953 963.749 527.172C954.217 450.688 921.874 416.781 921.874 416.781Z" fill="#FFB3B3"/>
<path d="M215 565.703C213.047 570.156 193.516 612.812 177.109 619.688C148.75 631.641 104.844 603.203 88.0469 595.391C84.7657 593.828 82.5782 597.734 82.5782 597.734C79.8438 601.25 86.9532 608.516 90.5469 611.094C104.453 621.094 137.813 643.75 162.578 649.922C194.531 657.891 218.516 649.922 218.516 649.922C218.516 649.922 227.266 585.937 227.969 583.047C228.672 580.156 227.969 554.688 227.969 554.688L215 565.703Z" fill="#EA6363"/>
<path d="M494.14 747.732C494.14 747.732 478.046 745.232 453.359 745.623C428.671 746.014 393.906 753.123 393.906 753.123C393.906 753.123 418.437 741.951 429.374 732.186C440.312 722.342 442.499 698.436 440.703 684.217C438.828 669.686 433.906 662.342 396.718 654.607L508.124 648.436C470.781 673.279 463.984 724.451 494.14 747.732Z" fill="#F07371"/>
<path d="M831.406 510.471C812.031 513.049 793.203 509.377 776.484 499.455C769.218 495.08 768.437 484.768 774.843 479.221C779.14 475.549 785.312 475.314 790.077 478.439C817.109 496.174 844.609 484.533 859.296 475.393C896.796 452.033 915.39 410.627 912.89 367.189C920.39 380.471 925.859 395.158 927.187 410.314C930.546 447.111 904.062 475.783 874.453 494.299C860.312 503.205 845.703 508.596 831.406 510.471Z" fill="#F07371"/>
<path d="M915.155 548.274C906.717 548.274 897.577 546.477 888.905 541.165C879.999 535.696 874.999 528.352 870.546 519.29C866.874 511.868 861.717 507.258 852.264 507.962C845.624 508.508 839.217 512.258 832.577 511.321C841.405 495.696 855.546 483.196 872.186 476.399C879.842 473.274 888.436 471.321 896.249 473.743C897.108 479.212 893.436 484.29 891.327 489.446C887.655 498.587 889.139 509.524 895.077 517.337C899.139 522.649 906.874 528.352 913.983 527.883C918.67 527.571 921.952 523.587 926.561 523.196C940.858 522.18 944.452 543.118 930.389 546.399C925.858 547.493 920.702 548.274 915.155 548.274Z" fill="#F07371"/>
<path d="M777.656 257.005C771.953 257.708 766.171 257.083 763.203 252.083C759.375 245.598 762.578 237.473 769.687 234.973C789.296 228.098 811.328 229.348 830.468 237.005C847.187 243.723 857.265 255.13 863.906 262.864C870.546 270.598 875.078 285.911 875.078 285.911C858.437 271.458 848.984 248.723 777.656 257.005Z" fill="#F07371"/>
<path d="M702.813 244.726C685.938 244.023 702.344 244.726 702.188 244.726C675.469 244.726 643.516 235.507 639.219 205.038C631.485 149.57 713.36 171.132 743.36 175.273C743.36 175.273 719.688 150.976 688.673 148.867C674.22 147.929 659.298 148.32 645.235 152.07C629.766 156.21 621.954 167.851 607.891 173.632C597.266 177.929 585.157 176.288 574.219 173.007C564.141 169.96 531.407 152.382 530.469 174.257C530.235 180.273 534.532 185.429 540.391 186.288C564.141 189.648 596.954 200.273 609.141 222.929C614.766 233.32 616.095 245.898 612.813 257.226C611.251 262.773 608.985 269.882 613.594 273.398C617.11 276.132 622.501 274.335 625.704 271.21C628.907 268.085 630.938 263.867 634.141 260.742C644.141 250.898 653.204 257.929 663.829 261.679C676.095 266.054 689.063 268.163 702.11 268.163C702.423 268.163 679.22 265.898 702.97 268.163C726.641 270.351 719.61 245.429 702.813 244.726Z" fill="#F07371"/>
<path d="M327.267 217.578C314.298 205.859 308.126 160.234 345.392 136.719C345.392 136.719 325.08 137.422 308.126 150.703C293.673 162.031 290.783 181.641 294.22 202.344C295.08 207.656 290.939 212.5 285.548 212.188C266.173 211.172 246.876 214.688 230.236 222.344C223.908 225.312 221.72 233.281 225.47 239.219C227.017 241.619 229.386 243.372 232.134 244.149C234.881 244.926 237.818 244.673 240.392 243.438C259.064 234.844 286.251 230.234 308.048 235.703C330.158 241.25 345.705 247.656 363.048 277.734C366.017 282.812 372.423 284.609 377.267 281.328C381.017 278.75 382.58 273.906 381.017 269.688C366.173 228.75 344.767 233.359 327.267 217.578Z" fill="#F07371"/>
<path d="M375.624 360.509C375.205 359.014 374.493 357.617 373.529 356.4C372.564 355.183 371.367 354.17 370.007 353.421C368.647 352.672 367.151 352.201 365.607 352.037C364.063 351.872 362.502 352.017 361.014 352.462C342.264 358.087 315.155 356.447 303.046 344.259C286.874 306.837 274.608 300.197 254.999 293.556C247.186 290.9 239.374 297.619 240.155 305.744C240.624 310.353 243.671 314.259 248.124 315.587C262.03 319.728 276.014 338.4 283.202 357.462C289.764 374.728 290.546 397.462 275.702 413.712C271.874 417.931 271.092 424.025 274.452 428.634L274.608 428.869C278.905 434.806 287.499 435.275 292.499 429.884C297.811 424.103 303.358 416.603 305.702 409.025C308.124 400.978 307.421 393.791 314.374 387.384C322.108 380.197 329.452 381.681 338.749 381.681C348.28 381.681 358.514 378.244 367.499 375.041C373.592 373.087 377.499 366.603 375.624 360.509Z" fill="#F07371"/>
<path d="M136.093 463.01C133.436 463.01 130.858 462.932 128.124 462.697C91.952 459.572 72.9677 433.557 64.3739 405.041C55.7802 376.526 63.0458 345.51 63.0458 345.51C73.9833 429.885 117.968 438.244 130.155 439.338C153.202 441.369 175.233 431.369 181.249 416.135C190.78 392.072 161.561 368.479 147.265 353.869C137.811 344.182 134.296 327.697 136.796 314.651C138.046 307.932 141.015 301.369 146.561 297.072C152.03 292.854 165.78 289.026 163.905 301.057C163.358 304.807 160.936 307.932 159.452 311.369C148.749 335.744 186.796 358.322 197.186 376.369C205.702 390.979 209.452 408.635 203.046 424.729C193.983 447.697 166.561 463.01 136.093 463.01Z" fill="#F07371"/>
<path d="M127.734 457.782C134.062 458.563 140.546 457.469 146.249 454.657C151.718 452.001 156.64 447.782 162.656 447.313C165.546 447.157 169.14 448.876 168.671 451.688C168.515 452.704 175.156 454.579 174.296 455.126C158.749 464.813 119.374 474.423 146.562 544.188C148.749 549.735 147.031 555.985 141.953 559.032C136.015 562.626 128.124 560.282 125.312 553.954C117.89 537.626 114.296 519.579 114.531 501.61C114.765 484.11 116.562 468.798 104.843 454.188C103.593 452.704 102.265 450.594 103.281 448.954C103.906 447.938 105.156 447.548 106.328 447.235C111.171 445.985 116.328 444.657 121.249 445.673C123.437 446.141 147.89 459.657 148.124 459.188" fill="#F07371"/>
<path d="M824.686 571.497C808.514 569.544 791.874 570.716 776.561 576.497C763.593 581.419 753.905 591.341 738.983 588.06C730.077 586.107 722.186 580.404 716.64 573.138C704.921 557.904 706.483 541.888 710.858 524.544C715.233 507.357 714.765 487.435 707.03 471.263C704.999 466.966 701.561 463.138 697.108 461.576C692.577 460.013 687.03 461.341 684.374 465.326C681.718 469.388 682.733 474.779 683.671 479.544C686.718 494.154 690.624 509.935 686.249 524.232C682.108 537.826 676.405 550.013 666.64 560.482C648.124 580.404 621.249 589.544 598.046 583.685C580.936 579.388 567.108 567.435 557.811 549.154C554.53 534.857 551.093 516.263 533.358 514.232C529.764 513.841 525.858 514.388 523.124 516.654C520.39 518.998 519.139 522.748 519.139 526.341C519.139 535.326 527.733 542.044 529.296 550.872C534.218 577.904 516.249 608.841 488.983 623.841C467.89 635.482 409.999 642.044 358.124 598.529C355.936 596.654 355.936 593.06 353.827 591.107C352.421 589.857 350.624 589.076 348.827 588.763C341.093 587.279 333.046 594.622 333.749 602.435C334.374 609.544 340.233 615.013 345.468 619.857C359.061 632.513 352.968 637.591 350.624 644.388C350.077 646.107 349.061 647.669 348.905 649.466C348.436 654.466 356.093 652.826 361.093 652.435C366.093 652.044 370.624 649.31 375.468 647.904C381.561 646.185 409.452 656.419 414.921 657.591C430.78 661.029 436.249 662.591 449.921 662.591C467.03 662.591 481.561 671.419 494.061 659.701C511.874 643.06 525.702 632.201 541.483 626.81C549.296 624.154 558.671 622.826 565.233 627.904C569.921 631.497 572.03 637.513 573.671 643.138C577.03 654.701 579.53 666.497 584.452 677.513C589.374 688.451 597.186 698.685 608.124 703.607C611.561 705.169 615.468 706.185 619.218 705.326C622.968 704.466 626.249 701.263 626.327 697.513C626.405 694.935 625.077 692.591 623.671 690.482C618.28 681.888 611.874 673.919 607.108 665.013C602.343 656.107 599.218 645.716 601.171 635.794C604.764 617.435 626.015 612.279 641.249 607.669C655.858 603.216 670.468 594.857 686.171 595.716C696.015 596.263 716.874 607.747 723.124 615.404C724.374 616.966 724.921 618.919 725.233 620.951C727.89 637.435 715.78 652.279 704.296 664.31C702.265 666.419 700.155 669.622 701.874 672.044C702.499 672.904 703.436 673.372 704.374 673.685C712.655 676.888 722.343 674.076 729.374 668.685C744.843 656.966 750.233 636.888 763.436 622.982C774.296 611.654 788.905 604.232 803.671 599.388C856.483 582.044 859.218 623.607 868.671 646.888C878.124 670.169 892.108 654.076 892.264 647.669C892.811 617.279 873.358 577.279 824.686 571.497Z" fill="#F07371"/>
<path d="M330.079 695.248C322.032 694.78 316.719 686.42 320 678.998C325.235 667.123 335.079 655.327 347.813 646.264C367.188 632.514 386.563 630.014 406.016 635.561L410 655.405C397.422 651.811 374.922 655.795 361.407 665.405C351.641 672.358 344.922 680.873 341.641 687.983C339.532 692.592 335.079 695.561 330.079 695.248Z" fill="#F07371"/>
<path d="M836.015 335.253C834.531 325.331 826.797 316.113 816.797 315.8C811.875 315.644 806.406 318.222 805.078 322.988C804.453 325.097 804.765 327.441 804.844 329.628C805.469 345.878 792.422 361.581 776.328 363.847C758.125 366.425 744.687 355.175 730.937 345.8C717.812 336.894 701.406 330.878 686.25 326.581C645.859 315.253 611.094 322.831 584.609 356.191C574.766 368.613 565.39 382.206 551.562 389.863C529.844 401.894 483.984 402.753 470.469 379.159C452.734 348.3 452.109 253.456 508.984 264.238C526.562 267.597 539.609 282.831 540.859 294.159C541.641 301.347 537.187 307.597 531.484 312.441C529.383 314.243 527.993 316.735 527.563 319.47C527.134 322.205 527.693 325.003 529.141 327.363C532.891 333.534 541.328 334.863 546.797 330.253C562.812 316.503 565.312 302.05 564.14 291.581C560.469 258.222 522.89 239.394 493.047 238.534C486.484 238.3 478.906 236.191 476.406 230.019C475.312 227.363 475.469 224.472 475.234 221.659C473.672 201.738 453.281 180.097 437.344 169.784C431.484 165.956 423.594 168.456 420.547 174.706C417.969 180.097 420 186.425 425 189.706C440.156 199.706 449.375 214.238 452.422 232.988C455.859 254.55 451.172 276.581 442.109 296.191C437.578 306.034 432.031 315.566 425.547 324.316C420 331.894 412.109 336.972 408.515 346.034C408.125 347.05 407.734 348.144 408.047 349.16C408.594 351.113 411.015 351.659 413.047 351.738C418.828 351.972 424.609 350.722 429.765 348.3C426.797 359.785 434.453 370.956 440.781 380.956C447.109 390.956 452.187 404.55 445 414.003C444.687 414.394 444.297 414.785 443.984 415.253C428.594 421.738 413.75 430.566 402.187 442.753C382.265 463.847 367.5 482.831 338.359 492.206C312.578 500.566 283.906 499.55 258.828 489.472C253.984 487.519 249.062 485.253 243.828 485.41C238.594 485.566 233.047 489.238 232.89 494.472C232.812 497.128 234.14 499.55 235.312 501.972C248.594 528.925 224.219 546.425 213.828 569.863C204.062 591.738 199.062 615.722 199.062 639.706C199.062 665.878 208.047 684.941 240.469 718.222C255.156 733.222 274.375 742.128 290.547 747.363C295.625 749.003 298.828 742.05 294.297 739.16C260.937 717.91 255.703 699.081 245.547 679.706C221.172 633.066 247.812 561.972 293.672 525.878C311.406 511.972 336.562 513.066 357.969 520.41C380.937 528.3 394.531 545.175 411.797 560.878C416.484 565.175 422.5 569.785 428.515 567.91C433.984 566.269 436.719 559.785 436.094 554.16C435.469 548.535 432.265 543.534 429.219 538.769C425.859 533.534 422.5 528.3 419.062 523.066C414.609 516.191 410 509.003 408.594 500.878C407.031 492.05 414.844 461.503 489.062 442.597C501.64 439.394 514.453 440.8 527.109 444.394C544.14 449.238 556.328 461.738 570.625 471.503C574.609 474.238 578.984 477.128 583.828 477.284C589.922 477.519 595.859 472.91 597.109 466.894C598.828 458.613 592.578 451.191 588.437 443.847C574.687 419.628 590.703 387.284 610.937 371.816C629.062 358.066 652.89 352.988 675.469 355.331C709.844 358.847 743.75 381.816 751.64 415.41C753.437 422.988 755.625 432.753 763.359 433.769C771.953 434.941 776.562 423.456 775.703 414.784C774.844 406.113 772.031 396.347 777.422 389.472C779.922 386.347 783.672 384.55 787.344 382.91C797.89 378.3 808.906 374.472 818.359 367.831C827.812 361.269 835.703 351.191 836.406 339.706C836.328 338.378 836.25 336.816 836.015 335.253Z" fill="#EA6363"/>
<path d="M412.97 351.738C418.751 351.972 424.532 350.722 429.688 348.3C426.72 359.785 434.376 370.956 440.704 380.956C445.313 388.3 451.72 401.347 444.766 414.706C444.766 414.706 455.235 408.847 472.188 403.925C489.141 399.003 505.704 397.91 505.704 397.91C493.673 395.41 475.86 388.613 470.391 379.16C452.657 348.3 452.032 253.456 508.907 264.238C526.485 267.597 539.532 282.831 540.782 294.159C541.563 301.347 537.11 307.597 531.407 312.441C529.306 314.243 527.916 316.735 527.486 319.47C527.057 322.205 527.616 325.003 529.063 327.363C532.813 333.534 541.251 334.863 546.72 330.253C562.735 316.503 565.235 302.05 564.063 291.581C560.391 258.222 522.813 239.394 492.97 238.534C486.407 238.3 478.829 236.191 476.329 230.019C475.235 227.363 475.391 224.472 475.157 221.659C473.595 201.738 453.204 180.097 437.266 169.784C431.407 165.956 423.516 168.456 420.47 174.706C417.891 180.097 419.923 186.425 424.923 189.706C440.079 199.706 449.298 214.238 452.345 232.988C455.782 254.55 451.095 276.581 442.032 296.191C437.501 306.035 431.954 315.566 425.47 324.316C419.923 331.894 412.032 336.972 408.438 346.034C408.048 347.05 407.657 348.144 407.97 349.16C408.516 351.113 410.938 351.66 412.97 351.738Z" fill="#F07371"/>
</svg>
