<svg width="1000" height="1000" viewBox="0 0 1000 1000" fill="none" xmlns="http://www.w3.org/2000/svg">
<path fill-rule="evenodd" clip-rule="evenodd" d="M812.5 187.5C812.5 170.924 805.915 155.027 794.194 143.306C782.473 131.585 766.576 125 750 125H250C233.424 125 217.527 131.585 205.806 143.306C194.085 155.027 187.5 170.924 187.5 187.5V812.5C187.5 829.076 194.085 844.973 205.806 856.694C217.527 868.415 233.424 875 250 875H500V812.5H250V187.5H750V375H812.5V187.5Z" fill="#626262"/>
<path d="M312.5 562.5H500V625H312.5V562.5Z" fill="#626262"/>
<path d="M312.5 437.5H687.5V500H312.5V437.5Z" fill="#626262"/>
<path fill-rule="evenodd" clip-rule="evenodd" d="M687.5 312.5V375H312.5V312.5H687.5Z" fill="#626262"/>
<path fill-rule="evenodd" clip-rule="evenodd" d="M781.25 718.75L937.5 781.25V718.75L781.25 640.625V562.5C781.25 554.212 777.958 546.263 772.097 540.403C766.237 534.542 758.288 531.25 750 531.25C741.712 531.25 733.763 534.542 727.903 540.403C722.042 546.263 718.75 554.212 718.75 562.5V640.625L562.5 718.75V781.25L718.75 718.75V828.125L656.25 875V906.25L750 875L843.75 906.25V875L781.25 828.125V718.75Z" fill="#626262"/>
</svg>
