<svg width="1000" height="1000" viewBox="0 0 1000 1000" fill="none" xmlns="http://www.w3.org/2000/svg">
<path d="M692.499 559.349L604.166 471.849C701.666 372.682 826.249 338.099 826.249 338.099C786.249 441.849 738.749 511.432 692.499 559.349ZM499.999 83.5156C499.999 83.5156 452.499 179.349 433.749 300.599L571.666 437.682C579.999 352.266 567.083 234.766 499.999 83.5156ZM868.333 947.266L921.249 894.349L99.5827 72.2656L46.2494 125.182L359.166 437.682C270.833 364.766 173.749 338.099 173.749 338.099C237.499 503.516 320.416 583.516 386.666 623.932C269.583 608.099 166.666 666.849 166.666 666.849C278.333 716.432 359.999 718.099 414.166 706.432C355.416 754.349 334.583 825.599 334.583 825.599C416.666 795.599 458.333 755.599 479.166 723.099V916.849H520.833V723.099C541.666 755.599 583.333 795.599 665.416 825.599C665.416 825.599 644.583 754.349 585.833 706.432C599.583 708.516 615.416 711.432 633.333 712.266L868.333 947.266Z" fill="#02A543"/>
</svg>
