<svg width="1000" height="1000" viewBox="0 0 1000 1000" fill="none" xmlns="http://www.w3.org/2000/svg">
<path d="M500 937.5C741.625 937.5 937.5 741.625 937.5 500C937.5 258.375 741.625 62.5 500 62.5C258.375 62.5 62.5 258.375 62.5 500C62.5 741.625 258.375 937.5 500 937.5Z" fill="white"/>
<path d="M500 1000C224.297 1000 0 775.703 0 500C0 224.297 224.297 0 500 0C775.703 0 1000 224.297 1000 500C1000 775.703 775.703 1000 500 1000ZM500 85.0781C271.172 85.0781 85.0781 271.25 85.0781 500C85.0781 728.828 271.25 914.922 500 914.922C728.75 914.922 914.922 728.828 914.922 500C914.922 271.172 728.828 85.0781 500 85.0781Z" fill="#DB4437"/>
<path d="M671.875 476.562H210.938C198.047 476.562 187.5 487.109 187.5 500V554.688C187.5 567.578 198.047 578.125 210.938 578.125H671.875C684.766 578.125 695.312 567.578 695.312 554.688V500C695.312 487.109 684.766 476.562 671.875 476.562Z" fill="#2F2F2F"/>
<path d="M717.188 563.672C715.782 578.906 727.266 574.297 738.438 574.375C747.735 574.375 756.329 575.391 765.469 575.391C774.063 575.391 780.938 572.187 789.454 572.266C795.704 572.344 810.626 573.906 812.891 565.859C814.141 561.484 812.891 553.906 812.579 549.297C811.407 530 812.813 510.156 810.001 491.016C809.141 485 805.391 479.375 798.751 478.75C794.532 478.359 790.391 480.469 786.172 480.859C782.188 481.328 778.751 479.922 775.001 479.609C768.985 479.141 761.954 476.953 755.469 476.641C755.001 476.641 754.532 476.641 754.063 476.562C751.876 476.562 749.766 476.719 747.813 477.422C741.251 479.609 738.751 480.312 732.11 479.453C729.219 479.062 722.579 478.594 719.923 479.766C718.048 480.547 716.876 482.109 716.173 483.984C714.219 489.062 715.86 496.875 717.579 500.703C720.782 508.125 718.673 515.234 718.673 523.203C718.594 536.719 718.516 550.312 717.188 563.672Z" fill="#ED6C30"/>
<path d="M466.405 236.211C485.312 299.726 542.577 333.086 604.53 344.101C622.733 347.383 641.249 349.179 659.765 350.508C669.686 351.211 750.077 349.57 725.858 371.914C716.171 380.82 700.546 388.554 693.28 400.429C690.546 404.804 688.905 409.648 689.218 415.429C690.468 439.726 722.187 452.773 742.187 456.836C746.405 457.695 753.437 459.57 759.765 459.57C764.53 459.57 768.905 458.476 771.249 454.883C776.405 447.07 767.577 443.164 761.952 439.726C753.202 434.336 749.14 429.57 751.483 418.32C756.327 395.039 787.499 393.086 806.249 389.726C817.89 387.617 829.687 384.023 839.921 378.164C852.187 371.211 862.265 361.133 866.561 346.289C867.968 341.445 868.593 336.445 868.749 331.445C869.218 311.054 859.843 290.351 842.811 279.336C818.983 263.945 789.765 265.742 762.343 264.414C759.14 264.258 755.936 264.101 752.733 263.789C736.327 262.383 714.062 255.898 701.562 245.039C690.077 235.039 694.374 225.508 703.358 217.929C712.187 210.508 725.624 205.039 733.046 202.929C745.937 199.414 759.296 198.476 772.655 198.476C786.249 198.476 799.921 199.414 813.437 199.414H813.671C819.14 199.414 824.53 199.258 829.921 198.867C857.812 196.679 885.624 184.961 905.311 164.726C908.436 161.523 911.327 158.164 913.983 154.492C933.983 127.226 935.78 90.4294 905.311 70.5857C899.061 66.5232 885.937 59.5701 875.39 59.5701C871.249 59.5701 867.421 60.6638 864.53 63.3982C861.64 66.2107 862.968 71.3669 864.765 74.8826C870.39 85.8201 868.593 95.0388 861.952 100.508C857.812 103.945 851.874 105.976 844.53 105.976C839.921 105.976 835.624 105.664 831.249 105.195C818.827 103.789 807.186 94.4138 797.108 87.7732C787.811 81.6013 778.749 74.9607 769.296 69.1013C760.624 63.7888 751.64 59.0232 741.874 55.9763C720.233 49.1013 695.702 45.8982 670.546 45.8982C647.968 45.8982 624.921 48.4763 602.968 53.3201C581.015 58.0857 560.233 65.1169 542.03 73.9451C537.421 76.2107 532.968 78.8669 528.593 81.6013C497.577 101.289 474.608 132.773 465.546 167.929C459.921 189.883 459.608 213.398 466.405 236.211Z" fill="#78A3AD"/>
<path d="M870.077 801.602L804.218 867.305L129.921 197.539L195.78 131.836L870.077 801.602Z" fill="#DB4437"/>
</svg>
