<svg width="1000" height="1000" viewBox="0 0 1000 1000" fill="none" xmlns="http://www.w3.org/2000/svg">
<path d="M870.389 519.531C870.389 519.531 939.296 531.484 939.296 605.703C939.296 671.172 888.983 697.031 838.749 697.031V519.531H870.389Z" fill="#E49500"/>
<path d="M129.609 519.531C129.609 519.531 60.7032 531.484 60.7032 605.703C60.7032 671.172 111.016 697.031 161.25 697.031V519.531H129.609Z" fill="#E49500"/>
<path d="M812.499 253.906C737.421 143.203 640.624 105.469 499.999 105.469C359.374 105.469 262.577 143.203 187.499 253.906C132.499 334.922 119.218 462.422 136.171 593.75C152.499 720 181.64 796.875 262.577 867.578C332.89 928.984 412.733 949.766 494.608 949.766H505.233C587.108 949.766 667.03 928.984 737.265 867.578C818.202 796.875 847.343 720 863.671 593.75C880.78 462.422 867.499 334.922 812.499 253.906Z" fill="#FBC11B"/>
<path d="M540.858 703.436C526.483 707.499 511.561 709.53 499.999 709.53C488.436 709.53 473.514 707.577 459.139 703.436C452.967 701.718 450.545 707.499 452.733 711.405C457.264 719.452 475.702 735.624 499.92 735.624C524.217 735.624 542.577 719.452 547.108 711.405C549.452 707.499 547.03 701.718 540.858 703.436Z" fill="#E49500"/>
<path d="M572.344 777.344H500.235H428.125C419.844 777.344 416.328 783.828 421.797 793.594C429.453 807.266 457.813 833.516 500.235 833.516C542.656 833.516 571.016 807.266 578.672 793.594C584.141 783.906 580.547 777.344 572.344 777.344Z" fill="#513F35"/>
<path d="M365.155 612.735C365.155 646.953 342.265 674.61 313.905 674.61C285.624 674.61 262.577 646.875 262.577 612.735C262.577 578.438 285.624 550.781 313.905 550.781C342.265 550.703 365.155 578.438 365.155 612.735Z" fill="#444444"/>
<path d="M737.42 612.735C737.42 646.953 714.529 674.61 686.17 674.61C657.889 674.61 634.842 646.875 634.842 612.735C634.842 578.438 657.889 550.781 686.17 550.781C714.529 550.703 737.42 578.438 737.42 612.735Z" fill="#444444"/>
<path d="M462.579 108.297C511.016 105.016 551.485 132.281 549.532 174.313C545.469 261.578 440.469 251.266 401.954 217.281C396.719 212.672 388.36 217.047 389.063 224C391.407 247.438 406.251 276.656 441.563 298.688C496.719 333.141 652.344 311.813 652.344 173.609C652.344 72.9844 546.407 33.9219 479.844 44.7032C418.516 54.6251 375.86 99.7813 369.766 121.969C394.61 115.719 426.797 110.25 462.579 108.297Z" fill="#6D4C41"/>
</svg>
