<svg width="1000" height="1000" viewBox="0 0 1000 1000" fill="none" xmlns="http://www.w3.org/2000/svg">
<path d="M875 812.5H125V479.167L500 125L875 479.167V812.5Z" fill="#E8EAF6"/>
<path d="M812.499 437.5L708.332 333.333V187.5H812.499V437.5Z" fill="#C5CAE9"/>
<path d="M125 812.5H875V916.667H125V812.5Z" fill="#C5CAE9"/>
<path d="M499.999 89.8438L83.332 477.344L124.999 523.177L499.999 175.26L874.999 523.177L916.665 477.344L499.999 89.8438Z" fill="#B71C1C"/>
<path d="M375 582.033H625V915.367H375V582.033Z" fill="#D84315"/>
<path d="M437.5 355.467H562.5V480.467H437.5V355.467Z" fill="#01579B"/>
<path d="M572.917 738.283C566.667 738.283 562.5 742.45 562.5 748.7V790.367C562.5 796.617 566.667 800.783 572.917 800.783C579.167 800.783 583.333 796.617 583.333 790.367V748.7C583.333 742.45 579.167 738.283 572.917 738.283Z" fill="#FF8A65"/>
</svg>
