<svg width="1000" height="1000" viewBox="0 0 1000 1000" fill="none" xmlns="http://www.w3.org/2000/svg">
<path d="M708.332 707.033H624.999V957.033H541.665V707.033H453.332L389.165 787.45L487.915 885.783L428.749 944.95L330.415 846.2C315.832 832.033 307.499 812.45 306.249 792.033C304.999 771.617 311.249 751.2 324.165 735.367L346.665 707.033H291.665L374.999 540.367V415.367C349.165 434.95 328.332 459.95 313.749 488.7C299.165 517.867 291.665 549.533 291.665 582.033H208.332C208.343 504.682 239.076 430.502 293.771 375.806C348.467 321.11 422.647 290.378 499.999 290.367C555.415 290.367 608.332 268.283 647.499 229.533C686.249 190.367 708.332 137.45 708.332 82.0332H791.665C791.665 137.033 775.832 191.2 746.249 237.45C716.829 284.043 674.781 321.323 624.999 344.95V540.367L708.332 707.033ZM583.332 165.367C583.332 182.033 578.332 197.867 569.165 211.617C559.999 225.367 547.082 236.2 532.082 242.45C516.823 248.705 500.054 250.302 483.889 247.04C467.724 243.777 452.887 235.801 441.249 224.117C429.582 212.45 421.665 197.867 418.332 181.617C414.999 165.367 416.665 148.7 422.915 133.7C429.165 118.283 439.999 105.367 453.749 96.1999C467.499 87.0332 483.332 82.0332 499.999 82.0332C522.082 82.0332 543.332 90.7832 558.749 106.617C574.582 122.033 583.332 143.283 583.332 165.367Z" fill="#D82B2B"/>
</svg>
