<svg width="1410" height="1092" viewBox="0 0 1410 1092" fill="none" xmlns="http://www.w3.org/2000/svg">
<g clip-path="url(#clip0)">
<path d="M146.561 983.579V1060.84H827.342V983.579C827.342 865.063 660.233 804.907 489.529 805.141C319.842 805.376 146.561 858.11 146.561 983.579Z" fill="#424242"/>
<path d="M486.953 766.078H416.016V841C416.016 874.906 444.922 902.406 480.547 902.406H493.438C529.063 902.406 557.969 874.906 557.969 841V766.078H486.953Z" fill="#C48E6A"/>
<path d="M563.83 1061.39H410.08V809.047L486.955 902.797L563.83 809.047V1061.39Z" fill="#424242"/>
<path d="M738.827 469.204C738.827 469.204 784.843 477.173 784.843 526.782C784.843 570.532 751.249 587.798 717.655 587.798V469.204H738.827Z" fill="#C48E6A"/>
<path d="M236.64 469.204C236.64 469.204 190.624 477.173 190.624 526.782C190.624 570.532 224.218 587.798 257.812 587.798V469.204H236.64Z" fill="#C48E6A"/>
<path d="M487.735 144.984C289.298 144.984 237.423 298.812 237.423 514.906C237.423 738.969 381.407 796.938 487.735 796.938C592.501 796.938 738.048 740.688 738.048 514.906C738.126 298.812 686.173 144.984 487.735 144.984Z" fill="#E0BB95"/>
<path d="M405.313 535.063C405.313 557.406 390.391 575.453 371.875 575.453C353.438 575.453 338.36 557.328 338.36 535.063C338.36 512.719 353.36 494.594 371.875 494.594C390.391 494.594 405.313 512.641 405.313 535.063Z" fill="#5D4037"/>
<path d="M570.156 535.063C570.156 557.406 585.078 575.453 603.672 575.453C622.109 575.453 637.109 557.328 637.109 535.063C637.109 512.719 622.109 494.594 603.672 494.594C585.078 494.594 570.156 512.641 570.156 535.063Z" fill="#5D4037"/>
<path d="M560.233 672.327H487.811H415.389C407.108 672.327 403.514 677.874 408.983 686.311C416.639 698.03 445.233 720.53 487.811 720.53C530.389 720.53 558.983 698.03 566.639 686.311C572.108 677.874 568.514 672.327 560.233 672.327Z" fill="#5D4037"/>
<path d="M522.733 610.123C510.389 613.638 497.576 615.279 487.733 615.279C477.889 615.279 465.076 613.56 452.733 610.123C447.498 608.638 445.389 613.638 447.264 616.92C451.17 623.795 466.951 637.701 487.733 637.701C508.514 637.701 524.295 623.795 528.201 616.92C530.076 613.56 528.045 608.56 522.733 610.123Z" fill="#C48E6A"/>
<path d="M493.749 117.74C493.749 117.74 489.843 117.583 488.202 117.662C486.561 117.662 482.655 117.74 482.655 117.74C268.515 121.88 203.983 250.708 203.983 340.005C203.983 426.802 204.061 490.63 204.061 490.63C204.061 490.63 207.499 487.115 213.749 482.193C220.468 476.958 227.89 474.068 227.89 474.068L238.671 546.568L309.999 397.505C310.468 396.568 311.405 396.021 312.421 396.177L354.686 400.865C397.186 405.552 439.921 407.896 482.577 407.974V408.052C484.452 408.052 486.249 407.974 488.124 407.974C489.999 407.974 491.796 408.052 493.671 408.052V407.896C536.327 407.74 579.061 405.474 621.561 400.786L663.827 396.099C664.843 396.021 665.78 396.568 666.249 397.427L737.577 546.49L748.358 473.99C748.358 473.99 755.78 476.958 762.499 482.115C768.827 487.036 772.186 490.552 772.186 490.552C772.186 490.552 772.264 426.802 772.264 339.927C772.421 250.708 707.889 121.88 493.749 117.74Z" fill="#BFA055"/>
<path d="M487.187 61L97.6562 133.031L488.203 61.1562L487.187 61Z" fill="#262626"/>
<path d="M489.373 61.0781L489.139 61L488.201 61.1562L489.373 61.3906V61.0781Z" fill="#424143"/>
<path d="M491.561 61L881.17 133.031L490.624 61.1562L491.561 61Z" fill="#262626"/>
<path d="M881.328 153.109L881.172 133.266L489.687 189.984H489.219L97.6561 133.266L97.4999 153.109L254.297 180.531L240.859 218.5C269.609 231.156 373.75 273.188 489.375 276.234C605 273.109 705.469 231.156 734.219 218.5L720.781 180.531L881.328 153.109Z" fill="#262626"/>
<path d="M489.376 61.0781L489.689 61L490.626 61.1562L489.376 61.3906V61.0781Z" fill="#424143"/>
<path d="M490.625 61L489.375 61.2344L488.203 61L97.6562 132.875L489.141 189.594L489.375 189.516L489.688 189.594L881.172 132.875L490.625 61Z" fill="#424143"/>
<path d="M888.28 420.375C880.39 420.375 874.062 426.781 874.062 434.594V495.766C874.062 499.537 875.56 503.153 878.226 505.82C880.893 508.486 884.509 509.984 888.28 509.984C892.051 509.984 895.668 508.486 898.335 505.82C901.001 503.153 902.499 499.537 902.499 495.766V434.594C902.499 426.781 896.171 420.375 888.28 420.375Z" fill="#FBC11B"/>
<path d="M859.842 420.375C851.951 420.375 845.623 426.781 845.623 434.594V495.766C845.623 499.537 847.121 503.153 849.788 505.82C852.454 508.486 856.071 509.984 859.842 509.984C863.613 509.984 867.229 508.486 869.896 505.82C872.563 503.153 874.061 499.537 874.061 495.766V434.594C874.061 426.781 867.732 420.375 859.842 420.375Z" fill="#FBC11B"/>
<path d="M868.906 420.375C861.015 420.375 854.687 426.781 854.687 434.594V495.766C854.687 499.537 856.185 503.153 858.851 505.82C861.518 508.486 865.134 509.984 868.906 509.984C872.677 509.984 876.293 508.486 878.96 505.82C881.626 503.153 883.124 499.537 883.124 495.766V434.594C883.124 426.781 876.796 420.375 868.906 420.375Z" fill="#E49500"/>
<path d="M879.762 420.375C871.871 420.375 865.543 426.781 865.543 434.594V495.766C865.543 503.656 871.95 509.984 879.762 509.984C887.575 509.984 893.981 503.578 893.981 495.766V434.594C893.981 426.781 887.653 420.375 879.762 420.375Z" fill="#E49500"/>
<path d="M874.059 420.375C866.169 420.375 859.84 426.781 859.84 434.594V508.969C859.84 512.74 861.338 516.356 864.005 519.023C866.672 521.689 870.288 523.188 874.059 523.188C877.83 523.188 881.447 521.689 884.113 519.023C886.78 516.356 888.278 512.74 888.278 508.969V434.594C888.278 426.781 881.95 420.375 874.059 420.375Z" fill="#FBC11B"/>
<path d="M874.061 431.079C882.949 431.079 890.155 423.874 890.155 414.985C890.155 406.097 882.949 398.892 874.061 398.892C865.173 398.892 857.967 406.097 857.967 414.985C857.967 423.874 865.173 431.079 874.061 431.079Z" fill="#E49500"/>
<path d="M874.061 427.173C882.949 427.173 890.155 419.967 890.155 411.079C890.155 402.191 882.949 394.985 874.061 394.985C865.173 394.985 857.967 402.191 857.967 411.079C857.967 419.967 865.173 427.173 874.061 427.173Z" fill="#FBC11B"/>
<path d="M867.031 135.219V408.266H867.187C867.5 411.859 870.469 414.75 874.14 414.75C877.812 414.75 880.781 411.938 881.094 408.266H881.25V135.219H867.031Z" fill="#262626"/>
</g>
<g clip-path="url(#clip1)">
<path d="M1265.73 1057.87C1254.22 1063.93 1243.26 1065.07 1241.2 1060.37L1122.98 791.58C1120.93 786.9 1128.55 778.157 1140.07 772.054C1151.56 765.985 1162.58 764.839 1164.62 769.552L1282.82 1038.34C1284.86 1043.02 1277.21 1051.8 1265.73 1057.89" fill="#243438"/>
<path d="M1273.75 719.443C1273.75 816.86 1201.77 895.694 1113.08 895.694C1024.38 895.694 952.42 816.86 952.42 719.443C952.42 622.026 1024.38 543.192 1113.08 543.192C1201.77 543.192 1273.75 622.026 1273.75 719.443Z" fill="#243438"/>
<path d="M1257.43 719.8C1257.43 807.28 1192.77 878.126 1113.09 878.126C1033.41 878.126 968.766 807.28 968.766 719.8C968.766 632.289 1033.41 561.475 1113.09 561.475C1192.77 561.475 1257.43 632.289 1257.43 719.8Z" fill="#30434A"/>
<path d="M1241.58 719.678C1241.58 797.545 1184.04 860.607 1113.11 860.607C1042.2 860.607 984.645 797.537 984.645 719.678C984.645 641.795 1042.2 578.741 1113.11 578.741C1184.04 578.741 1241.58 641.795 1241.58 719.678Z" fill="#1E75BB"/>
<path d="M1113.08 843.105C1175.28 843.105 1225.7 787.79 1225.7 719.556C1225.7 651.322 1175.28 596.008 1113.08 596.008C1050.89 596.008 1000.47 651.322 1000.47 719.556C1000.47 787.79 1050.89 843.105 1113.08 843.105Z" fill="#57C6E9"/>
<path d="M1051.22 616.321C1035.62 627.553 1022.81 642.868 1013.95 660.887C1005.09 678.905 1000.46 699.059 1000.47 719.532C1000.47 787.754 1050.89 843.08 1113.08 843.08C1114.18 843.08 1115.28 842.918 1116.38 842.885C1005.92 782.813 1033.2 658.078 1051.22 616.321Z" fill="#27A8E0"/>
</g>
<defs>
<clipPath id="clip0">
<rect width="1000" height="1000" fill="white" transform="translate(0 61)"/>
</clipPath>
<clipPath id="clip1">
<rect width="474" height="520.033" fill="white" transform="translate(936 543.192)"/>
</clipPath>
</defs>
</svg>
