<svg width="1000" height="1000" viewBox="0 0 1000 1000" fill="none" xmlns="http://www.w3.org/2000/svg">
<path d="M166.298 558.359C166.294 549.662 168.005 541.049 171.334 533.014C174.663 524.978 179.544 517.679 185.698 511.532C191.851 505.386 199.157 500.513 207.196 497.194C215.235 493.874 223.85 492.173 232.548 492.188C241.246 492.175 249.862 493.878 257.902 497.197C265.942 500.517 273.249 505.389 279.405 511.535C285.56 517.68 290.444 524.979 293.777 533.014C297.111 541.048 298.827 549.661 298.829 558.359C298.829 575.934 291.848 592.789 279.42 605.216C266.993 617.644 250.138 624.625 232.564 624.625C214.989 624.625 198.134 617.644 185.707 605.216C173.279 592.789 166.298 575.934 166.298 558.359Z" fill="#626262"/>
<path d="M806.203 517.578C835.344 517.578 858.875 540.422 859.125 569.344L859.234 709.094H327.469V517.719L806.203 517.578Z" fill="#626262"/>
<path d="M266.235 709.718C284.22 709.718 298.829 695.108 298.829 677.124C298.829 659.14 284.22 644.53 266.235 644.53H172.016C167.737 644.528 163.499 645.37 159.546 647.008C155.592 648.645 152 651.047 148.976 654.074C145.951 657.102 143.553 660.696 141.919 664.651C140.286 668.606 139.448 672.845 139.454 677.124C139.454 695.108 153.954 709.718 172.016 709.718H266.235Z" fill="#626262"/>
<path d="M890.765 847.155V992.89H977.062V530.733C977.068 525.076 975.96 519.472 973.799 514.243C971.639 509.014 968.469 504.262 964.472 500.259C960.474 496.255 955.727 493.079 950.501 490.911C945.275 488.743 939.673 487.626 934.015 487.624C922.564 487.607 911.575 492.139 903.464 500.224C895.354 508.308 890.786 519.282 890.765 530.733V742.843H115.937V443.546C115.937 419.749 95.1874 400.39 71.328 400.39V400.421C47.5468 400.421 28.8124 419.749 28.8124 443.53V992.874H115.922V847.14H890.765V847.155Z" fill="#626262"/>
<path d="M617.312 1.96875C644.922 1.96875 690.14 13.5781 715.297 41.1094L681.39 106.234C673.834 96.4304 664.126 88.4939 653.016 83.0376C641.906 77.5813 629.69 74.7511 617.312 74.7656C591.547 74.7656 568.625 86.7969 553.797 105.594L519.218 42.5469C548.328 13.4219 588.578 1.95312 617.312 1.95312V1.96875ZM607.547 67.5938H626.89V48.2344H646.25V28.9219H626.89V9.57812H607.547V28.9219H588.218V48.2344H607.547V67.5938Z" fill="#626262"/>
<path d="M679.408 159.883C679.408 176.386 672.852 192.214 661.182 203.884C649.512 215.553 633.685 222.109 617.181 222.109C600.678 222.109 584.85 215.553 573.18 203.884C561.511 192.214 554.955 176.386 554.955 159.883C554.955 143.379 561.511 127.552 573.18 115.882C584.85 104.212 600.678 97.6563 617.181 97.6562C633.685 97.6562 649.512 104.212 661.182 115.882C672.852 127.552 679.408 143.379 679.408 159.883Z" fill="#626262"/>
<path d="M557.345 240.234C513.845 240.469 488.642 275.766 482.97 295.703L429.97 469.656H483.61L522.673 336.188H550.47L511.517 469.625H722.564L683.892 336.188H711.673L751.767 469.656H804.61L751.407 295.703C745.751 276.016 721.079 241.391 678.532 240.328L557.345 240.234Z" fill="#626262"/>
<path d="M160.83 280.874C84.4548 280.874 22.3923 218.78 22.3923 142.405C22.3923 66.0146 84.4392 3.90527 160.83 3.90527C237.174 3.90527 299.33 66.0303 299.33 142.405C299.33 218.78 237.158 280.874 160.83 280.874ZM160.783 246.593C218.252 246.593 265.033 199.858 265.033 142.374C265.033 84.9521 218.267 38.1396 160.783 38.1396C103.345 38.1396 56.6423 84.9365 56.6423 142.374C56.6423 199.874 103.345 246.593 160.783 246.593Z" fill="#626262"/>
<path d="M161.532 158.988C159.94 159.719 158.189 160.033 156.443 159.902C154.697 159.771 153.012 159.198 151.548 158.238C150.308 157.44 149.253 156.386 148.455 155.146C147.658 153.906 147.135 152.51 146.923 151.051L146.782 70.5663C146.886 67.8741 148.029 65.3269 149.971 63.4591C151.912 61.5912 154.502 60.5479 157.196 60.5479C159.89 60.5479 162.48 61.5912 164.421 63.4591C166.363 65.3269 167.506 67.8741 167.61 70.5663V133.004L220.985 107.863C223.456 106.846 226.223 106.819 228.713 107.786C231.204 108.753 233.227 110.641 234.363 113.059C235.5 115.477 235.663 118.239 234.819 120.774C233.975 123.309 232.188 125.422 229.829 126.676L161.516 158.973L161.532 158.988Z" fill="#626262"/>
</svg>
