<svg width="1322" height="1092" viewBox="0 0 1322 1092" fill="none" xmlns="http://www.w3.org/2000/svg">
<g clip-path="url(#clip0)">
<path d="M1177.73 1057.87C1166.22 1063.93 1155.26 1065.07 1153.2 1060.37L1034.98 791.58C1032.93 786.9 1040.55 778.157 1052.07 772.054C1063.56 765.985 1074.58 764.839 1076.62 769.552L1194.82 1038.34C1196.86 1043.02 1189.21 1051.8 1177.73 1057.89" fill="#243438"/>
<path d="M1185.75 719.443C1185.75 816.86 1113.77 895.694 1025.08 895.694C936.379 895.694 864.42 816.86 864.42 719.443C864.42 622.026 936.379 543.192 1025.08 543.192C1113.77 543.192 1185.75 622.026 1185.75 719.443Z" fill="#243438"/>
<path d="M1169.43 719.8C1169.43 807.28 1104.77 878.126 1025.09 878.126C945.408 878.126 880.766 807.28 880.766 719.8C880.766 632.289 945.408 561.475 1025.09 561.475C1104.77 561.475 1169.43 632.289 1169.43 719.8Z" fill="#30434A"/>
<path d="M1153.58 719.678C1153.58 797.545 1096.04 860.607 1025.11 860.607C954.199 860.607 896.645 797.537 896.645 719.678C896.645 641.795 954.199 578.741 1025.11 578.741C1096.04 578.741 1153.58 641.795 1153.58 719.678Z" fill="#1E75BB"/>
<path d="M1025.08 843.105C1087.28 843.105 1137.7 787.79 1137.7 719.556C1137.7 651.322 1087.28 596.008 1025.08 596.008C962.89 596.008 912.472 651.322 912.472 719.556C912.472 787.79 962.89 843.105 1025.08 843.105Z" fill="#57C6E9"/>
<path d="M963.22 616.321C947.618 627.553 934.81 642.868 925.951 660.887C917.091 678.905 912.459 699.059 912.472 719.532C912.472 787.754 962.886 843.08 1025.08 843.08C1026.18 843.08 1027.28 842.918 1028.38 842.885C917.916 782.813 945.2 658.078 963.22 616.321Z" fill="#27A8E0"/>
</g>
<path d="M758.847 699.052C747.885 678.785 760.902 658.253 783.169 632.963C818.453 592.958 855.193 501.138 816.398 409.143C816.569 408.614 808.861 393.282 809.033 392.753L794.131 391.96C789.335 391.255 626.275 390.902 462.957 390.902C299.64 390.902 136.579 391.255 131.783 391.96C131.783 391.96 109.345 408.614 109.602 409.143C70.807 501.138 107.547 592.958 142.831 632.963C165.183 658.253 178.115 678.785 167.153 699.052C156.448 718.791 125.789 721.699 125.789 721.699C125.789 721.699 132.383 741.966 149.169 752.892C164.755 763.026 184.024 765.405 197.47 765.758C197.47 765.758 248.683 842.861 386.309 842.861H539.606C677.317 842.861 728.444 765.758 728.444 765.758C741.89 765.405 761.159 763.026 776.746 752.892C793.531 741.966 800.126 721.699 800.126 721.699C800.126 721.699 769.466 718.791 758.847 699.052Z" fill="#AB872F"/>
<path d="M463 842.159V756.57L706.34 736.188L729 764.953C729 764.953 677.671 842.159 539.736 842.159H463Z" fill="url(#paint0_radial)"/>
<path d="M726.967 727.822C689.55 670.442 769.534 649.164 769.534 649.164L769.62 649.251C756.06 667.303 750.053 682.999 758.549 698.609C769.276 718.143 800 721.021 800 721.021C800 721.021 759.15 759.652 726.967 727.822Z" fill="url(#paint1_radial)"/>
<path d="M816.565 409.421C854.484 498.196 819.482 590.835 785.166 630.262C780.448 635.706 760.288 656.78 755.998 673.727C755.998 673.727 673.298 556.853 648.419 489.152C643.444 475.541 638.897 461.58 638.125 447.179C637.524 436.378 638.983 423.646 644.902 414.514C652.108 403.362 812.104 400.025 812.104 400.025C812.104 400.113 816.565 409.421 816.565 409.421Z" fill="url(#paint2_radial)"/>
<path d="M109.435 409.336C71.5163 498.14 106.518 590.809 140.834 630.248C145.552 635.694 165.712 656.775 170.002 673.727C170.002 673.727 252.702 556.815 277.581 489.093C282.556 475.478 287.103 461.512 287.875 447.106C288.476 436.302 287.017 423.566 281.098 414.431C273.892 403.275 265.227 406.262 252.616 406.262C228.681 406.262 124.105 400.025 115.955 400.025C116.041 400.025 109.435 409.336 109.435 409.336Z" fill="url(#paint3_radial)"/>
<path d="M463 842.159V756.57L220.575 736.188L198 764.953C198 764.953 249.136 842.159 386.553 842.159H463Z" fill="url(#paint4_radial)"/>
<path d="M199.033 727.822C236.45 670.442 156.466 649.164 156.466 649.164L156.38 649.251C169.94 667.303 175.947 682.999 167.451 698.609C156.724 718.143 126 721.021 126 721.021C126 721.021 166.85 759.652 199.033 727.822Z" fill="url(#paint5_radial)"/>
<path d="M909.062 1090.41V1062.93C909.062 915.144 683.044 841.953 463.031 842.218C244.39 842.482 17 906.336 17 1062.93V1090.41H909.062Z" fill="url(#paint6_linear)"/>
<path d="M463.03 791.573H385.146V879.473C385.146 919.195 416.883 951.43 455.997 951.43H470.15C509.263 951.43 541 919.195 541 879.473V791.573H463.03Z" fill="#C48E6A"/>
<path d="M415.853 1090.94H167.534V890.659C182.888 884.494 199.099 879.033 215.911 874.277C240.7 867.055 266.861 861.154 293.966 856.574C312.322 853.403 331.107 850.849 350.149 848.823L415.853 1090.94Z" fill="url(#paint7_linear)"/>
<path d="M351.18 1092H225.347L215.912 875.334C240.701 868.112 266.863 862.211 293.968 857.631L351.18 1092Z" fill="url(#paint8_linear)"/>
<path d="M758.526 892.949V1090.59H510.207L575.825 848.823C594.782 850.937 613.566 853.755 631.836 857.102C659.027 862.123 685.274 868.288 710.063 875.862C726.961 880.971 743.173 886.696 758.526 892.949Z" fill="url(#paint9_linear)"/>
<path d="M710.064 876.391L700.714 1091.12H574.882L631.837 857.631C659.027 862.651 685.275 868.816 710.064 876.391Z" fill="url(#paint10_linear)"/>
<path d="M697.454 443.675H228.607C178.085 443.675 136.742 488.946 136.742 544.169C136.742 599.392 178.085 644.663 228.607 644.663H697.368C747.89 644.663 789.234 599.392 789.234 544.169C789.234 488.946 747.976 443.675 697.454 443.675Z" fill="#C48E6A"/>
<path d="M463 95.4443C313.501 95.4443 175 259.314 175 495.123C175 729.7 317.711 845.668 463 845.668C608.289 845.668 751 729.7 751 495.123C751 259.314 612.499 95.4443 463 95.4443Z" fill="#E0BB95"/>
<path d="M329.223 562.139C352.578 562.139 371.511 542.028 371.511 517.22C371.511 492.412 352.578 472.302 329.223 472.302C305.869 472.302 286.936 492.412 286.936 517.22C286.936 542.028 305.869 562.139 329.223 562.139Z" fill="#5D4037"/>
<path d="M596.844 562.139C620.198 562.139 639.131 542.028 639.131 517.22C639.131 492.412 620.198 472.302 596.844 472.302C573.489 472.302 554.556 492.412 554.556 517.22C554.556 542.028 573.489 562.139 596.844 562.139Z" fill="#5D4037"/>
<path d="M391.324 437.157C383.347 426.324 364.991 410.646 329.308 410.646C293.626 410.646 275.184 426.412 267.293 437.157C263.776 441.913 264.634 447.462 267.121 450.809C269.351 453.892 276.042 456.798 283.418 454.244C290.795 451.69 305.205 444.027 329.308 443.851C353.411 444.027 367.821 451.69 375.198 454.244C382.575 456.798 389.265 453.98 391.495 450.809C393.897 447.462 394.84 441.913 391.324 437.157Z" fill="#AB872F"/>
<path d="M658.856 437.157C650.879 426.324 632.523 410.646 596.84 410.646C561.158 410.646 542.716 426.412 534.825 437.157C531.308 441.913 532.166 447.462 534.653 450.809C536.884 453.892 543.574 456.798 550.951 454.244C558.327 451.69 572.738 444.027 596.84 443.851C620.943 444.027 635.353 451.69 642.73 454.244C650.107 456.798 656.797 453.98 659.027 450.809C661.429 447.462 662.373 441.913 658.856 437.157Z" fill="#AB872F"/>
<path d="M496.142 598.623C495.197 598.278 494.339 598.02 493.394 597.934H432.606C431.661 598.02 430.717 598.278 429.858 598.623C424.363 600.862 421.358 606.547 423.934 612.662C426.51 618.777 438.616 635.831 463 635.831C487.384 635.831 499.49 618.691 502.066 612.662C504.642 606.547 501.637 600.862 496.142 598.623Z" fill="#C48E6A"/>
<path d="M534.67 669.059C507.59 685.622 418.598 685.622 391.517 669.059C375.933 659.507 360.008 674.142 366.48 688.689C372.867 702.974 421.323 736.188 463.307 736.188C505.29 736.188 553.15 702.974 559.537 688.689C565.924 674.142 550.255 659.507 534.67 669.059Z" fill="#6D4C41"/>
<path d="M463.033 95.7773C143.434 95.7773 165.05 460.498 165.05 460.498C161.104 531.046 173.884 574.468 180.661 591.995C181.862 595.077 186.064 594.813 186.836 591.642C195.328 556.676 224.234 434.868 221.404 413.642C221.404 413.642 318.759 393.825 411.567 323.629C430.438 309.36 450.938 297.206 472.725 288.31C589.294 240.662 613.654 321.955 613.654 321.955C613.654 321.955 694.454 306.014 718.814 421.216C727.992 464.373 734.168 533.512 739.4 581.866C739.743 585.301 744.289 586.005 745.576 582.835C753.725 563.634 772.166 525.762 773.882 486.744C779.8 356.569 704.747 95.7773 463.033 95.7773Z" fill="#AB872F"/>
<path d="M466.549 69.3545C65.4641 69.3545 95.6569 478.289 95.6569 478.289C95.6569 478.289 200.388 383.167 468.779 383.167C737.169 383.167 829.892 469.481 829.892 469.481C829.892 469.481 867.633 69.3545 466.549 69.3545Z" fill="url(#paint11_radial)"/>
<path d="M554.981 370.133H376.569V78.6031C376.569 54.0301 395.954 34.125 419.885 34.125H511.665C535.596 34.125 554.981 54.0301 554.981 78.6031V370.133Z" fill="url(#paint12_linear)"/>
<path opacity="0.5" d="M318.243 89.6118L377.857 69.3545V274.482C365.763 185.79 348.436 121.671 318.243 89.6118Z" fill="#EDBF00"/>
<path opacity="0.5" d="M614.937 89.6118L555.323 69.3545V274.482C567.417 185.79 584.744 121.671 614.937 89.6118Z" fill="#EDBF00"/>
<path d="M853.564 448.62C851.42 444.921 848.075 442.102 844.386 439.901C689.133 348.126 463.03 351.209 463.03 351.209C463.03 351.209 236.927 348.126 81.6737 439.901C77.8996 442.102 74.6401 444.921 72.4958 448.62C67.9497 456.547 64.1756 471.608 78.9289 493.362C78.9289 493.362 172.853 397.8 463.03 391.811C753.122 397.889 847.131 493.362 847.131 493.362C861.885 471.608 858.111 456.547 853.564 448.62Z" fill="#FFEA00"/>
<defs>
<radialGradient id="paint0_radial" cx="0" cy="0" r="1" gradientUnits="userSpaceOnUse" gradientTransform="translate(587.554 718.682) scale(202.869 102.438)">
<stop offset="0.728" stop-color="#BFA055" stop-opacity="0"/>
<stop offset="1" stop-color="#BFA055"/>
</radialGradient>
<radialGradient id="paint1_radial" cx="0" cy="0" r="1" gradientUnits="userSpaceOnUse" gradientTransform="translate(782.507 688.252) rotate(154.57) scale(59.6867 44.732)">
<stop offset="0.663" stop-color="#BFA055"/>
<stop offset="1" stop-color="#BFA055" stop-opacity="0"/>
</radialGradient>
<radialGradient id="paint2_radial" cx="0" cy="0" r="1" gradientUnits="userSpaceOnUse" gradientTransform="translate(626.604 517.617) rotate(-94.1802) scale(263.795 214.851)">
<stop offset="0.725" stop-color="#BFA055" stop-opacity="0"/>
<stop offset="1" stop-color="#BFA055"/>
</radialGradient>
<radialGradient id="paint3_radial" cx="0" cy="0" r="1" gradientUnits="userSpaceOnUse" gradientTransform="translate(299.424 517.56) rotate(-85.8211) scale(263.879 214.851)">
<stop offset="0.725" stop-color="#BFA055" stop-opacity="0"/>
<stop offset="1" stop-color="#BFA055"/>
</radialGradient>
<radialGradient id="paint4_radial" cx="0" cy="0" r="1" gradientUnits="userSpaceOnUse" gradientTransform="translate(338.931 718.682) rotate(180) scale(202.106 102.438)">
<stop offset="0.728" stop-color="#BFA055" stop-opacity="0"/>
<stop offset="1" stop-color="#BFA055"/>
</radialGradient>
<radialGradient id="paint5_radial" cx="0" cy="0" r="1" gradientUnits="userSpaceOnUse" gradientTransform="translate(143.529 688.262) rotate(25.4299) scale(59.6781 44.7256)">
<stop offset="0.663" stop-color="#BFA055"/>
<stop offset="1" stop-color="#BFA055" stop-opacity="0"/>
</radialGradient>
<linearGradient id="paint6_linear" x1="463.031" y1="842.226" x2="463.031" y2="1210.53" gradientUnits="userSpaceOnUse">
<stop offset="0.003" stop-color="#448AFF"/>
<stop offset="0.404" stop-color="#3B7DFF"/>
<stop offset="1" stop-color="#2962FF"/>
</linearGradient>
<linearGradient id="paint7_linear" x1="291.693" y1="863.638" x2="291.693" y2="1195.85" gradientUnits="userSpaceOnUse">
<stop offset="0.003" stop-color="#FF9100"/>
<stop offset="0.44" stop-color="#FF8400"/>
<stop offset="1" stop-color="#FF6D00"/>
</linearGradient>
<linearGradient id="paint8_linear" x1="283.546" y1="862.863" x2="283.546" y2="1203.81" gradientUnits="userSpaceOnUse">
<stop offset="0.003" stop-color="#FFFF00"/>
<stop offset="0.678" stop-color="#FFF200"/>
<stop offset="1" stop-color="#FFEA00"/>
</linearGradient>
<linearGradient id="paint9_linear" x1="634.367" y1="863.611" x2="634.367" y2="1195.34" gradientUnits="userSpaceOnUse">
<stop offset="0.003" stop-color="#FF9100"/>
<stop offset="0.44" stop-color="#FF8400"/>
<stop offset="1" stop-color="#FF6D00"/>
</linearGradient>
<linearGradient id="paint10_linear" x1="642.473" y1="862.845" x2="642.473" y2="1202.51" gradientUnits="userSpaceOnUse">
<stop offset="0.003" stop-color="#FFFF00"/>
<stop offset="0.678" stop-color="#FFF200"/>
<stop offset="1" stop-color="#FFEA00"/>
</linearGradient>
<radialGradient id="paint11_radial" cx="0" cy="0" r="1" gradientUnits="userSpaceOnUse" gradientTransform="translate(463.032 273.856) scale(297.108 299.157)">
<stop stop-color="#FFFF00"/>
<stop offset="0.325" stop-color="#FFF600"/>
<stop offset="0.854" stop-color="#FFDE00"/>
<stop offset="0.998" stop-color="#FFD600"/>
</radialGradient>
<linearGradient id="paint12_linear" x1="465.792" y1="40.5985" x2="465.792" y2="366.812" gradientUnits="userSpaceOnUse">
<stop stop-color="#FFFF00"/>
<stop offset="0.446" stop-color="#FFF900"/>
<stop offset="1" stop-color="#FFEA00"/>
</linearGradient>
<clipPath id="clip0">
<rect width="474" height="520.033" fill="white" transform="translate(848 543.192)"/>
</clipPath>
</defs>
</svg>
