<svg width="1000" height="1000" viewBox="0 0 1000 1000" fill="none" xmlns="http://www.w3.org/2000/svg">
<path d="M82.8295 780.064C13.4389 780.064 8.07953 705.314 8.07953 705.314V236.721H927.22C927.22 236.721 996.486 233.533 996.486 297.283C996.486 364.314 936.58 360.643 936.58 360.643H691.205C684.921 358.282 678.381 356.672 671.72 355.846L470.97 330.502L249.064 266.549C247.382 266.061 245.621 265.909 243.881 266.102C242.141 266.295 240.456 266.829 238.922 267.674C237.388 268.518 236.036 269.657 234.942 271.024C233.849 272.391 233.035 273.961 232.548 275.643C230.517 282.736 234.517 290.471 241.58 292.533L467.939 357.783C483.564 362.252 496.455 372.58 504.345 386.799C512.205 401.002 514.08 417.377 509.58 432.939C507.386 440.619 503.693 447.788 498.713 454.031C493.732 460.275 487.564 465.469 480.564 469.314C466.579 477.093 450.078 478.998 434.689 474.611C434.595 474.58 434.486 474.58 434.361 474.58L339.158 446.971C289.751 431.486 252.97 447.033 213.939 463.486C183.892 476.174 152.845 489.236 110.673 492.111C105.517 492.439 100.08 492.783 93.7202 492.736C91.9669 492.709 90.2256 493.03 88.5969 493.68C86.9682 494.329 85.4842 495.295 84.2306 496.521C82.9769 497.747 81.9785 499.209 81.2929 500.823C80.6072 502.437 80.2479 504.17 80.2358 505.924C80.142 513.33 86.3295 519.783 93.7202 519.783C150.314 519.752 189.736 503.096 224.501 488.408C261.751 472.689 291.158 460.252 331.33 472.877C331.423 472.908 339.72 475.314 351.345 478.643C337.773 484.854 326.01 494.424 317.168 506.449C308.326 518.474 302.697 532.555 300.814 547.361C298.674 564.363 301.552 581.619 309.092 597.007C316.631 612.395 328.505 625.243 343.251 633.971C333.873 640.309 325.955 648.577 320.027 658.221C314.099 667.864 310.297 678.662 308.876 689.893C303.376 733.424 334.361 775.846 377.892 780.064L82.8139 780.049L82.8295 780.064Z" fill="#B28B67"/>
<path d="M808.969 723.202H930.563V692.655H808.969V723.202ZM854.579 543.952V588.921H808.969V619.515H854.579V663.983H885.126V619.515H930.563V588.921H885.126V543.952H854.579ZM869.829 783.952C795.266 783.952 758.923 723.124 758.923 668.999C758.923 589.405 869.829 413.452 869.829 413.452C869.829 413.452 980.688 589.405 980.688 668.999C980.688 723.14 944.407 783.952 869.829 783.952Z" fill="#D62020"/>
<path d="M721.048 450.617C719.01 466.607 710.709 481.135 697.968 491.011C685.228 500.886 669.089 505.302 653.095 503.289L505.955 484.758C520.242 473.458 530.611 457.95 535.595 440.43C539.345 427.538 540.061 413.953 537.686 400.738C535.311 387.524 529.911 375.038 521.908 364.258L668.345 382.711C684.332 384.75 698.857 393.046 708.736 405.778C718.616 418.51 723.044 434.641 721.048 450.633V450.617Z" fill="#B28B67"/>
<path d="M649.939 591.413C648.955 599.336 646.412 606.985 642.456 613.92C638.5 620.856 633.211 626.939 626.892 631.819C620.59 636.733 613.377 640.349 605.669 642.46C597.961 644.571 589.912 645.133 581.986 644.116L380.345 618.694C364.356 616.654 349.828 608.357 339.948 595.621C330.068 582.885 325.642 566.751 327.642 550.756C328.619 542.836 331.159 535.188 335.115 528.257C339.072 521.326 344.365 515.25 350.689 510.381C356.978 505.455 364.185 501.829 371.889 499.712C379.592 497.596 387.64 497.032 395.564 498.053L597.236 523.491C613.221 525.526 627.746 533.818 637.626 546.548C647.506 559.278 651.934 575.407 649.939 591.397V591.413Z" fill="#B28B67"/>
<path d="M555.858 721.073C554.088 734.901 546.909 747.464 535.895 756.01C524.88 764.556 510.927 768.388 497.093 766.667L381.265 752.057C367.44 750.283 354.883 743.102 346.343 732.087C337.803 721.073 333.976 707.122 335.702 693.292C337.48 679.47 344.662 666.916 355.677 658.379C366.691 649.843 380.64 646.019 394.468 647.745L510.265 662.338C524.09 664.101 536.653 671.273 545.2 682.283C553.746 693.293 557.579 707.242 555.858 721.073Z" fill="#B28B67"/>
</svg>
