<svg width="1000" height="1000" viewBox="0 0 1000 1000" fill="none" xmlns="http://www.w3.org/2000/svg">
<path d="M502.499 805.781C236.64 805.781 84.0616 546.953 57.6553 498.125C81.6397 449.141 221.015 191.406 502.499 191.406C783.983 191.406 923.359 449.062 947.343 498.125C920.937 546.953 768.28 805.781 502.499 805.781Z" fill="#FAFAFA"/>
<path d="M502.501 210C626.017 210 735.626 260.156 828.282 359.141C880.079 414.453 912.111 470.547 925.861 497.188C890.626 559.609 745.782 786.172 502.501 786.172C386.251 786.172 278.829 735.781 183.048 636.406C129.22 580.547 94.22 523.828 79.1418 497.188C92.8137 470.547 124.923 414.375 176.72 359.141C269.376 260.156 378.986 210 502.501 210ZM502.501 171.875C176.251 171.875 36.4075 498.125 36.4075 498.125C36.4075 498.125 194.611 824.375 502.501 824.375C810.392 824.375 968.517 498.125 968.517 498.125C968.517 498.125 828.673 171.875 502.501 171.875Z" fill="#B0BEC5"/>
<path d="M502.501 289.531C713.204 289.531 857.735 418.516 921.719 506.016C929.219 516.25 937.266 467.031 930.469 456.328C869.219 360.547 731.954 199.219 502.579 199.219C273.204 199.219 135.782 360.625 74.5319 456.406C67.6569 467.109 76.8756 509.766 85.5475 500.469C152.266 428.828 291.719 289.531 502.501 289.531Z" fill="#B0BEC5"/>
<path d="M502.499 732.812C645.533 732.812 761.484 616.861 761.484 473.828C761.484 330.795 645.533 214.844 502.499 214.844C359.466 214.844 243.515 330.795 243.515 473.828C243.515 616.861 359.466 732.812 502.499 732.812Z" fill="#9C7A63"/>
<path d="M502.501 287.891C587.423 287.891 661.563 308.828 724.063 339.609C678.673 264.766 596.407 214.844 502.501 214.844C406.563 214.844 322.813 267.109 278.126 344.609C340.704 311.641 415.47 287.891 502.501 287.891Z" fill="#806451"/>
<path d="M502.501 596.562C569.077 596.562 623.048 542.592 623.048 476.016C623.048 409.439 569.077 355.469 502.501 355.469C435.925 355.469 381.954 409.439 381.954 476.016C381.954 542.592 435.925 596.562 502.501 596.562Z" fill="#212121"/>
<path d="M694.22 522.969C727.53 522.969 754.532 495.966 754.532 462.656C754.532 429.347 727.53 402.344 694.22 402.344C660.91 402.344 633.907 429.347 633.907 462.656C633.907 495.966 660.91 522.969 694.22 522.969Z" fill="#D9BAA5"/>
<path d="M56.3298 523.125C52.2673 523.125 48.1267 522.109 44.2985 520C38.4804 516.805 34.1677 511.432 32.3075 505.06C30.4473 498.689 31.1914 491.839 34.3767 486.016C41.0173 473.906 200.627 171.875 502.502 171.875C804.377 171.875 959.299 467.891 965.705 479.766C972.267 491.953 967.814 507.109 955.627 513.75C943.439 520.313 928.283 515.859 921.642 503.672C920.236 501.016 774.142 239.141 502.424 239.141C230.627 239.141 79.6892 507.422 78.2048 510.156C76.0619 514.085 72.8989 517.364 69.0492 519.646C65.1994 521.929 60.8053 523.13 56.3298 523.125Z" fill="#616161"/>
</svg>
