<svg width="1000" height="1000" viewBox="0 0 1000 1000" fill="none" xmlns="http://www.w3.org/2000/svg">
<path d="M797.169 229.735L798.596 231.02H798.709C805.733 237.077 811.482 244.479 815.613 252.796C819.979 261.585 822.439 271.196 822.832 281C822.247 296.541 814.857 309.189 805.33 319.435C795.739 329.751 784.295 337.303 776.16 342.656C751.82 358.156 723.24 365.653 694.425 364.097L692.376 363.987L690.841 365.346C651.863 399.853 616.458 438.195 585.16 479.792L585.016 479.983L584.892 480.186L580.216 487.817L580.211 487.825L461.082 681.425L457.569 682.716L455.282 683.557L454.535 685.877C449.329 702.04 449.274 719.421 454.376 735.617C461.213 758.349 461.139 782.6 454.162 805.289C452.947 809.085 447.886 824.883 437.556 840.541C427.173 856.279 411.985 871.111 390.733 874.327C379.259 875.641 367.637 874.205 356.827 870.138C345.998 866.063 336.297 859.464 328.529 850.889C323.59 845.316 319.136 836.968 314.475 827.077C313.074 824.104 311.653 820.989 310.202 817.807C306.949 810.672 303.544 803.206 299.877 796.284C294.554 786.237 288.331 776.623 280.406 769.862C272.302 762.949 262.408 759.029 250.266 760.56L250.349 761.223L250.145 760.535C239.568 762.499 229.77 763.702 221.471 763.341C213.114 762.978 206.984 761.059 203.014 757.485L202.927 757.407L202.837 757.333C195.201 751.078 188.98 743.272 184.588 734.432C180.223 725.645 177.762 716.037 177.367 706.235C177.952 690.693 185.342 678.043 194.869 667.795C204.469 657.468 215.927 649.911 224.06 644.565C248.013 628.985 276.237 621.28 304.784 622.53L306.641 622.611L308.101 621.458C408.696 542.024 488.772 439.623 541.613 322.846L541.637 322.793L541.659 322.74C551.219 300.245 552.698 275.135 545.843 251.674L545.837 251.654L545.832 251.635C538.985 228.894 539.057 204.631 546.038 181.932C547.253 178.135 552.313 162.337 562.643 146.68C573.025 130.943 588.214 116.11 609.466 112.894C620.94 111.58 632.562 113.016 643.372 117.084C654.2 121.159 663.9 127.757 671.668 136.331C676.608 141.908 681.063 150.259 685.724 160.153C687.124 163.124 688.544 166.238 689.993 169.418C693.248 176.556 696.654 184.025 700.322 190.95C705.644 200.997 711.868 210.612 719.792 217.373C724.969 221.789 730.876 224.983 737.632 226.316L734.337 229.61L750.178 226.673C760.732 224.716 770.506 223.523 778.78 223.889C787.112 224.257 793.219 226.175 797.169 229.735Z" fill="#F8F8F8" stroke="black" stroke-width="10"/>
<path d="M312.412 825.117C313.229 825.556 314.226 826.019 315.393 826.43C318.949 827.683 324.033 828.436 330.279 826.658C342.703 823.121 359.052 809.794 377.339 772.521L377.34 772.521C457.138 609.804 621.963 396.929 720.327 294.639L720.328 294.639C741.413 272.707 748.169 253.825 749.505 240.207C750.171 233.419 749.482 228.005 748.607 224.251C748.169 222.375 747.685 220.914 747.302 219.905C747.299 219.899 747.297 219.894 747.295 219.888C747.416 219.791 747.552 219.688 747.703 219.58C748.485 219.02 749.592 218.388 751.006 217.786C753.829 216.585 757.752 215.555 762.497 215.408C771.924 215.117 784.742 218.31 798.7 230.875L798.743 230.914L798.788 230.951C806.698 237.431 813.142 245.518 817.691 254.675C822.228 263.806 824.779 273.793 825.177 283.98C824.588 300.361 816.8 313.588 807.003 324.126C797.175 334.698 785.48 342.402 777.362 347.738C752.583 363.527 723.485 371.168 694.146 369.59L693.15 369.537L692.39 370.184C633.336 420.507 522.824 547.752 454.928 687.872L457.178 688.962L454.928 687.872C453.81 690.18 453.449 693.193 453.465 696.433C453.481 699.733 453.896 703.563 454.552 707.69C455.864 715.941 458.194 725.687 460.499 735.277L460.643 735.876C462.913 745.316 465.139 754.574 466.417 762.32C467.069 766.273 467.459 769.75 467.495 772.603C467.531 775.528 467.186 777.483 466.623 778.607L466.622 778.608C462.058 787.743 458.296 799.098 454.585 810.301C452.948 815.241 451.321 820.152 449.64 824.83C446.856 832.573 443.91 839.742 440.493 845.657C437.066 851.587 433.279 856.055 428.91 858.627L428.91 858.627C385.331 884.294 353.411 879.477 334.095 866.402C324.354 859.808 317.703 851.049 314.279 842.775C311.368 835.739 310.928 829.447 312.412 825.117Z" fill="#D0CFCE" stroke="black" stroke-width="5"/>
<path d="M658.379 231.498C673.615 258.164 771.81 203.956 800.602 229.887C808.79 236.591 815.46 244.959 820.17 254.437C824.879 263.914 827.522 274.283 827.921 284.859C826.727 319.303 795.171 340.067 778.963 350.72C753.737 366.798 724.111 374.579 694.24 372.97C593.157 459.081 499.824 613.303 464.518 677.331C455.024 696.132 453.134 717.868 459.24 738.025C466.375 761.724 466.298 787.01 459.018 810.664C456.56 818.345 438.115 876.178 391.477 883.164C379.184 884.585 366.73 883.051 355.15 878.691C343.569 874.331 333.196 867.27 324.893 858.095C302.99 833.414 293.171 764.067 250.977 769.387" stroke="black" stroke-width="0.0277778" stroke-linecap="round" stroke-linejoin="round"/>
<path d="M341.905 763.508C326.669 736.841 228.461 791.049 199.683 765.119C191.495 758.414 184.825 750.046 180.115 740.569C175.405 731.092 172.763 720.722 172.363 710.147C173.544 675.702 205.113 654.938 221.322 644.286C246.151 628.131 275.409 620.143 305.002 621.438C404.964 542.498 484.537 440.736 537.044 324.688C546.151 303.256 547.559 279.333 541.03 256.98C533.895 233.281 533.973 207.996 541.252 184.341C543.711 176.674 562.155 118.827 608.794 111.841C621.086 110.421 633.54 111.954 645.121 116.315C656.701 120.675 667.074 127.736 675.377 136.911C697.28 161.591 707.099 230.938 749.294 225.619" stroke="black" stroke-width="0.0277778" stroke-linecap="round" stroke-linejoin="round"/>
</svg>
