<svg width="1000" height="1000" viewBox="0 0 1000 1000" fill="none" xmlns="http://www.w3.org/2000/svg">
<path d="M366.473 239.339C366.473 239.339 409.723 194.227 500.001 194.227C590.279 194.227 637.64 241.227 637.64 241.227L642.807 245.005C642.807 245.005 695.751 145.172 657.168 60.033C627.585 40.4496 573.918 13.6719 500.001 13.6719C429.057 13.6719 376.362 38.4774 346.112 57.8108C304.251 143.033 360.251 242.839 360.251 242.839L366.473 239.339Z" fill="#FF33BA"/>
<path d="M685.694 82.908L683.306 80.6024C675.15 73.2211 666.408 66.5139 657.167 60.5469C658.778 68.8247 661.528 80.7969 663.222 94.908C668.167 135.825 665.556 184.575 637.639 241.714C630.972 255.352 623.306 269.325 613.472 283.936C596.583 308.991 554.167 362.769 503.056 425.741C466.16 471.111 429.039 516.296 391.694 561.297C300.639 671.102 216.778 770.325 215.111 772.297C213.432 774.259 212.334 776.65 211.942 779.202C211.549 781.755 211.877 784.366 212.889 786.741L296.222 981.186C297.303 983.679 299.087 985.804 301.357 987.299C303.626 988.793 306.282 989.594 309 989.602C311.231 989.607 313.43 989.072 315.408 988.042C317.387 987.011 319.086 985.517 320.361 983.686C321.806 981.63 412.167 851.714 502.833 721.269L614.222 560.964C654.917 502.352 684.111 460.297 686.972 456.019C729.139 393.214 776.889 328.964 776.889 260.408C776.889 191.602 745.361 130.214 685.694 82.908Z" fill="#FF00A8"/>
<path d="M368.168 589.972L478.307 756.972L629.64 539.194L519.112 406.25C513.835 412.778 375.918 580.639 368.168 589.972Z" fill="#FF33BA"/>
<path d="M318.026 80.9549L320.415 78.6493C321.387 77.7049 330.637 69.1215 346.554 58.5938C344.943 66.8715 342.193 78.8438 340.498 92.9549C335.554 133.872 338.165 182.622 366.082 239.76C372.748 253.399 380.415 267.372 390.248 281.983C407.137 307.038 449.554 360.816 500.665 423.788C537.561 469.158 574.682 514.343 612.026 559.344C703.082 669.149 786.943 768.372 788.609 770.344C790.27 772.321 791.352 774.72 791.734 777.274C792.117 779.828 791.785 782.439 790.776 784.816L707.443 979.26C706.362 981.754 704.578 983.878 702.308 985.373C700.039 986.868 697.383 987.669 694.665 987.677C692.434 987.682 690.235 987.147 688.257 986.116C686.278 985.086 684.579 983.591 683.304 981.76C681.86 979.705 591.498 849.788 500.832 719.344L389.443 559.038C348.748 500.427 319.554 458.372 316.693 454.094C274.526 391.288 226.776 327.038 226.776 258.483C226.832 189.677 258.359 128.26 318.026 80.9549Z" fill="#FF00A8"/>
</svg>
