<svg width="1117" height="1040" viewBox="0 0 1117 1040" fill="none" xmlns="http://www.w3.org/2000/svg">
<g clip-path="url(#clip0)">
<path d="M558.5 195C606.695 195 645.766 158.623 645.766 113.75C645.766 68.8769 606.695 32.5 558.5 32.5C510.305 32.5 471.234 68.8769 471.234 113.75C471.234 158.623 510.305 195 558.5 195Z" stroke="#00AEEF" stroke-width="34" stroke-miterlimit="10"/>
<path d="M434.801 600.437L368.479 950.219C367.287 956.528 367.442 962.994 368.935 969.247C370.428 975.5 373.23 981.418 377.181 986.662C381.132 991.906 386.154 996.374 391.96 999.81C397.767 1003.25 404.244 1005.58 411.021 1006.69C417.772 1007.81 424.695 1007.67 431.387 1006.28C438.08 1004.88 444.41 1002.27 450.01 998.588C455.61 994.904 460.37 990.222 464.013 984.813C467.656 979.404 470.111 973.376 471.234 967.078L517.049 723.531V723.938C517.049 723.938 528.393 657.922 555.228 657.922H561.991C589.261 657.922 600.169 723.938 600.169 723.938V723.734L645.984 967.281C648.414 979.968 656.158 991.237 667.511 998.608C678.865 1005.98 692.898 1008.85 706.524 1006.59C720.151 1004.32 732.253 997.113 740.17 986.543C748.087 975.972 751.169 962.906 748.739 950.219L682.417 600.437L671.727 540.109C665.4 503.344 662.564 443.422 672.818 418.844C681.545 397.719 703.645 390 723.432 390H925.016C938.902 390 952.22 384.864 962.039 375.721C971.859 366.579 977.375 354.179 977.375 341.25C977.375 328.321 971.859 315.921 962.039 306.779C952.22 297.636 938.902 292.5 925.016 292.5H191.984C178.098 292.5 164.78 297.636 154.961 306.779C145.141 315.921 139.625 328.321 139.625 341.25C139.625 354.179 145.141 366.579 154.961 375.721C164.78 384.864 178.098 390 191.984 390H393.786C413.923 390 435.674 397.719 444.4 418.844C454.654 443.422 451.818 503.344 445.491 540.109L434.801 600.437Z" stroke="#00AEEF" stroke-width="29" stroke-miterlimit="10"/>
<path d="M1048.46 912.297L999.297 788.064C1022.42 771.732 1040.58 749.333 1051.78 723.338C1085.72 644.943 1047.18 547.625 968.788 513.688C950.151 505.617 930.106 501.296 909.799 500.972C889.492 500.649 869.32 504.329 850.435 511.803C831.55 519.277 814.323 530.398 799.737 544.532C785.152 558.665 773.493 575.533 765.427 594.172C731.5 672.544 770.025 769.885 848.397 803.812C873.508 814.709 901.073 818.705 928.245 815.386L977.653 940.322C979.982 946.184 984.541 950.884 990.33 953.39C996.118 955.896 1002.66 956.004 1008.53 953.69L1039.53 941.421C1051.73 936.594 1053.29 924.493 1048.46 912.297ZM809.11 613.083C814.693 600.178 822.763 588.5 832.859 578.715C842.956 568.93 854.881 561.23 867.954 556.054C881.027 550.879 894.991 548.329 909.05 548.551C923.108 548.773 936.985 551.762 949.888 557.348C1004.17 580.847 1031.61 650.123 1008.1 704.428C996.811 730.484 975.638 750.991 949.234 761.441C922.831 771.891 893.359 771.427 867.297 760.152C813.025 736.631 785.621 667.342 809.11 613.083Z" fill="#3B7DFF"/>
</g>
<defs>
<clipPath id="clip0">
<rect width="1117" height="1040" fill="white"/>
</clipPath>
</defs>
</svg>
