<svg width="1000" height="1000" viewBox="0 0 1000 1000" fill="none" xmlns="http://www.w3.org/2000/svg">
<g clip-path="url(#clip0)">
<path fill-rule="evenodd" clip-rule="evenodd" d="M810.824 302.977C810.969 291.551 806.829 280.54 799.316 272.364C791.803 264.189 781.531 259.519 770.761 259.382L378.201 254.398C371.021 254.307 364.173 251.194 359.164 245.743C354.156 240.293 351.396 232.952 351.493 225.335C351.589 217.718 354.535 210.449 359.68 205.128C364.826 199.806 371.75 196.868 378.93 196.959L427.121 197.571L417.023 139.823C415.785 132.753 412.091 126.437 406.67 122.123C401.25 117.81 394.498 115.814 387.75 116.529L219.374 134.211C206.456 135.576 194.029 140.206 183.136 147.711L65.6766 228.542C61.9316 231.115 58.8423 234.629 56.6829 238.771C54.5236 242.912 53.361 247.554 53.2987 252.283L48.6423 619.029C48.5796 624.091 49.7794 629.079 52.12 633.487C54.4606 637.895 57.8589 641.567 61.9707 644.131L193.178 725.936C209.536 736.14 227.739 742.576 246.606 744.826L393.414 762.315C400.934 763.214 408.549 762.43 415.77 760.014C422.991 757.599 429.656 753.606 435.337 748.292C441.017 742.978 445.586 736.462 448.749 729.164C451.912 721.866 453.599 713.948 453.701 705.92L453.951 686.219L399.805 685.531C392.625 685.44 385.777 682.327 380.768 676.876C375.759 671.426 373 664.085 373.096 656.468C373.193 648.851 376.138 641.583 381.284 636.261C386.429 630.94 393.354 628.001 400.534 628.093L473.415 629.018C478.293 625.446 483.038 621.673 487.639 617.709C499.796 607.12 508.645 596.835 511.276 590.089C514.074 583.001 514.973 567.617 513.904 549.45C513.77 547.416 513.616 545.384 513.44 543.354L428.701 542.278C421.521 542.187 414.673 539.074 409.664 533.624C404.656 528.173 401.896 520.832 401.993 513.215C402.089 505.599 405.034 498.33 410.18 493.008C415.326 487.687 422.25 484.749 429.43 484.84L538.481 486.224C547.523 486.339 553.262 482.218 555.592 477.824C560.147 469.861 563.578 461.233 565.773 452.217C567.799 441.96 568.304 423.525 567.83 405.366L567.677 400.423L430.524 398.682C423.344 398.591 416.496 395.478 411.487 390.027C406.479 384.577 403.719 377.236 403.816 369.619C403.913 362.002 406.858 354.733 412.003 349.412C417.149 344.09 424.073 341.152 431.254 341.243L769.667 345.54C780.437 345.677 790.824 341.269 798.543 333.287C806.261 325.305 810.679 314.402 810.824 302.977ZM621.877 401.111L768.938 402.978C794.069 403.298 818.305 393.013 836.314 374.388C854.324 355.763 864.631 330.323 864.97 303.664C865.308 277.005 855.65 251.311 838.119 232.235C820.588 213.159 796.621 202.262 771.49 201.943L482.35 198.272L470.229 129.238C466.516 108.05 455.449 89.1197 439.211 76.1832C422.974 63.2467 402.745 57.244 382.519 59.3598L214.089 77.0408C192.558 79.3163 171.847 87.0316 153.692 99.5404L36.2323 180.372C25.0072 188.098 15.7495 198.641 9.28115 211.066C2.81272 223.491 -0.666433 237.413 -0.847488 251.596L-5.50382 618.342C-5.69199 633.528 -2.09285 648.492 4.92904 661.716C11.9509 674.941 22.1459 685.956 34.4812 693.646L165.635 775.451C188.56 789.753 214.076 798.768 240.52 801.909L387.328 819.399C402.363 821.187 417.588 819.613 432.023 814.778C446.458 809.943 459.782 801.955 471.137 791.328C482.491 780.701 491.625 767.672 497.948 753.08C504.27 738.488 507.643 722.657 507.847 706.608L508.272 673.178C512.899 669.648 517.425 665.97 521.842 662.148C534.381 651.335 552.969 633.245 561.252 612.094C569.423 591.287 569.017 563.592 567.945 545.655L567.391 538.065C582.225 532.137 594.66 520.921 602.561 506.34C609.912 493.216 615.351 478.992 618.694 464.149C622.277 446.385 622.373 421.741 621.95 403.87L621.877 401.111Z" fill="#626262"/>
<path d="M758.094 544.634L847.734 412.657C865.251 426.072 869.25 451.979 856.611 470.588L776.616 588.339" fill="#C2C2C2"/>
<path d="M758.094 544.634L847.734 412.657C865.251 426.072 869.25 451.979 856.611 470.588L776.616 588.339" stroke="#C2C2C2" stroke-width="0.0390625" stroke-miterlimit="10"/>
<path d="M728.584 659.635C711.066 646.22 707.067 620.313 719.707 601.705L731.684 584.074L750.237 627.779L687.545 719.81" fill="#C2C2C2"/>
<path d="M728.584 659.635C711.066 646.22 707.067 620.313 719.707 601.705L731.684 584.074L750.237 627.779L687.545 719.81" stroke="#C2C2C2" stroke-width="0.0390625" stroke-miterlimit="10"/>
<path d="M715.366 585.648L758.491 647.246" stroke="#999999" stroke-width="0.03125" stroke-miterlimit="10"/>
<path d="M826.962 705.822L785.534 648.824L826.962 705.822Z" fill="#C2C2C2"/>
<path d="M826.962 705.822L785.534 648.824" stroke="#C2C2C2" stroke-width="0.0390625" stroke-miterlimit="10"/>
<path d="M782.344 659.864C799.757 646.315 803.556 620.377 790.774 601.867L661.293 414.384C643.88 427.934 640.081 453.871 652.863 472.381L820.775 712.57" fill="#C2C2C2"/>
<path d="M782.344 659.864C799.757 646.315 803.556 620.377 790.774 601.867L661.293 414.384C643.88 427.934 640.081 453.871 652.863 472.381L820.775 712.57" stroke="#C2C2C2" stroke-width="0.0390625" stroke-miterlimit="10"/>
<path d="M755.91 578.4C751.114 578.418 747.241 582.558 747.261 587.646C747.28 592.734 751.185 596.843 755.981 596.825C760.778 596.806 764.65 592.666 764.631 587.579C764.611 582.491 760.707 578.381 755.91 578.4Z" fill="#2F2F2F"/>
<path d="M693.806 699.612L734.792 642.296L693.806 699.612Z" fill="#C2C2C2"/>
<path d="M693.806 699.612L734.792 642.296" stroke="#C2C2C2" stroke-width="0.0390625" stroke-miterlimit="10"/>
<path d="M677.932 692.948L698.062 668.763C698.684 668.019 699.453 667.43 700.315 667.04C701.178 666.649 702.111 666.466 703.048 666.504C703.985 666.543 704.902 666.801 705.734 667.26C706.566 667.72 707.291 668.37 707.858 669.162L720.096 686.296L703.381 716.385L677.932 692.948Z" fill="#DD5322"/>
<path d="M835.215 692.342L815.026 668.447C814.392 667.695 813.607 667.103 812.728 666.717C811.849 666.33 810.9 666.158 809.951 666.214C809.001 666.269 808.076 666.55 807.243 667.036C806.41 667.523 805.69 668.202 805.139 669.023L793.194 686.822L809.948 715.975L835.215 692.342Z" fill="#DD5322"/>
<path d="M853.684 681.357C876.569 681.269 898.901 693.758 911.223 716.203C929.61 749.654 918.904 792.732 887.408 812.186C855.881 831.674 815.295 820.299 796.94 786.848C778.584 753.397 789.259 710.353 820.787 690.899C831.127 684.47 842.495 681.401 853.684 681.357ZM854.299 791.468C860.67 791.444 867.13 789.704 873.043 786.05C890.973 774.986 897.06 750.486 886.621 731.462C876.183 712.438 853.082 705.971 835.152 717.035C817.221 728.099 811.135 752.599 821.574 771.623C828.565 784.406 841.271 791.518 854.299 791.468Z" fill="#DD5322"/>
<path d="M654.244 682.164C665.465 682.12 676.824 685.102 687.246 691.417C718.923 710.627 729.961 753.621 711.832 787.179C693.736 820.771 653.207 832.459 621.562 813.215C589.885 794.005 578.847 751.011 596.975 717.453C609.092 694.946 631.358 682.252 654.244 682.164ZM654.479 792.276C667.506 792.226 680.158 785.015 687.05 772.212C697.342 753.109 691.066 728.656 673.051 717.731C655.036 706.806 631.986 713.451 621.694 732.555C611.403 751.658 617.678 776.111 635.693 787.036C641.423 790.477 647.896 792.283 654.479 792.276Z" fill="#DD5322"/>
</g>
<defs>
<clipPath id="clip0">
<rect width="1000" height="1000" fill="white"/>
</clipPath>
</defs>
</svg>
