<svg width="1000" height="1000" viewBox="0 0 1000 1000" fill="none" xmlns="http://www.w3.org/2000/svg">
<path d="M529.682 556.036C525.241 553.613 520.342 552.144 515.301 551.723C510.259 551.302 505.186 551.939 500.404 553.591L500.418 553.563C476.307 556.619 470.696 516.994 458.196 502.883C453.451 497.643 447.524 493.612 440.907 491.124C434.291 488.636 427.176 487.763 420.154 488.577C393.501 492.563 382.974 525.605 381.571 529.994C377.408 543.507 377.359 557.953 381.432 571.494C385.182 584.272 384.376 597.924 379.168 610.174C349.164 676.472 303.698 734.607 246.585 779.702C229.678 778.964 212.964 783.529 198.779 792.758C189.515 798.841 171.487 810.702 170.807 830.397C171.265 842.605 176.946 854.036 186.404 861.786C190.859 864.213 195.772 865.683 200.828 866.101C205.884 866.52 210.972 865.878 215.765 864.216L215.668 864.258C239.779 861.202 245.39 900.827 257.89 914.938C262.637 920.179 268.567 924.211 275.186 926.699C281.805 929.187 288.922 930.06 295.946 929.244C322.585 925.258 333.126 892.216 334.515 887.827C338.678 874.314 338.727 859.868 334.654 846.327C331.911 837.637 331.935 828.309 334.724 819.633L337.654 818.549L406.251 707.091L408.918 702.73C426.688 679.119 446.789 657.356 468.918 637.772C485.979 638.688 502.898 634.244 517.307 625.063C526.571 618.966 544.612 607.105 545.279 587.424C545.05 581.386 543.541 575.466 540.853 570.054C538.164 564.643 534.356 559.865 529.682 556.036Z" fill="white"/>
<path d="M439.014 468.75L464.848 480.653L498.181 522.931L512.681 531.056L538.042 536.208" stroke="#FFA7C0" stroke-width="0.0416667" stroke-miterlimit="10" stroke-linecap="round"/>
<path d="M250.319 894.552C242.819 906.455 267.666 946.775 318.18 917.011C329.375 910.427 332.861 885.552 340.291 870.705C344.111 863.066 329.653 827.025 333.611 818.844C367.468 750.861 413.303 689.538 468.916 637.816C485.977 638.734 502.897 634.29 517.305 625.108C526.569 619.025 544.611 607.163 545.277 587.483C545.049 581.445 543.54 575.524 540.851 570.113C538.162 564.702 534.354 559.923 529.68 556.094C513.222 541.275 498.986 548.191 497.68 550.594C497.68 550.594 506.639 567.913 482.916 592.58C426.666 651.094 332.389 772.844 286.708 865.969C265.93 908.33 250.319 894.552 250.319 894.552Z" fill="#D0CFCE"/>
<path d="M778.846 138.082C774.405 135.66 769.507 134.191 764.466 133.77C759.424 133.349 754.35 133.985 749.569 135.638L749.583 135.61C725.471 138.652 719.86 99.0266 707.36 84.9155C702.614 79.6739 696.685 75.6412 690.065 73.153C683.446 70.6648 676.329 69.793 669.305 70.6099C642.666 74.5961 632.138 107.652 630.735 112.027C626.572 125.54 626.524 139.986 630.596 153.527C634.346 166.304 633.527 179.971 628.333 192.207C598.331 258.51 552.865 316.65 495.749 361.749C478.843 361.011 462.128 365.575 447.944 374.804C438.68 380.888 420.652 392.749 419.971 412.443C420.43 424.652 426.11 436.082 435.569 443.832C440.024 446.259 444.937 447.729 449.993 448.148C455.049 448.566 460.136 447.924 464.93 446.263L464.833 446.304C488.944 443.249 494.555 482.874 507.055 496.985C511.801 502.227 517.731 506.259 524.35 508.747C530.969 511.236 538.086 512.107 545.11 511.29C571.749 507.304 582.291 474.263 583.68 469.874C587.843 456.361 587.891 441.914 583.819 428.374C581.075 419.683 581.099 410.355 583.888 401.679L586.833 400.596L655.416 289.138L658.083 284.777C675.852 261.166 695.954 239.403 718.083 219.818C735.143 220.736 752.063 216.292 766.471 207.11C775.735 201.013 793.777 189.152 794.444 169.471C794.215 163.433 792.706 157.512 790.017 152.101C787.328 146.69 783.521 141.911 778.846 138.082Z" fill="white"/>
<path d="M499.488 476.584C491.988 488.486 516.835 528.806 567.349 499.042C578.557 492.445 582.029 467.584 589.46 452.736C593.279 445.098 578.821 409.056 582.793 400.875C616.646 332.893 662.476 271.57 718.085 219.848C735.145 220.766 752.066 216.322 766.474 207.139C775.738 201.056 793.779 189.195 794.446 169.514C794.217 163.476 792.708 157.555 790.019 152.144C787.33 146.733 783.523 141.955 778.849 138.125C762.404 123.306 748.154 130.223 746.862 132.625C746.862 132.625 755.807 149.945 732.085 174.611C675.835 233.125 581.557 354.861 535.876 448C515.099 490.361 499.488 476.584 499.488 476.584Z" fill="#D0CFCE"/>
<g filter="url(#filter0_d)">
<path d="M697.586 137.863C706.295 153.099 762.392 122.127 778.85 136.946C783.526 140.777 787.335 145.557 790.024 150.971C792.712 156.385 794.22 162.308 794.447 168.349C793.767 188.029 775.739 199.877 766.475 205.988C752.065 215.165 735.145 219.604 718.086 218.682C660.322 267.891 607.003 355.988 586.836 392.571C581.407 403.312 580.323 415.732 583.808 427.252C587.886 440.791 587.842 455.237 583.683 468.752C582.295 473.141 571.739 506.182 545.1 510.168C538.078 510.983 530.963 510.11 524.347 507.622C517.731 505.134 511.803 501.102 507.058 495.863C494.558 481.738 488.947 442.127 464.836 445.168" stroke="black" stroke-width="15" stroke-linecap="round" stroke-linejoin="round"/>
<path d="M516.836 442.898C508.128 427.662 452.031 458.634 435.586 443.815C430.91 439.987 427.099 435.209 424.408 429.798C421.717 424.386 420.206 418.465 419.975 412.426C420.656 392.731 438.684 380.884 447.947 374.787C462.132 365.557 478.846 360.992 495.753 361.731C552.867 316.636 598.333 258.501 628.336 192.204C633.539 179.96 634.344 166.293 630.614 153.523C626.542 139.982 626.59 125.536 630.753 112.023C632.142 107.634 642.684 74.5925 669.323 70.6064C676.345 69.7946 683.461 70.6703 690.077 73.1608C696.693 75.6513 702.62 79.6847 707.364 84.9259C719.864 99.037 725.489 138.648 749.586 135.62" stroke="black" stroke-width="15" stroke-linecap="round" stroke-linejoin="round"/>
<path d="M448.418 555.831C457.126 571.068 513.223 540.095 529.682 554.915C534.358 558.746 538.166 563.526 540.855 568.94C543.544 574.354 545.052 580.277 545.279 586.318C544.598 605.998 526.57 617.845 517.307 623.956C502.897 633.134 485.977 637.572 468.918 636.651C411.154 685.859 357.834 773.956 337.668 810.54C332.238 821.281 331.154 833.701 334.64 845.22C338.717 858.76 338.674 873.206 334.515 886.72C333.126 891.109 322.57 924.151 295.932 928.137C288.91 928.952 281.795 928.079 275.179 925.591C268.562 923.102 262.635 919.071 257.89 913.831C245.39 899.72 239.779 860.095 215.668 863.137" stroke="black" stroke-width="15" stroke-linecap="round" stroke-linejoin="round"/>
<path d="M267.668 860.869C258.96 845.633 202.862 876.605 186.418 861.786C181.742 857.957 177.932 853.179 175.241 847.768C172.55 842.357 171.038 836.436 170.807 830.397C171.487 810.702 189.515 798.855 198.779 792.758C212.964 783.529 229.678 778.964 246.585 779.702C303.695 734.601 349.156 676.461 379.154 610.161C384.354 597.921 385.159 584.259 381.432 571.494C377.359 557.953 377.408 543.507 381.571 529.994C382.96 525.605 393.515 492.563 420.154 488.577C427.176 487.763 434.291 488.636 440.907 491.124C447.524 493.612 453.451 497.643 458.196 502.883C470.696 516.994 476.321 556.619 500.418 553.577" stroke="black" stroke-width="15" stroke-linecap="round" stroke-linejoin="round"/>
<path d="M388.96 370.806L348.071 323.583L386.557 309.319L335.182 250" stroke="black" stroke-width="15" stroke-linecap="round" stroke-linejoin="round"/>
<path d="M340.57 484.375L278.154 486.861L294.084 524.694L215.668 527.819" stroke="black" stroke-width="15" stroke-linecap="round" stroke-linejoin="round"/>
<path d="M356.403 422.847L302.862 390.681L295.417 431.042L228.153 390.625" stroke="black" stroke-width="15" stroke-linecap="round" stroke-linejoin="round"/>
</g>
<path d="M388.96 370.806L348.071 323.583L386.557 309.319L335.182 250" stroke="#D22F27" stroke-width="0.0277778" stroke-linecap="round" stroke-linejoin="round"/>
<path d="M340.57 488.281L278.154 490.767L294.084 528.601L215.668 531.726" stroke="#D22F27" stroke-width="0.0277778" stroke-linecap="round" stroke-linejoin="round"/>
<path d="M356.403 426.753L302.862 394.587L295.417 434.948L228.153 394.531" stroke="#D22F27" stroke-width="0.0277778" stroke-linecap="round" stroke-linejoin="round"/>
<g clip-path="url(#clip0)">
<path d="M588.618 608.331L570.873 562.555C570.761 562.26 570.706 561.968 570.697 561.7L570.197 548.691C570.083 545.602 574.685 545.161 575.853 548.129L598.212 605.828L588.618 608.331Z" fill="url(#paint0_linear)"/>
<path opacity="0.2" d="M574.223 554.174L593.285 603.311L590.895 603.934L574.508 561.724L574.223 554.174ZM570.452 547.451C570.271 547.806 570.182 548.209 570.198 548.691L570.698 561.701C570.719 562.002 570.774 562.293 570.874 562.555L588.642 608.343L598.236 605.841L575.843 548.15C574.871 545.598 571.424 545.549 570.452 547.451Z" fill="#424242"/>
<path d="M699.131 844.411L675.164 850.662L697.619 908.516L721.574 902.233L699.131 844.411Z" fill="url(#paint1_linear)"/>
<path d="M597.627 596.254L583.243 600.024C580.583 600.72 579.248 603.332 580.243 605.895L598.244 652.54L622.222 646.268L604.244 599.635C603.238 597.093 600.277 595.579 597.627 596.254Z" fill="url(#paint2_linear)"/>
<path opacity="0.2" d="M588.324 606.336L597.894 603.822L612.313 641.206L602.743 643.72L588.324 606.336ZM580.376 602.249C579.831 603.314 579.75 604.616 580.235 605.892L598.236 652.537L622.215 646.265L604.237 599.633C603.242 597.069 600.304 595.567 597.643 596.263L583.259 600.033C581.917 600.375 580.91 601.204 580.376 602.249Z" fill="#424242"/>
<path opacity="0.2" d="M677.421 836.43L686.992 833.916L711.5 897.115L701.906 899.617L677.421 836.43ZM667.52 831.37L697.411 908.414L721.389 902.142L691.498 825.098L667.52 831.37Z" fill="#424242"/>
<path d="M718.464 834.215C719.471 836.811 718.149 839.456 715.489 840.152L657.962 855.209C655.301 855.905 652.351 854.371 651.344 851.774L617.301 764.071L684.411 746.532L718.464 834.215Z" fill="url(#paint3_linear)"/>
<path d="M616.922 763.882L568.778 639.828C567.771 637.231 569.093 634.587 571.754 633.891L629.27 618.854C631.93 618.158 634.881 619.693 635.888 622.289L684.042 746.322L616.922 763.882Z" fill="url(#paint4_linear)"/>
<path d="M728.845 876.098L670.393 891.368C667.733 892.064 666.622 895.265 667.889 898.495L672.565 910.582C673.822 913.833 676.995 915.902 679.632 915.194L738.118 899.915C740.778 899.22 741.889 896.019 740.622 892.789L735.946 880.702C734.679 877.472 731.506 875.402 728.845 876.098Z" fill="url(#paint5_linear)"/>
<path opacity="0.3" d="M666.897 761.275L699.175 844.439L675.208 850.69L642.919 767.547L620.892 773.313L617.299 764.072L684.419 746.513L688.012 755.753L666.897 761.275Z" fill="#C5CAE9"/>
<path opacity="0.2" d="M675.496 897.692L729.169 883.668L733.025 893.65L679.363 907.652L675.496 897.692ZM667.917 893.397C667.223 894.755 667.148 896.614 667.882 898.491L672.558 910.578C673.814 913.829 676.987 915.898 679.625 915.191L738.111 899.912C739.226 899.612 740.066 898.882 740.579 897.879C741.273 896.521 741.348 894.662 740.615 892.785L735.938 880.698C734.682 877.447 731.509 875.378 728.872 876.085L670.409 891.376C669.27 891.664 668.43 892.394 667.917 893.397Z" fill="#424242"/>
<path opacity="0.7" d="M642.089 732.575L608.484 741.358L610.286 745.995L643.879 737.18L642.089 732.575Z" fill="#EEEEEE"/>
<path opacity="0.7" d="M618.174 724.049L603.733 727.816L605.512 732.44L619.953 728.674L618.174 724.049Z" fill="#EEEEEE"/>
<path opacity="0.7" d="M630.292 704.286L596.676 713.09L598.466 717.694L632.072 708.911L630.292 704.286Z" fill="#EEEEEE"/>
<path opacity="0.7" d="M606.349 695.757L591.931 699.536L593.721 704.14L608.162 700.373L606.349 695.757Z" fill="#EEEEEE"/>
<path opacity="0.7" d="M620.796 677.189L587.18 685.993L588.97 690.597L622.586 681.793L620.796 677.189Z" fill="#EEEEEE"/>
<path opacity="0.7" d="M596.848 668.667L582.43 672.446L584.22 677.05L598.638 673.271L596.848 668.667Z" fill="#EEEEEE"/>
<path opacity="0.7" d="M608.964 648.907L575.371 657.723L577.161 662.327L610.778 653.523L608.964 648.907Z" fill="#EEEEEE"/>
<path opacity="0.7" d="M585.054 640.369L570.636 644.148L572.415 648.773L586.833 644.994L585.054 640.369Z" fill="#EEEEEE"/>
<path opacity="0.2" d="M576.829 640.192L629.565 626.402L676.863 748.285L709.999 833.653L657.263 847.443L624.052 761.879L576.829 640.192ZM568.905 636.116C568.349 637.203 568.257 638.526 568.766 639.814L616.909 763.867L650.952 851.571C651.959 854.167 654.91 855.701 657.57 855.005L715.086 839.969C716.394 839.636 717.378 838.795 717.923 837.729C718.478 836.643 718.571 835.32 718.062 834.032L684.019 746.329L635.876 622.275C634.868 619.678 631.918 618.144 629.257 618.84L571.741 633.877C570.433 634.21 569.449 635.051 568.905 636.116Z" fill="#424242"/>
<path d="M717.4 824.002L643.359 843.401C637.328 844.983 636.032 855.626 638.283 861.441C638.627 862.326 639.318 863.077 640.205 863.531C641.093 863.984 642.106 864.104 643.025 863.864L732.06 840.533C733.953 840.024 734.914 838.144 734.217 836.312C731.976 830.476 723.431 822.42 717.4 824.002Z" fill="url(#paint6_linear)"/>
<path opacity="0.2" d="M645.869 850.903C646.04 850.569 646.193 850.383 646.269 850.291L719.736 831.046C720.869 831.283 723.049 832.898 724.774 834.833L644.904 855.759C644.915 854.026 645.207 852.198 645.869 850.903ZM638.929 847.356C636.857 851.41 636.775 857.508 638.293 861.446C638.637 862.332 639.328 863.082 640.216 863.536C641.103 863.989 642.116 864.109 643.036 863.869L732.07 840.538C733.017 840.284 733.736 839.676 734.12 838.924C734.504 838.172 734.576 837.233 734.227 836.317C731.976 830.502 723.441 822.425 717.41 824.008L643.369 843.406C641.408 843.933 639.932 845.392 638.929 847.356Z" fill="#424242"/>
</g>
<rect width="1000" height="1000" stroke="black"/>
<defs>
<filter id="filter0_d" x="159.307" y="62.8125" width="646.64" height="881.122" filterUnits="userSpaceOnUse" color-interpolation-filters="sRGB">
<feFlood flood-opacity="0" result="BackgroundImageFix"/>
<feColorMatrix in="SourceAlpha" type="matrix" values="0 0 0 0 0 0 0 0 0 0 0 0 0 0 0 0 0 0 127 0"/>
<feOffset dy="4"/>
<feGaussianBlur stdDeviation="2"/>
<feColorMatrix type="matrix" values="0 0 0 0 0 0 0 0 0 0 0 0 0 0 0 0 0 0 0.25 0"/>
<feBlend mode="normal" in2="BackgroundImageFix" result="effect1_dropShadow"/>
<feBlend mode="normal" in="SourceGraphic" in2="effect1_dropShadow" result="shape"/>
</filter>
<linearGradient id="paint0_linear" x1="558.845" y1="565.823" x2="634.978" y2="604.729" gradientUnits="userSpaceOnUse">
<stop stop-color="#E1F5FE"/>
<stop offset="1" stop-color="#81D4FA"/>
</linearGradient>
<linearGradient id="paint1_linear" x1="642.217" y1="847.766" x2="704.309" y2="879.496" gradientUnits="userSpaceOnUse">
<stop stop-color="#E1F5FE"/>
<stop offset="1" stop-color="#81D4FA"/>
</linearGradient>
<linearGradient id="paint2_linear" x1="571.897" y1="610.316" x2="636.037" y2="643.093" gradientUnits="userSpaceOnUse">
<stop stop-color="#E1F5FE"/>
<stop offset="1" stop-color="#81D4FA"/>
</linearGradient>
<linearGradient id="paint3_linear" x1="598.139" y1="764.287" x2="761.419" y2="847.728" gradientUnits="userSpaceOnUse">
<stop stop-color="#E1F5FE"/>
<stop offset="1" stop-color="#81D4FA"/>
</linearGradient>
<linearGradient id="paint4_linear" x1="597.509" y1="677.523" x2="659.791" y2="709.351" gradientUnits="userSpaceOnUse">
<stop offset="0.005" stop-color="#EF5350"/>
<stop offset="1" stop-color="#E53935"/>
</linearGradient>
<linearGradient id="paint5_linear" x1="679.022" y1="882.76" x2="742.063" y2="914.976" gradientUnits="userSpaceOnUse">
<stop stop-color="#81D4FA"/>
<stop offset="1" stop-color="#29B6F6"/>
</linearGradient>
<linearGradient id="paint6_linear" x1="633.499" y1="819.534" x2="716.851" y2="862.129" gradientUnits="userSpaceOnUse">
<stop stop-color="#E1F5FE"/>
<stop offset="1" stop-color="#81D4FA"/>
</linearGradient>
<clipPath id="clip0">
<rect width="300.355" height="332.542" fill="white" transform="translate(430 799.457) rotate(-62.9317)"/>
</clipPath>
</defs>
</svg>
