<svg width="1000" height="1000" viewBox="0 0 1000 1000" fill="none" xmlns="http://www.w3.org/2000/svg">
<path d="M639.562 582.094C624.576 529.233 578.84 375.608 595.506 165.039H409.534C426.201 375.608 380.451 529.233 365.479 582.094" fill="#FADCBC"/>
<path d="M639.562 582.094C624.576 529.233 578.84 375.608 595.506 165.039H409.534C426.201 375.608 380.451 529.233 365.479 582.094" stroke="#FADCBC" stroke-width="0.0138889"/>
<path d="M697.954 510.01C803.274 574.829 737.301 687.121 674.51 704.746C620.065 720.037 638.926 834.482 500.038 834.093C361.149 834.454 379.996 720.037 325.551 704.746C262.774 687.121 196.649 574.829 301.968 510.01" fill="#FADCBC"/>
<path d="M697.954 510.01C803.274 574.829 737.301 687.121 674.51 704.746C620.065 720.037 638.926 834.482 500.038 834.093C361.149 834.454 379.996 720.037 325.551 704.746C262.774 687.121 196.649 574.829 301.968 510.01" stroke="#FADCBC" stroke-width="0.0138889"/>
<path d="M409.52 178.711C426.187 382.267 380.451 530.767 365.479 581.878" stroke="black" stroke-width="0.0277778" stroke-miterlimit="10" stroke-linecap="round" stroke-linejoin="round"/>
<path d="M595.399 178.711C578.732 382.267 624.469 530.767 639.455 581.878" stroke="black" stroke-width="0.0277778" stroke-miterlimit="10" stroke-linecap="round" stroke-linejoin="round"/>
<path d="M697.851 523.682C803.171 588.501 737.198 686.904 674.407 704.529C619.962 719.821 638.823 834.265 499.935 833.876C361.046 834.237 379.893 719.821 325.448 704.529C262.671 686.904 196.698 588.501 302.018 523.696" stroke="black" stroke-width="0.0277778" stroke-miterlimit="10" stroke-linecap="round" stroke-linejoin="round"/>
</svg>
