<svg width="1000" height="1000" viewBox="0 0 1000 1000" fill="none" xmlns="http://www.w3.org/2000/svg">
<path d="M696.417 303.833C690.918 303.845 685.539 302.223 680.964 299.173C676.388 296.123 672.822 291.782 670.718 286.702C668.614 281.621 668.066 276.03 669.145 270.638C670.224 265.246 672.881 260.296 676.778 256.416L892.834 40.3608C895.413 37.7818 898.474 35.736 901.844 34.3402C905.214 32.9445 908.825 32.2261 912.473 32.2261C916.12 32.2261 919.731 32.9445 923.101 34.3402C926.471 35.736 929.532 37.7818 932.111 40.3608C934.69 42.9398 936.736 46.0015 938.132 49.3712C939.528 52.7408 940.246 56.3524 940.246 59.9997C940.246 63.6469 939.528 67.2585 938.132 70.6282C936.736 73.9978 934.69 77.0595 932.111 79.6386L716.056 295.694C713.48 298.277 710.419 300.326 707.049 301.723C703.678 303.12 700.065 303.837 696.417 303.833Z" fill="#66757F"/>
<path d="M185.75 904.412C164.055 926.078 128.861 926.078 107.167 904.412L67.8888 865.134C62.7276 859.975 58.6334 853.85 55.8401 847.108C53.0467 840.366 51.609 833.14 51.609 825.842C51.609 818.545 53.0467 811.319 55.8401 804.577C58.6334 797.835 62.7276 791.71 67.8888 786.551L205.389 649.078C215.807 638.663 229.935 632.813 244.667 632.812C259.398 632.813 273.526 638.663 283.944 649.078L323.25 688.356C333.665 698.774 339.516 712.903 339.516 727.634C339.516 742.365 333.665 756.494 323.25 766.912L185.75 904.412Z" fill="#CCD6DD"/>
<path d="M745.528 344.902C737.714 352.714 727.118 357.102 716.069 357.102C705.021 357.102 694.424 352.714 686.611 344.902L627.694 285.986C619.878 278.173 615.485 267.575 615.482 256.523C615.48 245.472 619.867 234.872 627.68 227.055C635.493 219.239 646.091 214.846 657.143 214.843C668.194 214.841 678.794 219.228 686.611 227.041L745.528 285.986C753.339 293.799 757.727 304.396 757.727 315.444C757.727 326.493 753.339 337.089 745.528 344.902Z" fill="#99AAB5"/>
<path d="M401.78 767.274C391.361 777.689 377.233 783.54 362.502 783.54C347.77 783.54 333.642 777.689 323.224 767.274L205.363 649.441C200.202 644.282 196.108 638.156 193.314 631.414C190.521 624.673 189.083 617.447 189.083 610.149C189.083 602.852 190.521 595.626 193.314 588.884C196.108 582.142 200.202 576.017 205.363 570.857L539.28 236.969C549.698 226.554 563.826 220.703 578.557 220.703C593.289 220.703 607.417 226.554 617.835 236.969L735.696 354.83C740.857 359.989 744.952 366.114 747.745 372.856C750.538 379.598 751.976 386.824 751.976 394.121C751.976 401.419 750.538 408.645 747.745 415.387C744.952 422.128 740.857 428.254 735.696 433.413L401.78 767.274Z" fill="#E1E8ED"/>
<path d="M519.64 649.441C497.946 671.107 482.418 651.469 460.723 629.802L342.862 511.941C321.168 490.246 301.529 474.719 323.223 453.024L539.279 236.969C549.697 226.553 563.825 220.703 578.557 220.703C593.288 220.703 607.416 226.553 617.835 236.969L735.696 354.83C740.857 359.989 744.951 366.114 747.744 372.856C750.538 379.598 751.975 386.824 751.975 394.121C751.975 401.419 750.538 408.645 747.744 415.387C744.951 422.128 740.857 428.254 735.696 433.413L519.64 649.441Z" fill="#DD2E44"/>
<path d="M411.613 835.247C403.799 843.059 393.203 847.447 382.154 847.447C371.106 847.447 360.51 843.059 352.696 835.247L136.641 619.22C129.16 611.335 125.054 600.842 125.197 589.975C125.34 579.107 129.721 568.726 137.406 561.041C145.091 553.356 155.473 548.975 166.34 548.832C177.207 548.689 187.701 552.795 195.585 560.275L411.641 776.331C419.448 784.148 423.831 794.746 423.826 805.795C423.821 816.843 419.428 827.438 411.613 835.247ZM215.196 953.109C211.327 956.981 206.732 960.052 201.675 962.148C196.618 964.243 191.198 965.322 185.724 965.322C180.25 965.322 174.83 964.243 169.773 962.148C164.716 960.052 160.121 956.981 156.252 953.109L18.7516 815.609C14.8831 811.738 11.8148 807.144 9.72185 802.088C7.62892 797.032 6.55236 791.613 6.55365 786.14C6.55626 775.089 10.949 764.491 18.7655 756.678C26.582 748.865 37.182 744.478 48.2337 744.48C59.2853 744.483 69.8832 748.875 77.6961 756.692L215.196 894.192C223.007 902.006 227.396 912.602 227.396 923.65C227.396 934.699 223.007 945.295 215.196 953.109Z" fill="#99AAB5"/>
<path d="M941.194 458.739C930.805 442.572 916.555 420.406 898.555 384.406C894.916 377.072 882.889 377.072 879.25 384.406C861.25 420.406 847 442.572 836.611 458.739C822.083 481.35 813.305 495.017 813.305 518.85C813.305 560.545 847.222 594.461 888.916 594.461C930.611 594.461 964.528 560.545 964.528 518.85C964.5 495.017 955.722 481.35 941.194 458.739ZM830.083 708.739C819.694 692.572 805.444 670.406 787.444 634.406C783.805 627.072 771.75 627.072 768.139 634.406C750.139 670.406 735.889 692.572 725.5 708.739C710.972 731.35 702.194 745.045 702.194 768.85C702.194 810.545 736.111 844.489 777.805 844.489C819.5 844.489 853.416 810.545 853.416 768.85C853.389 745.045 844.611 731.35 830.083 708.739Z" fill="#DD2E44"/>
</svg>
