<svg width="1000" height="1000" viewBox="0 0 1000 1000" fill="none" xmlns="http://www.w3.org/2000/svg">
<path d="M484.375 406.25C510.263 406.25 531.25 385.263 531.25 359.375C531.25 333.487 510.263 312.5 484.375 312.5C458.487 312.5 437.5 333.487 437.5 359.375C437.5 385.263 458.487 406.25 484.375 406.25Z" fill="#D82B2B"/>
<path d="M640.625 531.25C666.513 531.25 687.5 510.263 687.5 484.375C687.5 458.487 666.513 437.5 640.625 437.5C614.737 437.5 593.75 458.487 593.75 484.375C593.75 510.263 614.737 531.25 640.625 531.25Z" fill="#D82B2B"/>
<path d="M500 531.25C517.259 531.25 531.25 517.259 531.25 500C531.25 482.741 517.259 468.75 500 468.75C482.741 468.75 468.75 482.741 468.75 500C468.75 517.259 482.741 531.25 500 531.25Z" fill="#D82B2B"/>
<path d="M515.625 687.5C541.513 687.5 562.5 666.513 562.5 640.625C562.5 614.737 541.513 593.75 515.625 593.75C489.737 593.75 468.75 614.737 468.75 640.625C468.75 666.513 489.737 687.5 515.625 687.5Z" fill="#D82B2B"/>
<path d="M359.375 562.5C385.263 562.5 406.25 541.513 406.25 515.625C406.25 489.737 385.263 468.75 359.375 468.75C333.487 468.75 312.5 489.737 312.5 515.625C312.5 541.513 333.487 562.5 359.375 562.5Z" fill="#D82B2B"/>
<path d="M783.786 421.5V470.5H735.391C730.738 422.642 712.545 377.283 683.101 340.135L717.025 304.929L750.405 339.596L783.786 304.954L683.644 201L650.264 235.643L683.644 270.286L649.721 305.493C613.928 274.933 570.222 256.051 524.107 251.225V201H571.321V152H429.679V201H476.893V251.225C430.787 256.056 387.089 274.937 351.303 305.493L317.332 270.286L350.713 235.643L317.356 201L217.214 304.954L250.595 339.596L283.975 304.929L317.899 340.16C288.468 377.304 270.283 422.653 265.633 470.5H217.214V421.5H170V568.5H217.214V519.5H265.609C270.262 567.358 288.455 612.717 317.899 649.864L283.975 685.071L250.595 650.404L217.214 685.047L317.356 789L350.736 754.357L317.356 719.714L351.279 684.508C387.072 715.067 430.778 733.949 476.893 738.775V789H429.679V838H571.321V789H524.107V738.775C570.213 733.944 613.911 715.063 649.697 684.508L683.644 719.714L650.264 754.357L683.644 789L783.786 685.047L750.405 650.404L717.025 685.071L683.101 649.864C712.536 612.714 730.721 567.355 735.367 519.5H783.786V568.5H831V421.5H783.786ZM500.5 691C463.148 691 426.634 679.505 395.577 657.968C364.519 636.431 340.313 605.82 326.019 570.006C311.725 534.192 307.985 494.783 315.272 456.762C322.559 418.742 340.546 383.818 366.958 356.407C393.37 328.996 427.021 310.329 463.656 302.766C500.29 295.203 538.263 299.085 572.773 313.92C607.282 328.754 636.777 353.876 657.529 386.108C678.281 418.34 689.357 456.235 689.357 495C689.295 546.963 669.377 596.778 633.973 633.521C598.569 670.264 550.569 690.935 500.5 691Z" fill="#E37272"/>
<path d="M303.344 934.523H286.539V972H265.445V869.625H303.484C315.578 869.625 324.906 872.32 331.469 877.711C338.031 883.102 341.312 890.719 341.312 900.562C341.312 907.547 339.789 913.383 336.742 918.07C333.742 922.711 329.172 926.414 323.031 929.18L345.18 971.016V972H322.539L303.344 934.523ZM286.539 917.438H303.555C308.852 917.438 312.953 916.102 315.859 913.43C318.766 910.711 320.219 906.984 320.219 902.25C320.219 897.422 318.836 893.625 316.07 890.859C313.352 888.094 309.156 886.711 303.484 886.711H286.539V917.438ZM430.961 886.711H399.602V972H378.508V886.711H347.57V869.625H430.961V886.711ZM495.789 935.93V972H474.695V869.625H514.633C522.32 869.625 529.07 871.031 534.883 873.844C540.742 876.656 545.242 880.664 548.383 885.867C551.523 891.023 553.094 896.906 553.094 903.516C553.094 913.547 549.648 921.469 542.758 927.281C535.914 933.047 526.422 935.93 514.281 935.93H495.789ZM495.789 918.844H514.633C520.211 918.844 524.453 917.531 527.359 914.906C530.312 912.281 531.789 908.531 531.789 903.656C531.789 898.641 530.312 894.586 527.359 891.492C524.406 888.398 520.328 886.805 515.125 886.711H495.789V918.844ZM648.016 937.898C647.219 948.914 643.141 957.586 635.781 963.914C628.469 970.242 618.812 973.406 606.812 973.406C593.688 973.406 583.352 969 575.805 960.188C568.305 951.328 564.555 939.188 564.555 923.766V917.508C564.555 907.664 566.289 898.992 569.758 891.492C573.227 883.992 578.172 878.25 584.594 874.266C591.062 870.234 598.562 868.219 607.094 868.219C618.906 868.219 628.422 871.383 635.641 877.711C642.859 884.039 647.031 892.922 648.156 904.359H627.062C626.547 897.75 624.695 892.969 621.508 890.016C618.367 887.016 613.562 885.516 607.094 885.516C600.062 885.516 594.789 888.047 591.273 893.109C587.805 898.125 586.023 905.93 585.93 916.523V924.258C585.93 935.32 587.594 943.406 590.922 948.516C594.297 953.625 599.594 956.18 606.812 956.18C613.328 956.18 618.18 954.703 621.367 951.75C624.602 948.75 626.453 944.133 626.922 937.898H648.016ZM699.766 934.523H682.961V972H661.867V869.625H699.906C712 869.625 721.328 872.32 727.891 877.711C734.453 883.102 737.734 890.719 737.734 900.562C737.734 907.547 736.211 913.383 733.164 918.07C730.164 922.711 725.594 926.414 719.453 929.18L741.602 971.016V972H718.961L699.766 934.523ZM682.961 917.438H699.977C705.273 917.438 709.375 916.102 712.281 913.43C715.188 910.711 716.641 906.984 716.641 902.25C716.641 897.422 715.258 893.625 712.492 890.859C709.773 888.094 705.578 886.711 699.906 886.711H682.961V917.438Z" fill="#A61111"/>
</svg>
