<svg width="1000" height="1000" viewBox="0 0 1000 1000" fill="none" xmlns="http://www.w3.org/2000/svg">
<path d="M583.764 411.408C583.764 411.408 561.733 393.752 542.904 385.08C530.639 379.455 509.936 364.22 492.592 374.455C484.154 379.455 477.67 389.377 473.764 406.642C469.858 423.908 466.654 443.595 466.654 443.595C466.654 443.595 439.545 400.002 417.904 405.861C398.217 411.252 394.311 472.658 394.311 472.658C394.311 472.658 357.358 419.611 340.092 425.939C322.826 432.189 313.373 471.095 305.483 522.97C299.936 559.689 280.326 758.673 275.639 765.783C270.951 772.892 179.779 860.861 175.092 864.767C170.404 868.673 159.701 877.814 169.233 888.752C177.123 897.814 190.873 888.361 197.123 882.111C203.373 875.861 299.701 784.22 303.217 777.58C309.467 765.783 332.279 557.58 334.623 542.658C336.967 527.736 346.42 475.861 351.498 474.689C358.139 473.127 394.311 521.408 394.311 521.408L423.373 504.142C423.373 504.142 426.264 449.845 431.654 448.752C437.514 447.58 458.764 490.783 458.764 490.783L583.764 411.408Z" fill="#848484"/>
<path d="M284.322 530.852C284.322 530.852 261.119 547.336 163.306 554.836C127.994 557.493 81.1969 545.383 57.2125 536.399C38.6188 529.368 33.6188 520.696 33.6188 520.696C33.6188 520.696 37.1344 504.211 24.5563 504.211C10.7282 504.211 12.3688 522.258 18.3063 529.758C24.1657 537.258 39.9469 550.383 65.025 558.43C93.3063 567.493 126.744 572.805 165.572 571.008C234.322 567.883 279.869 550.149 279.869 550.149L284.322 530.852Z" fill="#848484"/>
<path d="M472.188 466.419C472.188 466.419 483.594 425.95 513.047 410.637C542.501 395.325 613.204 380.012 659.219 370.559C705.235 361.106 832.5 340.325 878.438 337.59C944.454 333.684 956.094 348.137 958.204 363.528C960.157 377.669 946.797 410.637 886.329 429.544C835.079 445.481 673.282 486.965 646.719 493.215C625 498.294 591.407 506.731 566.563 505.794C541.719 504.778 526.797 514.856 529.61 513.684L517.813 526.262L484.844 558.059L471.876 581.653L445.938 583.997L420.001 551.028L407.032 579.309L393.672 578.137C393.672 578.137 390.938 606.028 361.094 621.731C337.11 634.309 311.563 628.372 311.563 628.372C311.563 628.372 265.235 663.762 242.032 679.465C222.266 692.825 183.126 718.372 176.016 727.825C168.907 737.278 148.672 791.106 141.407 810.715C132.344 835.09 122.969 860.637 106.407 853.919C87.5787 846.262 96.4849 821.965 109.141 783.997C126.016 733.294 133.126 708.528 150.782 693.215C168.516 677.747 277.344 601.575 277.344 601.575C277.344 601.575 251.407 533.215 299.766 509.622C344.297 487.903 371.641 512.747 371.641 512.747C371.641 512.747 375.157 476.575 410.547 467.2C445.938 457.825 472.188 466.419 472.188 466.419Z" fill="#5E6467"/>
<path d="M515.58 452.882C513.861 471.085 521.83 495.303 597.299 481.163C680.189 465.616 847.611 424.21 875.424 416.71C914.096 406.319 949.408 381.163 943.158 363.038C936.908 344.991 874.017 348.507 781.908 364.054C698.158 378.194 618.471 395.46 589.408 403.35C560.346 411.241 518.705 419.054 515.58 452.882Z" fill="url(#paint0_radial)"/>
<path d="M288.613 557.2C294.629 566.966 274.082 574.075 253.222 580.794C232.363 587.513 170.332 607.122 103.925 605.95C53.4567 605.091 28.4567 587.903 19.0817 580.794C9.7067 573.685 -5.84018 554.31 8.84732 547.825C22.9879 541.575 24.1598 565.481 24.1598 565.481C24.1598 565.481 44.1598 587.903 102.363 589.856C160.566 591.81 244.16 568.997 259.863 562.747C275.644 556.419 285.488 552.044 288.613 557.2Z" fill="#848484"/>
<path d="M369.983 589.377C362.952 605.158 345.452 609.611 330.139 602.814C314.827 596.017 309.827 581.877 313.811 565.08C317.639 548.673 339.592 537.97 357.405 545.47C376.311 553.205 377.014 573.595 369.983 589.377Z" fill="#020204"/>
<path d="M472.193 466.404C472.193 466.404 467.115 462.497 470.006 451.247C472.975 440.075 516.568 386.404 549.537 349.294C582.506 312.185 708.053 178.435 725.162 163.044C742.272 147.732 778.756 111.169 797.662 127.654C813.365 141.404 800.006 167.107 792.975 178.357C785.943 189.607 770.553 210.154 770.553 210.154L472.193 466.404Z" fill="#77A8AF" fill-opacity="0.65"/>
<path d="M520.684 510.229C520.684 510.229 582.559 468.979 614.356 440.698C646.152 412.417 812.715 271.792 826.934 258.198C841.074 244.683 876.074 204.995 859.512 184.917C842.949 164.839 805.918 189.214 788.027 199.292C772.793 207.808 769.98 210.854 769.98 210.854L472.168 466.401C472.168 466.401 495.84 476.089 503.574 484.292C513.574 494.917 520.684 510.229 520.684 510.229Z" fill="#5A8D91" fill-opacity="0.65"/>
<path d="M363.409 787.746C358.097 798.918 312.706 841.965 296.222 857.278C279.737 872.59 243.175 906.809 237.315 911.496C231.456 916.184 221.925 926.574 232.628 936.262C241.3 944.153 256.612 932.512 262.706 926.809C270.987 919.153 299.815 894.387 323.409 872.59C343.644 853.918 388.253 808.918 391.769 800.715C395.284 792.434 426.222 572.434 431.847 573.84C434.19 574.465 439.659 596.184 441.847 602.746C445.987 615.09 453.8 617.512 459.737 615.324C468.097 612.278 468.019 600.793 468.019 600.793C468.019 600.793 469.19 609.699 479.034 611.574C491.378 613.918 493.956 605.871 496.144 595.637C500.284 576.184 501.456 560.871 506.144 560.871C510.831 560.871 512.003 595.637 514.972 628.606C517.94 661.574 523.8 744.699 529.112 750.012C534.425 755.324 578.331 809.778 605.753 838.996C632.862 867.903 683.565 920.871 690.05 926.809C696.534 932.668 709.503 937.434 714.19 932.668C718.878 927.903 715.362 916.731 706.534 906.731C699.034 898.215 643.487 832.512 627.55 815.403C611.612 798.293 559.19 739.934 555.675 732.903C552.159 725.793 536.847 542.59 536.847 542.59C536.847 542.59 573.956 489.543 579.894 489.543C585.753 489.543 651.222 562.59 668.253 584.387C685.362 606.184 754.893 693.996 761.925 696.965C768.956 699.934 839.425 731.965 870.909 746.496C914.503 766.496 969.893 790.715 975.831 793.059C981.69 795.403 990.128 793.996 992.94 788.918C995.909 783.606 993.565 774.153 975.284 765.324C964.112 759.934 880.987 717.59 867.472 710.559C853.956 703.449 787.94 674.621 782.628 671.106C777.315 667.59 705.44 583.293 687.159 559.153C668.878 535.012 603.487 463.059 598.8 458.371C594.112 453.684 588.8 443.606 577.003 445.403C566.456 446.965 556.769 462.512 546.847 474.778C531.456 493.84 518.644 514.309 518.644 514.309C518.644 514.309 507.472 504.309 492.159 511.34C476.847 518.449 466.847 575.012 466.847 575.012C466.847 575.012 455.128 546.106 452.081 540.246C444.425 525.481 434.972 516.106 422.003 520.793C409.034 525.481 403.175 542.043 399.034 565.012C394.659 587.981 368.722 776.574 363.409 787.746Z" fill="#848484"/>
<defs>
<radialGradient id="paint0_radial" cx="0" cy="0" r="1" gradientUnits="userSpaceOnUse" gradientTransform="translate(669.304 446.184) rotate(-5.0025) scale(253.916 142.225)">
<stop offset="0.005" stop-color="#745963" stop-opacity="0"/>
<stop offset="0.364" stop-color="#894B51" stop-opacity="0.36"/>
<stop offset="1" stop-color="#AA3535"/>
</radialGradient>
</defs>
</svg>
