<svg width="1000" height="1000" viewBox="0 0 1000 1000" fill="none" xmlns="http://www.w3.org/2000/svg">
<path d="M484.375 406.25C510.263 406.25 531.25 385.263 531.25 359.375C531.25 333.487 510.263 312.5 484.375 312.5C458.487 312.5 437.5 333.487 437.5 359.375C437.5 385.263 458.487 406.25 484.375 406.25Z" fill="#2EC057"/>
<path d="M640.625 531.25C666.513 531.25 687.5 510.263 687.5 484.375C687.5 458.487 666.513 437.5 640.625 437.5C614.737 437.5 593.75 458.487 593.75 484.375C593.75 510.263 614.737 531.25 640.625 531.25Z" fill="#2EC057"/>
<path d="M500 531.25C517.259 531.25 531.25 517.259 531.25 500C531.25 482.741 517.259 468.75 500 468.75C482.741 468.75 468.75 482.741 468.75 500C468.75 517.259 482.741 531.25 500 531.25Z" fill="#366831"/>
<path d="M515.625 687.5C541.513 687.5 562.5 666.513 562.5 640.625C562.5 614.737 541.513 593.75 515.625 593.75C489.737 593.75 468.75 614.737 468.75 640.625C468.75 666.513 489.737 687.5 515.625 687.5Z" fill="#2EC057"/>
<path d="M359.375 562.5C385.263 562.5 406.25 541.513 406.25 515.625C406.25 489.737 385.263 468.75 359.375 468.75C333.487 468.75 312.5 489.737 312.5 515.625C312.5 541.513 333.487 562.5 359.375 562.5Z" fill="#2EC057"/>
<path d="M783.786 421.5V470.5H735.391C730.738 422.642 712.545 377.283 683.101 340.135L717.025 304.929L750.405 339.596L783.786 304.954L683.644 201L650.264 235.643L683.644 270.286L649.721 305.493C613.928 274.933 570.222 256.051 524.107 251.225V201H571.321V152H429.679V201H476.893V251.225C430.787 256.056 387.089 274.937 351.303 305.493L317.332 270.286L350.713 235.643L317.356 201L217.214 304.954L250.595 339.596L283.975 304.929L317.899 340.16C288.468 377.304 270.283 422.653 265.633 470.5H217.214V421.5H170V568.5H217.214V519.5H265.609C270.262 567.358 288.455 612.717 317.899 649.864L283.975 685.071L250.595 650.404L217.214 685.047L317.356 789L350.736 754.357L317.356 719.714L351.279 684.508C387.072 715.067 430.778 733.949 476.893 738.775V789H429.679V838H571.321V789H524.107V738.775C570.213 733.944 613.911 715.063 649.697 684.508L683.644 719.714L650.264 754.357L683.644 789L783.786 685.047L750.405 650.404L717.025 685.071L683.101 649.864C712.536 612.714 730.721 567.355 735.367 519.5H783.786V568.5H831V421.5H783.786ZM500.5 691C463.148 691 426.634 679.505 395.577 657.968C364.519 636.431 340.313 605.82 326.019 570.006C311.725 534.192 307.985 494.783 315.272 456.762C322.559 418.742 340.546 383.818 366.958 356.407C393.37 328.996 427.021 310.329 463.656 302.766C500.29 295.203 538.263 299.085 572.773 313.92C607.282 328.754 636.777 353.876 657.529 386.108C678.281 418.34 689.357 456.235 689.357 495C689.295 546.963 669.377 596.778 633.973 633.521C598.569 670.264 550.569 690.935 500.5 691Z" fill="#2B8E53"/>
<path d="M298.352 934.523H281.547V972H260.453V869.625H298.492C310.586 869.625 319.914 872.32 326.477 877.711C333.039 883.102 336.32 890.719 336.32 900.562C336.32 907.547 334.797 913.383 331.75 918.07C328.75 922.711 324.18 926.414 318.039 929.18L340.188 971.016V972H317.547L298.352 934.523ZM281.547 917.438H298.562C303.859 917.438 307.961 916.102 310.867 913.43C313.773 910.711 315.227 906.984 315.227 902.25C315.227 897.422 313.844 893.625 311.078 890.859C308.359 888.094 304.164 886.711 298.492 886.711H281.547V917.438ZM425.969 886.711H394.609V972H373.516V886.711H342.578V869.625H425.969V886.711ZM470.125 930.938L459.156 942.75V972H438.062V869.625H459.156V916.031L468.438 903.305L494.523 869.625H520.469L484.117 915.117L521.523 972H496.422L470.125 930.938ZM623.125 950.906H586.141L579.109 972H556.68L594.789 869.625H614.336L652.656 972H630.227L623.125 950.906ZM591.836 933.82H617.43L604.562 895.5L591.836 933.82ZM741.672 959.062C737.875 963.609 732.508 967.148 725.57 969.68C718.633 972.164 710.945 973.406 702.508 973.406C693.648 973.406 685.867 971.484 679.164 967.641C672.508 963.75 667.352 958.125 663.695 950.766C660.086 943.406 658.234 934.758 658.141 924.82V917.859C658.141 907.641 659.852 898.805 663.273 891.352C666.742 883.852 671.711 878.133 678.18 874.195C684.695 870.211 692.312 868.219 701.031 868.219C713.172 868.219 722.664 871.125 729.508 876.938C736.352 882.703 740.406 891.117 741.672 902.18H721.141C720.203 896.32 718.117 892.031 714.883 889.312C711.695 886.594 707.289 885.234 701.664 885.234C694.492 885.234 689.031 887.93 685.281 893.32C681.531 898.711 679.633 906.727 679.586 917.367V923.906C679.586 934.641 681.625 942.75 685.703 948.234C689.781 953.719 695.758 956.461 703.633 956.461C711.555 956.461 717.203 954.773 720.578 951.398V933.75H701.383V918.211H741.672V959.062Z" fill="#0FAF4F"/>
</svg>
