<svg width="1000" height="1000" viewBox="0 0 1000 1000" fill="none" xmlns="http://www.w3.org/2000/svg">
<path d="M247.75 105.359C217.969 105.359 191.188 121.921 177.844 148.577L168.219 167.859H156.25C121.781 167.859 93.75 195.89 93.75 230.359V355.359H125V855.359C125 889.827 153.031 917.859 187.5 917.859H687.5C721.969 917.859 750 889.827 750 855.359V355.359H781.25V230.359C781.25 195.89 753.219 167.859 718.75 167.859H706.781L697.156 148.577C690.711 135.558 680.743 124.606 668.386 116.967C656.029 109.327 641.778 105.305 627.25 105.359H247.75ZM247.75 167.859H627.25C633.219 167.859 638.594 171.14 641.25 176.452L668.219 230.359H718.75V292.859H451.5H156.25V230.359H206.781L233.75 176.452C235.047 173.854 237.046 171.672 239.521 170.153C241.995 168.634 244.846 167.839 247.75 167.859ZM187.5 355.359H687.5V855.359H187.5V761.609H375V699.109H187.5V636.609H375V574.109H187.5V511.609H375V449.109H187.5V355.359Z" fill="#BCBE59"/>
</svg>
