<svg width="1000" height="1000" viewBox="0 0 1000 1000" fill="none" xmlns="http://www.w3.org/2000/svg">
<path d="M533.653 358.624C532.127 357.86 501.959 342.888 458.523 334.578C521.393 264.593 540.767 183.96 541.628 180.261C542.783 175.295 541.198 170.106 537.421 166.501C534.456 163.668 530.454 162.122 526.344 162.122C525.228 162.122 524.103 162.234 522.978 162.476C519.181 163.268 438.297 180.727 365.848 236.784C365.858 235.423 365.858 234.054 365.858 232.684C365.858 122.015 307.167 33.5741 304.672 29.8662C303.259 27.761 301.311 26.0285 299.009 24.8286C296.708 23.6286 294.125 22.9997 291.501 23C286.168 23 281.197 25.59 278.321 29.8662C275.825 33.5741 217.134 122.015 217.134 232.684C217.134 234.054 217.144 235.423 217.144 236.784C144.705 180.736 63.8213 163.277 60.0149 162.476C58.8994 162.243 57.7741 162.122 56.6488 162.122C52.5391 162.122 48.537 163.668 45.5721 166.501C43.7135 168.273 42.3546 170.463 41.6208 172.869C40.8871 175.274 40.8023 177.816 41.3743 180.261C42.2353 183.96 61.6099 264.593 124.479 334.578C81.0431 342.888 50.8854 357.86 49.3491 358.624C46.8318 359.889 44.7247 361.785 43.2542 364.106C41.7838 366.427 41.0057 369.085 41.0037 371.796C41.0017 374.506 41.7758 377.166 43.2428 379.489C44.7098 381.812 46.8141 383.71 49.3295 384.98C51.7269 386.181 108.784 414.531 179.951 414.531C185.959 414.531 191.654 414.438 197.075 414.242C185.949 434.953 180.91 449.934 180.626 450.781C178.865 456.073 180.342 461.859 184.452 465.79C186.472 467.72 189.007 469.086 191.784 469.741C194.561 470.397 197.474 470.316 200.206 469.507C201.997 468.976 237.116 458.337 275.845 432.903V492.547C275.845 496.665 279.348 500 283.673 500H299.329C303.654 500 307.157 496.665 307.157 492.547V432.913C345.887 458.346 381.006 468.976 382.796 469.517C385.528 470.325 388.441 470.406 391.218 469.751C393.995 469.095 396.531 467.729 398.55 465.799C402.66 461.868 404.138 456.082 402.376 450.791C402.093 449.943 397.043 434.962 385.928 414.252C391.348 414.447 397.053 414.541 403.051 414.541C474.209 414.541 531.276 386.191 533.673 384.989C538.8 382.399 542.01 377.331 542 371.806C541.99 366.272 538.781 361.195 533.653 358.624Z" fill="#158865"/>
<path d="M549.125 458.875C534.234 458.875 520.844 467.157 514.172 480.485L509.359 490.125H503.375C486.141 490.125 472.125 504.141 472.125 521.375V583.875H487.75V833.875C487.75 851.11 501.766 865.125 519 865.125H769C786.234 865.125 800.25 851.11 800.25 833.875V583.875H815.875V521.375C815.875 504.141 801.859 490.125 784.625 490.125H778.641L773.828 480.485C770.605 473.975 765.622 468.499 759.443 464.679C753.265 460.86 746.139 458.849 738.875 458.875H549.125ZM549.125 490.125H738.875C741.859 490.125 744.547 491.766 745.875 494.422L759.359 521.375H784.625V552.625H503.375V521.375H528.641L542.125 494.422C542.773 493.123 543.773 492.032 545.01 491.272C546.248 490.513 547.673 490.116 549.125 490.125ZM519 583.875H769V833.875H519V583.875ZM628.375 630.75V693.25H565.875V724.5H628.375V787H659.625V724.5H722.125V693.25H659.625V630.75H628.375Z" fill="#A92424"/>
</svg>
