<svg width="1000" height="1000" viewBox="0 0 1000 1000" fill="none" xmlns="http://www.w3.org/2000/svg">
<path d="M687.744 345.713C589.307 225.01 545.791 122.354 520.869 61.1035C512.979 41.8066 486.807 41.8066 478.994 61.1035C454.072 122.354 410.557 225.01 312.119 345.713C250.479 421.338 189.697 532.041 189.697 641.104C189.697 827.197 323.994 953.213 499.932 953.213C675.869 953.213 810.166 827.119 810.166 641.104C810.166 527.744 749.385 421.338 687.744 345.713Z" fill="#E5322E"/>
<path d="M585.759 623.694C635.368 529.319 628.337 436.976 667.556 453.616C720.837 476.351 779.821 593.148 757.712 699.007C741.931 774.476 690.993 820.179 626.071 798.382C573.649 780.804 541.071 708.694 585.759 623.694Z" fill="#FF6050"/>
</svg>
