<svg width="1000" height="1000" viewBox="0 0 1000 1000" fill="none" xmlns="http://www.w3.org/2000/svg">
<path d="M562.5 229.167C608.333 229.167 645.833 191.667 645.833 145.833C645.833 100 608.333 62.5 562.5 62.5C516.667 62.5 479.167 100 479.167 145.833C479.167 191.667 516.667 229.167 562.5 229.167ZM833.333 520.833V958.333H791.667V520.833C791.667 509.167 782.5 500 770.833 500C759.167 500 750 509.167 750 520.833V562.5H708.333V533.75C648.269 518.054 596.16 480.642 562.083 428.75C549.167 465 541.667 502.917 541.667 541.667C541.667 551.25 542.5 560.833 542.917 570.417L625 687.5V958.333H541.667V750L467.5 644.167L458.333 791.667L333.333 958.333L266.667 908.333L375 763.75V541.667C375 493.75 382.5 446.25 395.833 400.417L333.333 435.833V583.333H250V387.5L475 259.583V260C487.473 253.332 501.437 249.948 515.578 250.166C529.72 250.385 543.573 254.199 555.833 261.25C570.833 270 582.083 282.5 589.167 296.667L622.083 366.25C635.858 393.916 657.077 417.191 683.355 433.459C709.633 449.726 739.928 458.34 770.833 458.333C805.417 458.333 833.333 486.25 833.333 520.833Z" fill="#626262"/>
</svg>
