<svg width="1000" height="1000" viewBox="0 0 1000 1000" fill="none" xmlns="http://www.w3.org/2000/svg">
<g id="credit-card">
<path id="Vector" d="M982.523 507.059C1000.65 530.419 998.46 558.7 977.21 569.794L333.382 906.903C305.101 921.59 267.914 909.481 251.039 879.95L11.4291 461.434C-2.55523 436.981 8.30414 408.309 35.101 397.606L656.117 150.184C676.898 141.981 706.195 151.356 721.664 171.278L982.523 507.059Z" fill="#FCC21B"/>
<path id="Vector_2" d="M807 289.271L103.402 616L43 503.867L740.307 200L807 289.271Z" fill="#2F2F2F"/>
<path id="Vector_3" d="M931.746 504.735C940.652 516.454 939.402 530.517 928.621 535.907L841.98 580.126C830.808 585.829 814.324 580.517 805.418 568.329L754.558 498.563C746.043 486.767 748.152 472.86 759.246 467.548L845.418 426.532C856.043 421.454 871.668 426.532 880.418 437.782L931.746 504.735Z" fill="white"/>
</g>
</svg>
